solid OpenSCAD_Model
  facet normal 0 0 -1
    outer loop
      vertex -11 0 0
      vertex -10.7596 2.28703 0
      vertex -10.7596 -2.28703 0
    endloop
  endfacet
  facet normal 0 0 -1
    outer loop
      vertex -10.7596 -2.28703 0
      vertex -10.7596 2.28703 0
      vertex -10.049 4.4741 0
    endloop
  endfacet
  facet normal 0 0 -1
    outer loop
      vertex -10.7596 -2.28703 0
      vertex -10.049 4.4741 0
      vertex -8.89919 6.46564 0
    endloop
  endfacet
  facet normal 0 0 -1
    outer loop
      vertex -10.7596 -2.28703 0
      vertex -8.89919 6.46564 0
      vertex -7.36044 8.17459 0
    endloop
  endfacet
  facet normal 0 0 -1
    outer loop
      vertex -10.7596 -2.28703 0
      vertex -7.36044 8.17459 0
      vertex -5.5 9.52628 0
    endloop
  endfacet
  facet normal 0 0 -1
    outer loop
      vertex -10.7596 -2.28703 0
      vertex -5.5 9.52628 0
      vertex -3.39919 10.4616 0
    endloop
  endfacet
  facet normal 0 0 -1
    outer loop
      vertex -10.7596 -2.28703 0
      vertex -3.39919 10.4616 0
      vertex -1.14981 10.9397 0
    endloop
  endfacet
  facet normal 0 0 -1
    outer loop
      vertex -10.7596 -2.28703 0
      vertex -1.14981 10.9397 0
      vertex 1.14981 10.9397 0
    endloop
  endfacet
  facet normal 0 0 -1
    outer loop
      vertex -10.7596 -2.28703 0
      vertex 1.14981 10.9397 0
      vertex 3.39919 10.4616 0
    endloop
  endfacet
  facet normal 0 0 -1
    outer loop
      vertex -10.7596 -2.28703 0
      vertex 3.39919 10.4616 0
      vertex 5.5 9.52628 0
    endloop
  endfacet
  facet normal 0 0 -1
    outer loop
      vertex 0 4.07836 0
      vertex 5.5 9.52628 0
      vertex 7.36044 8.17459 0
    endloop
  endfacet
  facet normal 0 0 -1
    outer loop
      vertex 1.56072 3.76792 0
      vertex 7.36044 8.17459 0
      vertex 8.89919 6.46564 0
    endloop
  endfacet
  facet normal 0 0 -1
    outer loop
      vertex 2.88384 2.88384 0
      vertex 8.89919 6.46564 0
      vertex 10.049 4.4741 0
    endloop
  endfacet
  facet normal 0 0 -1
    outer loop
      vertex 3.76792 1.56072 0
      vertex 10.049 4.4741 0
      vertex 10.7596 2.28703 0
    endloop
  endfacet
  facet normal 0 0 -1
    outer loop
      vertex 4.07836 0 0
      vertex 10.7596 2.28703 0
      vertex 11 0 0
    endloop
  endfacet
  facet normal 0 0 -1
    outer loop
      vertex 3.76792 -1.56072 0
      vertex 11 0 0
      vertex 10.7596 -2.28703 0
    endloop
  endfacet
  facet normal 0 0 -1
    outer loop
      vertex 2.88384 -2.88384 0
      vertex 10.7596 -2.28703 0
      vertex 10.049 -4.4741 0
    endloop
  endfacet
  facet normal 0 0 -1
    outer loop
      vertex 0 -4.07836 0
      vertex 10.049 -4.4741 0
      vertex 8.89919 -6.46564 0
    endloop
  endfacet
  facet normal 0 0 -1
    outer loop
      vertex -10.7596 -2.28703 0
      vertex 8.89919 -6.46564 0
      vertex 7.36044 -8.17459 0
    endloop
  endfacet
  facet normal 0 0 -1
    outer loop
      vertex -10.7596 -2.28703 0
      vertex 7.36044 -8.17459 0
      vertex 5.5 -9.52628 0
    endloop
  endfacet
  facet normal 0 0 -1
    outer loop
      vertex -10.7596 -2.28703 0
      vertex 5.5 -9.52628 0
      vertex 3.39919 -10.4616 0
    endloop
  endfacet
  facet normal 0 0 -1
    outer loop
      vertex -10.7596 -2.28703 0
      vertex 3.39919 -10.4616 0
      vertex 1.14981 -10.9397 0
    endloop
  endfacet
  facet normal 0 0 -1
    outer loop
      vertex -10.7596 -2.28703 0
      vertex 1.14981 -10.9397 0
      vertex -1.14981 -10.9397 0
    endloop
  endfacet
  facet normal 0 0 -1
    outer loop
      vertex -10.7596 -2.28703 0
      vertex -1.14981 -10.9397 0
      vertex -3.39919 -10.4616 0
    endloop
  endfacet
  facet normal 0 0 -1
    outer loop
      vertex -10.7596 -2.28703 0
      vertex -3.39919 -10.4616 0
      vertex -5.5 -9.52628 0
    endloop
  endfacet
  facet normal 0 0 -1
    outer loop
      vertex -10.7596 -2.28703 0
      vertex -5.5 -9.52628 0
      vertex -7.36044 -8.17459 0
    endloop
  endfacet
  facet normal 0 0 -1
    outer loop
      vertex -10.7596 -2.28703 0
      vertex -7.36044 -8.17459 0
      vertex -8.89919 -6.46564 0
    endloop
  endfacet
  facet normal 0 0 -1
    outer loop
      vertex -10.7596 -2.28703 0
      vertex -8.89919 -6.46564 0
      vertex -10.049 -4.4741 0
    endloop
  endfacet
  facet normal 0 0 -1
    outer loop
      vertex -3.76792 -1.56072 0
      vertex -10.7596 -2.28703 0
      vertex -4.07836 0 0
    endloop
  endfacet
  facet normal 0 0 -1
    outer loop
      vertex -2.88384 -2.88384 0
      vertex -10.7596 -2.28703 0
      vertex -3.76792 -1.56072 0
    endloop
  endfacet
  facet normal 0 0 -1
    outer loop
      vertex -1.56072 -3.76792 0
      vertex -10.7596 -2.28703 0
      vertex -2.88384 -2.88384 0
    endloop
  endfacet
  facet normal 0 0 -1
    outer loop
      vertex 2.88384 -2.88384 0
      vertex 10.049 -4.4741 0
      vertex 1.56072 -3.76792 0
    endloop
  endfacet
  facet normal 0 0 -1
    outer loop
      vertex -10.7596 -2.28703 0
      vertex -1.56072 -3.76792 0
      vertex 8.89919 -6.46564 0
    endloop
  endfacet
  facet normal 0 0 -1
    outer loop
      vertex -1.56072 -3.76792 0
      vertex 0 -4.07836 0
      vertex 8.89919 -6.46564 0
    endloop
  endfacet
  facet normal 0 0 -1
    outer loop
      vertex 1.56072 -3.76792 0
      vertex 10.049 -4.4741 0
      vertex 0 -4.07836 0
    endloop
  endfacet
  facet normal 0 0 -1
    outer loop
      vertex 3.76792 -1.56072 0
      vertex 10.7596 -2.28703 0
      vertex 2.88384 -2.88384 0
    endloop
  endfacet
  facet normal 0 0 -1
    outer loop
      vertex 4.07836 0 0
      vertex 11 0 0
      vertex 3.76792 -1.56072 0
    endloop
  endfacet
  facet normal 0 0 -1
    outer loop
      vertex 1.56072 3.76792 0
      vertex 8.89919 6.46564 0
      vertex 2.88384 2.88384 0
    endloop
  endfacet
  facet normal 0 0 -1
    outer loop
      vertex -1.56072 3.76792 0
      vertex 5.5 9.52628 0
      vertex 0 4.07836 0
    endloop
  endfacet
  facet normal 0 0 -1
    outer loop
      vertex -3.76792 1.56072 0
      vertex -10.7596 -2.28703 0
      vertex -2.88384 2.88384 0
    endloop
  endfacet
  facet normal 0 0 -1
    outer loop
      vertex -10.7596 -2.28703 0
      vertex 5.5 9.52628 0
      vertex -1.56072 3.76792 0
    endloop
  endfacet
  facet normal 0 0 -1
    outer loop
      vertex -10.7596 -2.28703 0
      vertex -1.56072 3.76792 0
      vertex -2.88384 2.88384 0
    endloop
  endfacet
  facet normal 0 0 -1
    outer loop
      vertex 2.88384 2.88384 0
      vertex 10.049 4.4741 0
      vertex 3.76792 1.56072 0
    endloop
  endfacet
  facet normal 0 0 -1
    outer loop
      vertex -4.07836 0 0
      vertex -10.7596 -2.28703 0
      vertex -3.76792 1.56072 0
    endloop
  endfacet
  facet normal 0 0 -1
    outer loop
      vertex 0 4.07836 0
      vertex 7.36044 8.17459 0
      vertex 1.56072 3.76792 0
    endloop
  endfacet
  facet normal 0 0 -1
    outer loop
      vertex 3.76792 1.56072 0
      vertex 10.7596 2.28703 0
      vertex 4.07836 0 0
    endloop
  endfacet
  facet normal -0.994522 0.104528 0
    outer loop
      vertex -11 0 0
      vertex -11 0 7
      vertex -10.7596 2.28703 0
    endloop
  endfacet
  facet normal -0.994522 0.104528 0
    outer loop
      vertex -10.7596 2.28703 0
      vertex -11 0 7
      vertex -10.7596 2.28703 7
    endloop
  endfacet
  facet normal -0.994522 -0.104528 0
    outer loop
      vertex -11 0 0
      vertex -10.7596 -2.28703 0
      vertex -11 0 7
    endloop
  endfacet
  facet normal -0.994522 -0.104528 0
    outer loop
      vertex -11 0 7
      vertex -10.7596 -2.28703 0
      vertex -10.7596 -2.28703 7
    endloop
  endfacet
  facet normal -0.951056 -0.309017 0
    outer loop
      vertex -10.7596 -2.28703 0
      vertex -10.049 -4.4741 0
      vertex -10.7596 -2.28703 7
    endloop
  endfacet
  facet normal -0.951056 -0.309017 0
    outer loop
      vertex -10.7596 -2.28703 7
      vertex -10.049 -4.4741 0
      vertex -10.049 -4.4741 7
    endloop
  endfacet
  facet normal -0.866025 -0.5 0
    outer loop
      vertex -10.049 -4.4741 0
      vertex -8.89919 -6.46564 0
      vertex -10.049 -4.4741 7
    endloop
  endfacet
  facet normal -0.866025 -0.5 0
    outer loop
      vertex -10.049 -4.4741 7
      vertex -8.89919 -6.46564 0
      vertex -8.89919 -6.46564 7
    endloop
  endfacet
  facet normal -0.743145 -0.669131 0
    outer loop
      vertex -8.89919 -6.46564 0
      vertex -7.36044 -8.17459 0
      vertex -8.89919 -6.46564 7
    endloop
  endfacet
  facet normal -0.743145 -0.669131 0
    outer loop
      vertex -8.89919 -6.46564 7
      vertex -7.36044 -8.17459 0
      vertex -7.36044 -8.17459 7
    endloop
  endfacet
  facet normal -0.587785 -0.809017 0
    outer loop
      vertex -7.36044 -8.17459 7
      vertex -7.36044 -8.17459 0
      vertex -5.5 -9.52628 0
    endloop
  endfacet
  facet normal -0.587785 -0.809017 0
    outer loop
      vertex -5.5 -9.52628 7
      vertex -7.36044 -8.17459 7
      vertex -5.5 -9.52628 0
    endloop
  endfacet
  facet normal -0.406737 -0.913545 0
    outer loop
      vertex -5.5 -9.52628 7
      vertex -5.5 -9.52628 0
      vertex -3.39919 -10.4616 0
    endloop
  endfacet
  facet normal -0.406737 -0.913545 0
    outer loop
      vertex -3.39919 -10.4616 7
      vertex -5.5 -9.52628 7
      vertex -3.39919 -10.4616 0
    endloop
  endfacet
  facet normal -0.207912 -0.978148 0
    outer loop
      vertex -3.39919 -10.4616 7
      vertex -3.39919 -10.4616 0
      vertex -1.14981 -10.9397 0
    endloop
  endfacet
  facet normal -0.207912 -0.978148 0
    outer loop
      vertex -1.14981 -10.9397 7
      vertex -3.39919 -10.4616 7
      vertex -1.14981 -10.9397 0
    endloop
  endfacet
  facet normal 0 -1 0
    outer loop
      vertex -1.14981 -10.9397 7
      vertex -1.14981 -10.9397 0
      vertex 1.14981 -10.9397 0
    endloop
  endfacet
  facet normal 0 -1 0
    outer loop
      vertex 1.14981 -10.9397 7
      vertex -1.14981 -10.9397 7
      vertex 1.14981 -10.9397 0
    endloop
  endfacet
  facet normal 0.207912 -0.978148 0
    outer loop
      vertex 1.14981 -10.9397 7
      vertex 1.14981 -10.9397 0
      vertex 3.39919 -10.4616 0
    endloop
  endfacet
  facet normal 0.207912 -0.978148 0
    outer loop
      vertex 3.39919 -10.4616 7
      vertex 1.14981 -10.9397 7
      vertex 3.39919 -10.4616 0
    endloop
  endfacet
  facet normal 0.406737 -0.913545 0
    outer loop
      vertex 3.39919 -10.4616 7
      vertex 3.39919 -10.4616 0
      vertex 5.5 -9.52628 0
    endloop
  endfacet
  facet normal 0.406737 -0.913545 0
    outer loop
      vertex 5.5 -9.52628 7
      vertex 3.39919 -10.4616 7
      vertex 5.5 -9.52628 0
    endloop
  endfacet
  facet normal 0.587785 -0.809017 0
    outer loop
      vertex 5.5 -9.52628 7
      vertex 5.5 -9.52628 0
      vertex 7.36044 -8.17459 0
    endloop
  endfacet
  facet normal 0.587785 -0.809017 0
    outer loop
      vertex 7.36044 -8.17459 7
      vertex 5.5 -9.52628 7
      vertex 7.36044 -8.17459 0
    endloop
  endfacet
  facet normal 0.743145 -0.669131 0
    outer loop
      vertex 7.36044 -8.17459 7
      vertex 7.36044 -8.17459 0
      vertex 8.89919 -6.46564 0
    endloop
  endfacet
  facet normal 0.743145 -0.669131 0
    outer loop
      vertex 8.89919 -6.46564 7
      vertex 7.36044 -8.17459 7
      vertex 8.89919 -6.46564 0
    endloop
  endfacet
  facet normal 0.866025 -0.5 0
    outer loop
      vertex 8.89919 -6.46564 7
      vertex 8.89919 -6.46564 0
      vertex 10.049 -4.4741 0
    endloop
  endfacet
  facet normal 0.866025 -0.5 0
    outer loop
      vertex 10.049 -4.4741 7
      vertex 8.89919 -6.46564 7
      vertex 10.049 -4.4741 0
    endloop
  endfacet
  facet normal 0.951056 -0.309017 0
    outer loop
      vertex 10.049 -4.4741 7
      vertex 10.049 -4.4741 0
      vertex 10.7596 -2.28703 0
    endloop
  endfacet
  facet normal 0.951056 -0.309017 0
    outer loop
      vertex 10.7596 -2.28703 7
      vertex 10.049 -4.4741 7
      vertex 10.7596 -2.28703 0
    endloop
  endfacet
  facet normal 0.994522 -0.104528 0
    outer loop
      vertex 10.7596 -2.28703 7
      vertex 10.7596 -2.28703 0
      vertex 11 0 0
    endloop
  endfacet
  facet normal 0.994522 -0.104528 0
    outer loop
      vertex 11 0 7
      vertex 10.7596 -2.28703 7
      vertex 11 0 0
    endloop
  endfacet
  facet normal 0.994522 0.104528 0
    outer loop
      vertex 11 0 0
      vertex 10.7596 2.28703 0
      vertex 10.7596 2.28703 7
    endloop
  endfacet
  facet normal 0.994522 0.104528 0
    outer loop
      vertex 11 0 7
      vertex 11 0 0
      vertex 10.7596 2.28703 7
    endloop
  endfacet
  facet normal 0.951056 0.309017 0
    outer loop
      vertex 10.7596 2.28703 0
      vertex 10.049 4.4741 0
      vertex 10.049 4.4741 7
    endloop
  endfacet
  facet normal 0.951056 0.309017 0
    outer loop
      vertex 10.7596 2.28703 7
      vertex 10.7596 2.28703 0
      vertex 10.049 4.4741 7
    endloop
  endfacet
  facet normal 0.866025 0.5 0
    outer loop
      vertex 10.049 4.4741 0
      vertex 8.89919 6.46564 0
      vertex 8.89919 6.46564 7
    endloop
  endfacet
  facet normal 0.866025 0.5 0
    outer loop
      vertex 10.049 4.4741 7
      vertex 10.049 4.4741 0
      vertex 8.89919 6.46564 7
    endloop
  endfacet
  facet normal 0.743145 0.669131 0
    outer loop
      vertex 8.89919 6.46564 0
      vertex 7.36044 8.17459 0
      vertex 7.36044 8.17459 7
    endloop
  endfacet
  facet normal 0.743145 0.669131 0
    outer loop
      vertex 8.89919 6.46564 7
      vertex 8.89919 6.46564 0
      vertex 7.36044 8.17459 7
    endloop
  endfacet
  facet normal 0.587785 0.809017 0
    outer loop
      vertex 5.5 9.52628 0
      vertex 5.5 9.52628 7
      vertex 7.36044 8.17459 0
    endloop
  endfacet
  facet normal 0.587785 0.809017 0
    outer loop
      vertex 7.36044 8.17459 0
      vertex 5.5 9.52628 7
      vertex 7.36044 8.17459 7
    endloop
  endfacet
  facet normal 0.406737 0.913545 0
    outer loop
      vertex 3.39919 10.4616 0
      vertex 3.39919 10.4616 7
      vertex 5.5 9.52628 0
    endloop
  endfacet
  facet normal 0.406737 0.913545 0
    outer loop
      vertex 5.5 9.52628 0
      vertex 3.39919 10.4616 7
      vertex 5.5 9.52628 7
    endloop
  endfacet
  facet normal 0.207912 0.978148 0
    outer loop
      vertex 1.14981 10.9397 0
      vertex 1.14981 10.9397 7
      vertex 3.39919 10.4616 0
    endloop
  endfacet
  facet normal 0.207912 0.978148 0
    outer loop
      vertex 3.39919 10.4616 0
      vertex 1.14981 10.9397 7
      vertex 3.39919 10.4616 7
    endloop
  endfacet
  facet normal 0 1 0
    outer loop
      vertex -1.14981 10.9397 0
      vertex -1.14981 10.9397 7
      vertex 1.14981 10.9397 0
    endloop
  endfacet
  facet normal 0 1 0
    outer loop
      vertex 1.14981 10.9397 0
      vertex -1.14981 10.9397 7
      vertex 1.14981 10.9397 7
    endloop
  endfacet
  facet normal -0.207912 0.978148 0
    outer loop
      vertex -3.39919 10.4616 0
      vertex -3.39919 10.4616 7
      vertex -1.14981 10.9397 0
    endloop
  endfacet
  facet normal -0.207912 0.978148 0
    outer loop
      vertex -1.14981 10.9397 0
      vertex -3.39919 10.4616 7
      vertex -1.14981 10.9397 7
    endloop
  endfacet
  facet normal -0.406737 0.913545 0
    outer loop
      vertex -5.5 9.52628 0
      vertex -5.5 9.52628 7
      vertex -3.39919 10.4616 0
    endloop
  endfacet
  facet normal -0.406737 0.913545 0
    outer loop
      vertex -3.39919 10.4616 0
      vertex -5.5 9.52628 7
      vertex -3.39919 10.4616 7
    endloop
  endfacet
  facet normal -0.587785 0.809017 0
    outer loop
      vertex -7.36044 8.17459 0
      vertex -7.36044 8.17459 7
      vertex -5.5 9.52628 0
    endloop
  endfacet
  facet normal -0.587785 0.809017 0
    outer loop
      vertex -5.5 9.52628 0
      vertex -7.36044 8.17459 7
      vertex -5.5 9.52628 7
    endloop
  endfacet
  facet normal -0.743145 0.669131 0
    outer loop
      vertex -8.89919 6.46564 0
      vertex -8.89919 6.46564 7
      vertex -7.36044 8.17459 0
    endloop
  endfacet
  facet normal -0.743145 0.669131 0
    outer loop
      vertex -7.36044 8.17459 0
      vertex -8.89919 6.46564 7
      vertex -7.36044 8.17459 7
    endloop
  endfacet
  facet normal -0.866025 0.5 0
    outer loop
      vertex -10.049 4.4741 0
      vertex -10.049 4.4741 7
      vertex -8.89919 6.46564 0
    endloop
  endfacet
  facet normal -0.866025 0.5 0
    outer loop
      vertex -8.89919 6.46564 0
      vertex -10.049 4.4741 7
      vertex -8.89919 6.46564 7
    endloop
  endfacet
  facet normal -0.951056 0.309017 0
    outer loop
      vertex -10.7596 2.28703 0
      vertex -10.7596 2.28703 7
      vertex -10.049 4.4741 0
    endloop
  endfacet
  facet normal -0.951056 0.309017 0
    outer loop
      vertex -10.049 4.4741 0
      vertex -10.7596 2.28703 7
      vertex -10.049 4.4741 7
    endloop
  endfacet
  facet normal 0.980785 -0.19509 0
    outer loop
      vertex -3.76792 1.56072 0
      vertex -3.76792 1.56072 7
      vertex -4.07836 0 7
    endloop
  endfacet
  facet normal 0.980785 -0.19509 0
    outer loop
      vertex -4.07836 0 0
      vertex -3.76792 1.56072 0
      vertex -4.07836 0 7
    endloop
  endfacet
  facet normal 0.980785 0.19509 0
    outer loop
      vertex -4.07836 0 7
      vertex -3.76792 -1.56072 7
      vertex -3.76792 -1.56072 0
    endloop
  endfacet
  facet normal 0.980785 0.19509 0
    outer loop
      vertex -4.07836 0 0
      vertex -4.07836 0 7
      vertex -3.76792 -1.56072 0
    endloop
  endfacet
  facet normal 0.831469 -0.555571 0
    outer loop
      vertex -2.88384 2.88384 0
      vertex -2.88384 2.88384 7
      vertex -3.76792 1.56072 7
    endloop
  endfacet
  facet normal 0.831469 -0.555571 0
    outer loop
      vertex -3.76792 1.56072 0
      vertex -2.88384 2.88384 0
      vertex -3.76792 1.56072 7
    endloop
  endfacet
  facet normal 0.555571 -0.831469 0
    outer loop
      vertex -1.56072 3.76792 0
      vertex -1.56072 3.76792 7
      vertex -2.88384 2.88384 7
    endloop
  endfacet
  facet normal 0.555571 -0.831469 0
    outer loop
      vertex -2.88384 2.88384 0
      vertex -1.56072 3.76792 0
      vertex -2.88384 2.88384 7
    endloop
  endfacet
  facet normal 0.19509 -0.980785 0
    outer loop
      vertex 0 4.07836 0
      vertex 0 4.07836 7
      vertex -1.56072 3.76792 7
    endloop
  endfacet
  facet normal 0.19509 -0.980785 0
    outer loop
      vertex -1.56072 3.76792 0
      vertex 0 4.07836 0
      vertex -1.56072 3.76792 7
    endloop
  endfacet
  facet normal -0.19509 -0.980785 0
    outer loop
      vertex 1.56072 3.76792 0
      vertex 1.56072 3.76792 7
      vertex 0 4.07836 7
    endloop
  endfacet
  facet normal -0.19509 -0.980785 0
    outer loop
      vertex 0 4.07836 0
      vertex 1.56072 3.76792 0
      vertex 0 4.07836 7
    endloop
  endfacet
  facet normal -0.555571 -0.831469 0
    outer loop
      vertex 2.88384 2.88384 0
      vertex 2.88384 2.88384 7
      vertex 1.56072 3.76792 7
    endloop
  endfacet
  facet normal -0.555571 -0.831469 0
    outer loop
      vertex 1.56072 3.76792 0
      vertex 2.88384 2.88384 0
      vertex 1.56072 3.76792 7
    endloop
  endfacet
  facet normal -0.831469 -0.555571 0
    outer loop
      vertex 3.76792 1.56072 7
      vertex 2.88384 2.88384 7
      vertex 3.76792 1.56072 0
    endloop
  endfacet
  facet normal -0.831469 -0.555571 0
    outer loop
      vertex 3.76792 1.56072 0
      vertex 2.88384 2.88384 7
      vertex 2.88384 2.88384 0
    endloop
  endfacet
  facet normal -0.980785 -0.19509 0
    outer loop
      vertex 4.07836 0 7
      vertex 3.76792 1.56072 7
      vertex 4.07836 0 0
    endloop
  endfacet
  facet normal -0.980785 -0.19509 0
    outer loop
      vertex 4.07836 0 0
      vertex 3.76792 1.56072 7
      vertex 3.76792 1.56072 0
    endloop
  endfacet
  facet normal -0.980785 0.19509 0
    outer loop
      vertex 4.07836 0 7
      vertex 4.07836 0 0
      vertex 3.76792 -1.56072 7
    endloop
  endfacet
  facet normal -0.980785 0.19509 0
    outer loop
      vertex 3.76792 -1.56072 7
      vertex 4.07836 0 0
      vertex 3.76792 -1.56072 0
    endloop
  endfacet
  facet normal -0.831469 0.555571 0
    outer loop
      vertex 3.76792 -1.56072 7
      vertex 3.76792 -1.56072 0
      vertex 2.88384 -2.88384 7
    endloop
  endfacet
  facet normal -0.831469 0.555571 0
    outer loop
      vertex 2.88384 -2.88384 7
      vertex 3.76792 -1.56072 0
      vertex 2.88384 -2.88384 0
    endloop
  endfacet
  facet normal -0.555571 0.831469 0
    outer loop
      vertex 2.88384 -2.88384 7
      vertex 2.88384 -2.88384 0
      vertex 1.56072 -3.76792 7
    endloop
  endfacet
  facet normal -0.555571 0.831469 0
    outer loop
      vertex 1.56072 -3.76792 7
      vertex 2.88384 -2.88384 0
      vertex 1.56072 -3.76792 0
    endloop
  endfacet
  facet normal -0.19509 0.980785 0
    outer loop
      vertex 1.56072 -3.76792 7
      vertex 1.56072 -3.76792 0
      vertex 0 -4.07836 7
    endloop
  endfacet
  facet normal -0.19509 0.980785 0
    outer loop
      vertex 0 -4.07836 7
      vertex 1.56072 -3.76792 0
      vertex 0 -4.07836 0
    endloop
  endfacet
  facet normal 0.19509 0.980785 0
    outer loop
      vertex 0 -4.07836 7
      vertex 0 -4.07836 0
      vertex -1.56072 -3.76792 7
    endloop
  endfacet
  facet normal 0.19509 0.980785 0
    outer loop
      vertex -1.56072 -3.76792 7
      vertex 0 -4.07836 0
      vertex -1.56072 -3.76792 0
    endloop
  endfacet
  facet normal 0.555571 0.831469 0
    outer loop
      vertex -1.56072 -3.76792 7
      vertex -1.56072 -3.76792 0
      vertex -2.88384 -2.88384 7
    endloop
  endfacet
  facet normal 0.555571 0.831469 0
    outer loop
      vertex -2.88384 -2.88384 7
      vertex -1.56072 -3.76792 0
      vertex -2.88384 -2.88384 0
    endloop
  endfacet
  facet normal 0.831469 0.555571 0
    outer loop
      vertex -3.76792 -1.56072 7
      vertex -2.88384 -2.88384 7
      vertex -2.88384 -2.88384 0
    endloop
  endfacet
  facet normal 0.831469 0.555571 0
    outer loop
      vertex -3.76792 -1.56072 0
      vertex -3.76792 -1.56072 7
      vertex -2.88384 -2.88384 0
    endloop
  endfacet
  facet normal 0 0 1
    outer loop
      vertex -10.7596 2.28703 7
      vertex -11 0 7
      vertex -10.7596 -2.28703 7
    endloop
  endfacet
  facet normal 0 0 1
    outer loop
      vertex -8.89919 -6.46564 7
      vertex -10.7596 2.28703 7
      vertex -10.049 -4.4741 7
    endloop
  endfacet
  facet normal 0 0 1
    outer loop
      vertex -10.049 -4.4741 7
      vertex -10.7596 2.28703 7
      vertex -10.7596 -2.28703 7
    endloop
  endfacet
  facet normal 0 0 1
    outer loop
      vertex -7.36044 -8.17459 7
      vertex -10.7596 2.28703 7
      vertex -8.89919 -6.46564 7
    endloop
  endfacet
  facet normal 0 0 1
    outer loop
      vertex -5.5 -9.52628 7
      vertex -10.7596 2.28703 7
      vertex -7.36044 -8.17459 7
    endloop
  endfacet
  facet normal 0 0 1
    outer loop
      vertex -3.39919 -10.4616 7
      vertex -10.7596 2.28703 7
      vertex -5.5 -9.52628 7
    endloop
  endfacet
  facet normal 0 0 1
    outer loop
      vertex -1.14981 -10.9397 7
      vertex -10.7596 2.28703 7
      vertex -3.39919 -10.4616 7
    endloop
  endfacet
  facet normal 0 0 1
    outer loop
      vertex 1.14981 -10.9397 7
      vertex -10.7596 2.28703 7
      vertex -1.14981 -10.9397 7
    endloop
  endfacet
  facet normal 0 0 1
    outer loop
      vertex 3.39919 -10.4616 7
      vertex -10.7596 2.28703 7
      vertex 1.14981 -10.9397 7
    endloop
  endfacet
  facet normal 0 0 1
    outer loop
      vertex 5.5 -9.52628 7
      vertex -10.7596 2.28703 7
      vertex 3.39919 -10.4616 7
    endloop
  endfacet
  facet normal 0 0 1
    outer loop
      vertex -1.56072 -3.76792 7
      vertex -10.7596 2.28703 7
      vertex 5.5 -9.52628 7
    endloop
  endfacet
  facet normal 0 0 1
    outer loop
      vertex 1.56072 -3.76792 7
      vertex 0 -4.07836 7
      vertex 7.36044 -8.17459 7
    endloop
  endfacet
  facet normal 0 0 1
    outer loop
      vertex -2.88384 2.88384 7
      vertex -1.56072 3.76792 7
      vertex -10.7596 2.28703 7
    endloop
  endfacet
  facet normal 0 0 1
    outer loop
      vertex 3.76792 1.56072 7
      vertex 4.07836 0 7
      vertex 11 0 7
    endloop
  endfacet
  facet normal 0 0 1
    outer loop
      vertex 0 4.07836 7
      vertex 1.56072 3.76792 7
      vertex 10.049 4.4741 7
    endloop
  endfacet
  facet normal 0 0 1
    outer loop
      vertex 7.36044 8.17459 7
      vertex -10.7596 2.28703 7
      vertex 8.89919 6.46564 7
    endloop
  endfacet
  facet normal 0 0 1
    outer loop
      vertex 5.5 9.52628 7
      vertex -10.7596 2.28703 7
      vertex 7.36044 8.17459 7
    endloop
  endfacet
  facet normal 0 0 1
    outer loop
      vertex 3.39919 10.4616 7
      vertex -10.7596 2.28703 7
      vertex 5.5 9.52628 7
    endloop
  endfacet
  facet normal 0 0 1
    outer loop
      vertex 1.14981 10.9397 7
      vertex -10.7596 2.28703 7
      vertex 3.39919 10.4616 7
    endloop
  endfacet
  facet normal 0 0 1
    outer loop
      vertex -1.14981 10.9397 7
      vertex -10.7596 2.28703 7
      vertex 1.14981 10.9397 7
    endloop
  endfacet
  facet normal 0 0 1
    outer loop
      vertex -3.39919 10.4616 7
      vertex -10.7596 2.28703 7
      vertex -1.14981 10.9397 7
    endloop
  endfacet
  facet normal 0 0 1
    outer loop
      vertex -5.5 9.52628 7
      vertex -10.7596 2.28703 7
      vertex -3.39919 10.4616 7
    endloop
  endfacet
  facet normal 0 0 1
    outer loop
      vertex -7.36044 8.17459 7
      vertex -10.7596 2.28703 7
      vertex -5.5 9.52628 7
    endloop
  endfacet
  facet normal 0 0 1
    outer loop
      vertex -8.89919 6.46564 7
      vertex -10.7596 2.28703 7
      vertex -7.36044 8.17459 7
    endloop
  endfacet
  facet normal 0 0 1
    outer loop
      vertex -10.049 4.4741 7
      vertex -10.7596 2.28703 7
      vertex -8.89919 6.46564 7
    endloop
  endfacet
  facet normal 0 0 1
    outer loop
      vertex 4.07836 0 7
      vertex 3.76792 -1.56072 7
      vertex 10.7596 -2.28703 7
    endloop
  endfacet
  facet normal 0 0 1
    outer loop
      vertex 3.76792 -1.56072 7
      vertex 2.88384 -2.88384 7
      vertex 10.049 -4.4741 7
    endloop
  endfacet
  facet normal 0 0 1
    outer loop
      vertex 2.88384 2.88384 7
      vertex 3.76792 1.56072 7
      vertex 10.7596 2.28703 7
    endloop
  endfacet
  facet normal 0 0 1
    outer loop
      vertex 1.56072 3.76792 7
      vertex 2.88384 2.88384 7
      vertex 10.049 4.4741 7
    endloop
  endfacet
  facet normal 0 0 1
    outer loop
      vertex 8.89919 6.46564 7
      vertex -10.7596 2.28703 7
      vertex -1.56072 3.76792 7
    endloop
  endfacet
  facet normal 0 0 1
    outer loop
      vertex 8.89919 6.46564 7
      vertex 0 4.07836 7
      vertex 10.049 4.4741 7
    endloop
  endfacet
  facet normal 0 0 1
    outer loop
      vertex 8.89919 6.46564 7
      vertex -1.56072 3.76792 7
      vertex 0 4.07836 7
    endloop
  endfacet
  facet normal 0 0 1
    outer loop
      vertex 10.049 4.4741 7
      vertex 2.88384 2.88384 7
      vertex 10.7596 2.28703 7
    endloop
  endfacet
  facet normal 0 0 1
    outer loop
      vertex 10.7596 2.28703 7
      vertex 3.76792 1.56072 7
      vertex 11 0 7
    endloop
  endfacet
  facet normal 0 0 1
    outer loop
      vertex 11 0 7
      vertex 4.07836 0 7
      vertex 10.7596 -2.28703 7
    endloop
  endfacet
  facet normal 0 0 1
    outer loop
      vertex -3.76792 1.56072 7
      vertex -2.88384 2.88384 7
      vertex -10.7596 2.28703 7
    endloop
  endfacet
  facet normal 0 0 1
    outer loop
      vertex 10.7596 -2.28703 7
      vertex 3.76792 -1.56072 7
      vertex 10.049 -4.4741 7
    endloop
  endfacet
  facet normal 0 0 1
    outer loop
      vertex 10.049 -4.4741 7
      vertex 2.88384 -2.88384 7
      vertex 8.89919 -6.46564 7
    endloop
  endfacet
  facet normal 0 0 1
    outer loop
      vertex 8.89919 -6.46564 7
      vertex 1.56072 -3.76792 7
      vertex 7.36044 -8.17459 7
    endloop
  endfacet
  facet normal 0 0 1
    outer loop
      vertex 7.36044 -8.17459 7
      vertex 0 -4.07836 7
      vertex 5.5 -9.52628 7
    endloop
  endfacet
  facet normal 0 0 1
    outer loop
      vertex -3.76792 -1.56072 7
      vertex -4.07836 0 7
      vertex -10.7596 2.28703 7
    endloop
  endfacet
  facet normal 0 0 1
    outer loop
      vertex 0 -4.07836 7
      vertex -1.56072 -3.76792 7
      vertex 5.5 -9.52628 7
    endloop
  endfacet
  facet normal 0 0 1
    outer loop
      vertex -2.88384 -2.88384 7
      vertex -10.7596 2.28703 7
      vertex -1.56072 -3.76792 7
    endloop
  endfacet
  facet normal 0 0 1
    outer loop
      vertex -2.88384 -2.88384 7
      vertex -3.76792 -1.56072 7
      vertex -10.7596 2.28703 7
    endloop
  endfacet
  facet normal 0 0 1
    outer loop
      vertex 2.88384 -2.88384 7
      vertex 1.56072 -3.76792 7
      vertex 8.89919 -6.46564 7
    endloop
  endfacet
  facet normal 0 0 1
    outer loop
      vertex -4.07836 0 7
      vertex -3.76792 1.56072 7
      vertex -10.7596 2.28703 7
    endloop
  endfacet
endsolid OpenSCAD_Model
