solid OpenSCAD_Model
  facet normal -1 0 0
    outer loop
      vertex -25.99 3 -6.66134e-016
      vertex -25.99 3 19
      vertex -25.99 15 -3.33067e-015
    endloop
  endfacet
  facet normal -1 0 0
    outer loop
      vertex -25.99 15 -3.33067e-015
      vertex -25.99 3 19
      vertex -25.99 15 19
    endloop
  endfacet
  facet normal 0 -1 2.22045e-016
    outer loop
      vertex -13.99 3 7
      vertex -25.99 3 -6.66134e-016
      vertex 0 3 -6.66134e-016
    endloop
  endfacet
  facet normal 0 -1 2.22045e-016
    outer loop
      vertex -18.3456 3 13.7321
      vertex -13.99 3 19
      vertex -18.7856 3 14.3377
    endloop
  endfacet
  facet normal 0 -1 2.22045e-016
    outer loop
      vertex -20.1782 3 11.2099
      vertex -25.99 3 -6.66134e-016
      vertex -13.99 3 7
    endloop
  endfacet
  facet normal 0 -1 2.22045e-016
    outer loop
      vertex -25.99 3 19
      vertex -25.99 3 -6.66134e-016
      vertex -21.7507 3 12.6258
    endloop
  endfacet
  facet normal 0 -1 2.22045e-016
    outer loop
      vertex -19.4338 3 11.2881
      vertex -20.1782 3 11.2099
      vertex -13.99 3 7
    endloop
  endfacet
  facet normal 0 -1 2.22045e-016
    outer loop
      vertex -25.99 3 19
      vertex -21.7507 3 12.6258
      vertex -21.7507 3 13.3742
    endloop
  endfacet
  facet normal 0 -1 2.22045e-016
    outer loop
      vertex -25.99 3 19
      vertex -21.7507 3 13.3742
      vertex -21.4462 3 14.058
    endloop
  endfacet
  facet normal 0 -1 2.22045e-016
    outer loop
      vertex -18.7856 3 14.3377
      vertex -25.99 3 19
      vertex -19.4338 3 14.7119
    endloop
  endfacet
  facet normal 0 -1 2.22045e-016
    outer loop
      vertex -13.99 3 7
      vertex -13.99 3 19
      vertex -18.3456 3 13.7321
    endloop
  endfacet
  facet normal 0 -1 2.22045e-016
    outer loop
      vertex -19.4338 3 14.7119
      vertex -25.99 3 19
      vertex -20.1782 3 14.7901
    endloop
  endfacet
  facet normal 0 -1 2.22045e-016
    outer loop
      vertex -21.4462 3 14.058
      vertex -20.89 3 14.5588
      vertex -25.99 3 19
    endloop
  endfacet
  facet normal 0 -1 2.22045e-016
    outer loop
      vertex -18.7856 3 14.3377
      vertex -13.99 3 19
      vertex -25.99 3 19
    endloop
  endfacet
  facet normal 0 -1 2.22045e-016
    outer loop
      vertex -18.3456 3 12.2679
      vertex -18.7856 3 11.6623
      vertex -13.99 3 7
    endloop
  endfacet
  facet normal 0 -1 2.22045e-016
    outer loop
      vertex -20.89 3 14.5588
      vertex -20.1782 3 14.7901
      vertex -25.99 3 19
    endloop
  endfacet
  facet normal 0 -1 2.22045e-016
    outer loop
      vertex -18.7856 3 11.6623
      vertex -19.4338 3 11.2881
      vertex -13.99 3 7
    endloop
  endfacet
  facet normal 0 -1 2.22045e-016
    outer loop
      vertex -20.89 3 11.4412
      vertex -25.99 3 -6.66134e-016
      vertex -20.1782 3 11.2099
    endloop
  endfacet
  facet normal 0 -1 2.22045e-016
    outer loop
      vertex -21.4462 3 11.942
      vertex -25.99 3 -6.66134e-016
      vertex -20.89 3 11.4412
    endloop
  endfacet
  facet normal 0 -1 2.22045e-016
    outer loop
      vertex -21.7507 3 12.6258
      vertex -25.99 3 -6.66134e-016
      vertex -21.4462 3 11.942
    endloop
  endfacet
  facet normal 0 -1 2.22045e-016
    outer loop
      vertex -13.99 3 7
      vertex -18.19 3 13
      vertex -18.3456 3 12.2679
    endloop
  endfacet
  facet normal 0 -1 2.22045e-016
    outer loop
      vertex -13.99 3 7
      vertex -18.3456 3 13.7321
      vertex -18.19 3 13
    endloop
  endfacet
  facet normal 0 -1 2.22045e-016
    outer loop
      vertex 0 3 7
      vertex -13.99 3 7
      vertex 0 3 -6.66134e-016
    endloop
  endfacet
  facet normal 0 -2.22045e-016 -1
    outer loop
      vertex -25.99 3 -6.66134e-016
      vertex -25.99 15 -3.33067e-015
      vertex 0 3 -6.66134e-016
    endloop
  endfacet
  facet normal 0 -2.22045e-016 -1
    outer loop
      vertex 0 3 -6.66134e-016
      vertex -25.99 15 -3.33067e-015
      vertex 15 15 -3.33067e-015
    endloop
  endfacet
  facet normal 0 -2.22045e-016 -1
    outer loop
      vertex 0 3 -6.66134e-016
      vertex 15 15 -3.33067e-015
      vertex 15 -11.5 2.55351e-015
    endloop
  endfacet
  facet normal 0 -2.22045e-016 -1
    outer loop
      vertex 0 3 -6.66134e-016
      vertex 15 -11.5 2.55351e-015
      vertex 0 -11.5 2.55351e-015
    endloop
  endfacet
  facet normal 0 1 -2.22045e-016
    outer loop
      vertex -18.365 15 15.8146
      vertex -25.99 15 19
      vertex -13.99 15 19
    endloop
  endfacet
  facet normal 0 1 -2.22045e-016
    outer loop
      vertex -25.99 15 -3.33067e-015
      vertex -13.99 15 7
      vertex 15 15 -3.33067e-015
    endloop
  endfacet
  facet normal 0 1 -2.22045e-016
    outer loop
      vertex -23.24 15 13
      vertex -25.99 15 19
      vertex -21.615 15 15.8146
    endloop
  endfacet
  facet normal 0 1 -2.22045e-016
    outer loop
      vertex 7.68815 15 16.2901
      vertex 0 15 22
      vertex 15 15 22
    endloop
  endfacet
  facet normal 0 1 -2.22045e-016
    outer loop
      vertex -25.99 15 -3.33067e-015
      vertex -25.99 15 19
      vertex -23.24 15 13
    endloop
  endfacet
  facet normal 0 1 -2.22045e-016
    outer loop
      vertex -25.99 15 -3.33067e-015
      vertex -23.24 15 13
      vertex -21.615 15 10.1854
    endloop
  endfacet
  facet normal 0 1 -2.22045e-016
    outer loop
      vertex -25.99 15 -3.33067e-015
      vertex -21.615 15 10.1854
      vertex -13.99 15 7
    endloop
  endfacet
  facet normal 0 1 -2.22045e-016
    outer loop
      vertex -18.365 15 10.1854
      vertex -13.99 15 7
      vertex -21.615 15 10.1854
    endloop
  endfacet
  facet normal 0 1 -2.22045e-016
    outer loop
      vertex -16.74 15 13
      vertex -13.99 15 7
      vertex -18.365 15 10.1854
    endloop
  endfacet
  facet normal 0 1 -2.22045e-016
    outer loop
      vertex 6.94377 15 12.7881
      vertex 15 15 -3.33067e-015
      vertex 6.29557 15 13.1623
    endloop
  endfacet
  facet normal 0 1 -2.22045e-016
    outer loop
      vertex 0 15 22
      vertex 15 15 -3.33067e-015
      vertex 0 15 7
    endloop
  endfacet
  facet normal 0 1 -2.22045e-016
    outer loop
      vertex -21.615 15 15.8146
      vertex -25.99 15 19
      vertex -18.365 15 15.8146
    endloop
  endfacet
  facet normal 0 1 -2.22045e-016
    outer loop
      vertex 5.85562 15 13.7679
      vertex 0 15 22
      vertex 5.7 15 14.5
    endloop
  endfacet
  facet normal 0 1 -2.22045e-016
    outer loop
      vertex 15 15 -3.33067e-015
      vertex 0 15 22
      vertex 5.85562 15 13.7679
    endloop
  endfacet
  facet normal 0 1 -2.22045e-016
    outer loop
      vertex 15 15 -3.33067e-015
      vertex 5.85562 15 13.7679
      vertex 6.29557 15 13.1623
    endloop
  endfacet
  facet normal 0 1 -2.22045e-016
    outer loop
      vertex 9.26067 15 14.1258
      vertex 15 15 22
      vertex 8.95623 15 13.442
    endloop
  endfacet
  facet normal 0 1 -2.22045e-016
    outer loop
      vertex 15 15 -3.33067e-015
      vertex 6.94377 15 12.7881
      vertex 7.68815 15 12.7099
    endloop
  endfacet
  facet normal 0 1 -2.22045e-016
    outer loop
      vertex 15 15 -3.33067e-015
      vertex 7.68815 15 12.7099
      vertex 8.4 15 12.9412
    endloop
  endfacet
  facet normal 0 1 -2.22045e-016
    outer loop
      vertex 15 15 -3.33067e-015
      vertex 8.4 15 12.9412
      vertex 8.95623 15 13.442
    endloop
  endfacet
  facet normal 0 1 -2.22045e-016
    outer loop
      vertex 15 15 -3.33067e-015
      vertex 8.95623 15 13.442
      vertex 15 15 22
    endloop
  endfacet
  facet normal 0 1 -2.22045e-016
    outer loop
      vertex 9.26067 15 14.8742
      vertex 15 15 22
      vertex 9.26067 15 14.1258
    endloop
  endfacet
  facet normal 0 1 -2.22045e-016
    outer loop
      vertex 8.95623 15 15.558
      vertex 15 15 22
      vertex 9.26067 15 14.8742
    endloop
  endfacet
  facet normal 0 1 -2.22045e-016
    outer loop
      vertex 7.68815 15 16.2901
      vertex 15 15 22
      vertex 8.4 15 16.0588
    endloop
  endfacet
  facet normal 0 1 -2.22045e-016
    outer loop
      vertex 8.95623 15 15.558
      vertex 8.4 15 16.0588
      vertex 15 15 22
    endloop
  endfacet
  facet normal 0 1 -2.22045e-016
    outer loop
      vertex 6.94377 15 16.2119
      vertex 0 15 22
      vertex 7.68815 15 16.2901
    endloop
  endfacet
  facet normal 0 1 -2.22045e-016
    outer loop
      vertex 6.29557 15 15.8377
      vertex 0 15 22
      vertex 6.94377 15 16.2119
    endloop
  endfacet
  facet normal 0 1 -2.22045e-016
    outer loop
      vertex 5.85562 15 15.2321
      vertex 0 15 22
      vertex 6.29557 15 15.8377
    endloop
  endfacet
  facet normal 0 1 -2.22045e-016
    outer loop
      vertex 5.7 15 14.5
      vertex 0 15 22
      vertex 5.85562 15 15.2321
    endloop
  endfacet
  facet normal 0 1 -2.22045e-016
    outer loop
      vertex -16.74 15 13
      vertex -18.365 15 15.8146
      vertex -13.99 15 19
    endloop
  endfacet
  facet normal 0 1 -2.22045e-016
    outer loop
      vertex -13.99 15 7
      vertex -16.74 15 13
      vertex -13.99 15 19
    endloop
  endfacet
  facet normal 0 1 -2.22045e-016
    outer loop
      vertex 0 15 7
      vertex 15 15 -3.33067e-015
      vertex -13.99 15 7
    endloop
  endfacet
  facet normal 0 2.22045e-016 1
    outer loop
      vertex -25.99 15 19
      vertex -25.99 3 19
      vertex -13.99 3 19
    endloop
  endfacet
  facet normal 0 2.22045e-016 1
    outer loop
      vertex -13.99 15 19
      vertex -25.99 15 19
      vertex -13.99 3 19
    endloop
  endfacet
  facet normal 1 0 0
    outer loop
      vertex -13.99 3 19
      vertex -13.99 3 7
      vertex -13.99 15 7
    endloop
  endfacet
  facet normal 1 0 0
    outer loop
      vertex -13.99 15 19
      vertex -13.99 3 19
      vertex -13.99 15 7
    endloop
  endfacet
  facet normal 0 2.22045e-016 1
    outer loop
      vertex 0 3 7
      vertex 0.01 3 7
      vertex 0.01 8 7
    endloop
  endfacet
  facet normal 0 2.22045e-016 1
    outer loop
      vertex -13.99 15 7
      vertex 0 3 7
      vertex 0 8 7
    endloop
  endfacet
  facet normal 0 2.22045e-016 1
    outer loop
      vertex 0 8 7
      vertex 0 3 7
      vertex 0.01 8 7
    endloop
  endfacet
  facet normal 0 2.22045e-016 1
    outer loop
      vertex -13.99 15 7
      vertex 0 8 7
      vertex 0 15 7
    endloop
  endfacet
  facet normal 0 2.22045e-016 1
    outer loop
      vertex -13.99 3 7
      vertex 0 3 7
      vertex -13.99 15 7
    endloop
  endfacet
  facet normal 0 2.22045e-016 1
    outer loop
      vertex 15 -8.2 7
      vertex 15 8 7
      vertex 0.01 8 7
    endloop
  endfacet
  facet normal 0 2.22045e-016 1
    outer loop
      vertex 0 3 7
      vertex 15 -8.2 7
      vertex 0.01 3 7
    endloop
  endfacet
  facet normal 0 2.22045e-016 1
    outer loop
      vertex 0.01 3 7
      vertex 15 -8.2 7
      vertex 0.01 8 7
    endloop
  endfacet
  facet normal 0 2.22045e-016 1
    outer loop
      vertex 0 -8.2 7
      vertex 15 -8.2 7
      vertex 0 3 7
    endloop
  endfacet
  facet normal -1 0 0
    outer loop
      vertex 0 3 7
      vertex 0 3 -6.66134e-016
      vertex 0 -8.2 7
    endloop
  endfacet
  facet normal -1 0 0
    outer loop
      vertex 0 -11.5 2.55351e-015
      vertex 0 -11.5 22
      vertex 0 -8.2 7
    endloop
  endfacet
  facet normal -1 0 0
    outer loop
      vertex 0 -11.5 2.55351e-015
      vertex 0 -8.2 7
      vertex 0 3 -6.66134e-016
    endloop
  endfacet
  facet normal -1 0 0
    outer loop
      vertex 0 -8.2 7
      vertex 0 -11.5 22
      vertex 0 -8.2 22
    endloop
  endfacet
  facet normal 0.913545 9.03137e-017 0.406737
    outer loop
      vertex -21.4462 3 11.942
      vertex -21.4462 12.46 11.942
      vertex -21.7507 12.46 12.6258
    endloop
  endfacet
  facet normal 0.913545 9.03137e-017 0.406737
    outer loop
      vertex -21.7507 3 12.6258
      vertex -21.4462 3 11.942
      vertex -21.7507 12.46 12.6258
    endloop
  endfacet
  facet normal 1 0 0
    outer loop
      vertex -21.7507 12.46 12.6258
      vertex -21.7507 12.46 13.3742
      vertex -21.7507 3 13.3742
    endloop
  endfacet
  facet normal 1 0 0
    outer loop
      vertex -21.7507 3 12.6258
      vertex -21.7507 12.46 12.6258
      vertex -21.7507 3 13.3742
    endloop
  endfacet
  facet normal 0.669131 1.65011e-016 0.743145
    outer loop
      vertex -20.89 3 11.4412
      vertex -20.89 12.46 11.4412
      vertex -21.4462 12.46 11.942
    endloop
  endfacet
  facet normal 0.669131 1.65011e-016 0.743145
    outer loop
      vertex -21.4462 3 11.942
      vertex -20.89 3 11.4412
      vertex -21.4462 12.46 11.942
    endloop
  endfacet
  facet normal 0.309016 2.11177e-016 0.951057
    outer loop
      vertex -20.1782 3 11.2099
      vertex -20.1782 12.46 11.2099
      vertex -20.89 12.46 11.4412
    endloop
  endfacet
  facet normal 0.309016 2.11177e-016 0.951057
    outer loop
      vertex -20.89 3 11.4412
      vertex -20.1782 3 11.2099
      vertex -20.89 12.46 11.4412
    endloop
  endfacet
  facet normal -0.104528 2.20828e-016 0.994522
    outer loop
      vertex -19.4338 3 11.2881
      vertex -19.4338 12.46 11.2881
      vertex -20.1782 12.46 11.2099
    endloop
  endfacet
  facet normal -0.104528 2.20828e-016 0.994522
    outer loop
      vertex -20.1782 3 11.2099
      vertex -19.4338 3 11.2881
      vertex -20.1782 12.46 11.2099
    endloop
  endfacet
  facet normal -0.5 1.92296e-016 0.866025
    outer loop
      vertex -18.7856 3 11.6623
      vertex -18.7856 12.46 11.6623
      vertex -19.4338 12.46 11.2881
    endloop
  endfacet
  facet normal -0.5 1.92296e-016 0.866025
    outer loop
      vertex -19.4338 3 11.2881
      vertex -18.7856 3 11.6623
      vertex -19.4338 12.46 11.2881
    endloop
  endfacet
  facet normal -0.809017 1.30515e-016 0.587785
    outer loop
      vertex -18.3456 12.46 12.2679
      vertex -18.7856 12.46 11.6623
      vertex -18.3456 3 12.2679
    endloop
  endfacet
  facet normal -0.809017 1.30515e-016 0.587785
    outer loop
      vertex -18.3456 3 12.2679
      vertex -18.7856 12.46 11.6623
      vertex -18.7856 3 11.6623
    endloop
  endfacet
  facet normal -0.978148 4.61656e-017 0.207911
    outer loop
      vertex -18.19 12.46 13
      vertex -18.3456 12.46 12.2679
      vertex -18.19 3 13
    endloop
  endfacet
  facet normal -0.978148 4.61656e-017 0.207911
    outer loop
      vertex -18.19 3 13
      vertex -18.3456 12.46 12.2679
      vertex -18.3456 3 12.2679
    endloop
  endfacet
  facet normal -0.978148 -4.61656e-017 -0.207911
    outer loop
      vertex -18.19 12.46 13
      vertex -18.19 3 13
      vertex -18.3456 12.46 13.7321
    endloop
  endfacet
  facet normal -0.978148 -4.61656e-017 -0.207911
    outer loop
      vertex -18.3456 12.46 13.7321
      vertex -18.19 3 13
      vertex -18.3456 3 13.7321
    endloop
  endfacet
  facet normal -0.809017 -1.30515e-016 -0.587785
    outer loop
      vertex -18.3456 12.46 13.7321
      vertex -18.3456 3 13.7321
      vertex -18.7856 12.46 14.3377
    endloop
  endfacet
  facet normal -0.809017 -1.30515e-016 -0.587785
    outer loop
      vertex -18.7856 12.46 14.3377
      vertex -18.3456 3 13.7321
      vertex -18.7856 3 14.3377
    endloop
  endfacet
  facet normal -0.5 -1.92296e-016 -0.866025
    outer loop
      vertex -18.7856 12.46 14.3377
      vertex -18.7856 3 14.3377
      vertex -19.4338 12.46 14.7119
    endloop
  endfacet
  facet normal -0.5 -1.92296e-016 -0.866025
    outer loop
      vertex -19.4338 12.46 14.7119
      vertex -18.7856 3 14.3377
      vertex -19.4338 3 14.7119
    endloop
  endfacet
  facet normal -0.104528 -2.20828e-016 -0.994522
    outer loop
      vertex -19.4338 12.46 14.7119
      vertex -19.4338 3 14.7119
      vertex -20.1782 12.46 14.7901
    endloop
  endfacet
  facet normal -0.104528 -2.20828e-016 -0.994522
    outer loop
      vertex -20.1782 12.46 14.7901
      vertex -19.4338 3 14.7119
      vertex -20.1782 3 14.7901
    endloop
  endfacet
  facet normal 0.309016 -2.11177e-016 -0.951057
    outer loop
      vertex -20.1782 12.46 14.7901
      vertex -20.1782 3 14.7901
      vertex -20.89 12.46 14.5588
    endloop
  endfacet
  facet normal 0.309016 -2.11177e-016 -0.951057
    outer loop
      vertex -20.89 12.46 14.5588
      vertex -20.1782 3 14.7901
      vertex -20.89 3 14.5588
    endloop
  endfacet
  facet normal 0.669131 -1.65011e-016 -0.743145
    outer loop
      vertex -20.89 12.46 14.5588
      vertex -20.89 3 14.5588
      vertex -21.4462 12.46 14.058
    endloop
  endfacet
  facet normal 0.669131 -1.65011e-016 -0.743145
    outer loop
      vertex -21.4462 12.46 14.058
      vertex -20.89 3 14.5588
      vertex -21.4462 3 14.058
    endloop
  endfacet
  facet normal 0.913545 -9.03137e-017 -0.406737
    outer loop
      vertex -21.7507 12.46 13.3742
      vertex -21.4462 12.46 14.058
      vertex -21.4462 3 14.058
    endloop
  endfacet
  facet normal 0.913545 -9.03137e-017 -0.406737
    outer loop
      vertex -21.7507 3 13.3742
      vertex -21.7507 12.46 13.3742
      vertex -21.4462 3 14.058
    endloop
  endfacet
  facet normal 0 -1 2.22045e-016
    outer loop
      vertex 0 -11.5 22
      vertex 0 -11.5 2.55351e-015
      vertex 15 -11.5 2.55351e-015
    endloop
  endfacet
  facet normal 0 -1 2.22045e-016
    outer loop
      vertex 15 -11.5 22
      vertex 0 -11.5 22
      vertex 15 -11.5 2.55351e-015
    endloop
  endfacet
  facet normal 1 0 0
    outer loop
      vertex 15 -8.2 7
      vertex 15 -11.5 2.55351e-015
      vertex 15 15 -3.33067e-015
    endloop
  endfacet
  facet normal 1 0 0
    outer loop
      vertex 15 -8.2 7
      vertex 15 -8.2 22
      vertex 15 -11.5 22
    endloop
  endfacet
  facet normal 1 0 0
    outer loop
      vertex 15 15 22
      vertex 15 8 22
      vertex 15 15 -3.33067e-015
    endloop
  endfacet
  facet normal 1 0 0
    outer loop
      vertex 15 8 22
      vertex 15 8 7
      vertex 15 15 -3.33067e-015
    endloop
  endfacet
  facet normal 1 0 0
    outer loop
      vertex 15 -11.5 22
      vertex 15 -11.5 2.55351e-015
      vertex 15 -8.2 7
    endloop
  endfacet
  facet normal 1 0 0
    outer loop
      vertex 15 8 7
      vertex 15 -8.2 7
      vertex 15 15 -3.33067e-015
    endloop
  endfacet
  facet normal 0 2.22045e-016 1
    outer loop
      vertex 0 15 22
      vertex 0 8 22
      vertex 15 8 22
    endloop
  endfacet
  facet normal 0 2.22045e-016 1
    outer loop
      vertex 15 15 22
      vertex 0 15 22
      vertex 15 8 22
    endloop
  endfacet
  facet normal -1 0 0
    outer loop
      vertex 0 8 7
      vertex 0 8 22
      vertex 0 15 7
    endloop
  endfacet
  facet normal -1 0 0
    outer loop
      vertex 0 15 7
      vertex 0 8 22
      vertex 0 15 22
    endloop
  endfacet
  facet normal 0.866025 -1.11022e-016 -0.5
    outer loop
      vertex -23.24 15 13
      vertex -21.615 15 15.8146
      vertex -21.615 12.46 15.8146
    endloop
  endfacet
  facet normal 0.866025 -1.11022e-016 -0.5
    outer loop
      vertex -23.24 12.46 13
      vertex -23.24 15 13
      vertex -21.615 12.46 15.8146
    endloop
  endfacet
  facet normal 0.866025 1.11022e-016 0.5
    outer loop
      vertex -21.615 12.46 10.1854
      vertex -21.615 15 10.1854
      vertex -23.24 15 13
    endloop
  endfacet
  facet normal 0.866025 1.11022e-016 0.5
    outer loop
      vertex -23.24 12.46 13
      vertex -21.615 12.46 10.1854
      vertex -23.24 15 13
    endloop
  endfacet
  facet normal 0 -2.22045e-016 -1
    outer loop
      vertex -18.365 15 15.8146
      vertex -18.365 12.46 15.8146
      vertex -21.615 15 15.8146
    endloop
  endfacet
  facet normal 0 -2.22045e-016 -1
    outer loop
      vertex -21.615 15 15.8146
      vertex -18.365 12.46 15.8146
      vertex -21.615 12.46 15.8146
    endloop
  endfacet
  facet normal -0.866025 -1.11022e-016 -0.5
    outer loop
      vertex -16.74 15 13
      vertex -16.74 12.46 13
      vertex -18.365 15 15.8146
    endloop
  endfacet
  facet normal -0.866025 -1.11022e-016 -0.5
    outer loop
      vertex -18.365 15 15.8146
      vertex -16.74 12.46 13
      vertex -18.365 12.46 15.8146
    endloop
  endfacet
  facet normal -0.866025 1.11022e-016 0.5
    outer loop
      vertex -16.74 15 13
      vertex -18.365 15 10.1854
      vertex -16.74 12.46 13
    endloop
  endfacet
  facet normal -0.866025 1.11022e-016 0.5
    outer loop
      vertex -16.74 12.46 13
      vertex -18.365 15 10.1854
      vertex -18.365 12.46 10.1854
    endloop
  endfacet
  facet normal 0 2.22045e-016 1
    outer loop
      vertex -18.365 12.46 10.1854
      vertex -18.365 15 10.1854
      vertex -21.615 15 10.1854
    endloop
  endfacet
  facet normal 0 2.22045e-016 1
    outer loop
      vertex -21.615 12.46 10.1854
      vertex -18.365 12.46 10.1854
      vertex -21.615 15 10.1854
    endloop
  endfacet
  facet normal 0.978148 -1.6595e-016 -0.207911
    outer loop
      vertex 5.7 15 14.5
      vertex 5.85562 15 15.2321
      vertex 5.85562 10.54 15.2321
    endloop
  endfacet
  facet normal 0.978148 -1.6595e-016 -0.207911
    outer loop
      vertex 5.7 10.54 14.5
      vertex 5.7 15 14.5
      vertex 5.85562 10.54 15.2321
    endloop
  endfacet
  facet normal 0.978148 -7.3619e-017 0.207911
    outer loop
      vertex 5.85562 10.54 13.7679
      vertex 5.85562 15 13.7679
      vertex 5.7 15 14.5
    endloop
  endfacet
  facet normal 0.978148 -7.3619e-017 0.207911
    outer loop
      vertex 5.7 10.54 14.5
      vertex 5.85562 10.54 13.7679
      vertex 5.7 15 14.5
    endloop
  endfacet
  facet normal 0.809017 -2.29587e-016 -0.587785
    outer loop
      vertex 5.85562 15 15.2321
      vertex 6.29557 15 15.8377
      vertex 6.29556 10.54 15.8377
    endloop
  endfacet
  facet normal 0.809017 -2.29587e-016 -0.587785
    outer loop
      vertex 5.85562 10.54 15.2321
      vertex 5.85562 15 15.2321
      vertex 6.29556 10.54 15.8377
    endloop
  endfacet
  facet normal 0.5 -2.53527e-016 -0.866025
    outer loop
      vertex 6.94377 15 16.2119
      vertex 6.94377 10.54 16.2119
      vertex 6.29557 15 15.8377
    endloop
  endfacet
  facet normal 0.5 -2.53527e-016 -0.866025
    outer loop
      vertex 6.29557 15 15.8377
      vertex 6.94377 10.54 16.2119
      vertex 6.29556 10.54 15.8377
    endloop
  endfacet
  facet normal 0.104528 -2.33629e-016 -0.994522
    outer loop
      vertex 7.68815 15 16.2901
      vertex 7.68815 10.54 16.2901
      vertex 6.94377 15 16.2119
    endloop
  endfacet
  facet normal 0.104528 -2.33629e-016 -0.994522
    outer loop
      vertex 6.94377 15 16.2119
      vertex 7.68815 10.54 16.2901
      vertex 6.94377 10.54 16.2119
    endloop
  endfacet
  facet normal -0.309016 -1.73335e-016 -0.951057
    outer loop
      vertex 8.4 15 16.0588
      vertex 8.4 10.54 16.0588
      vertex 7.68815 15 16.2901
    endloop
  endfacet
  facet normal -0.309016 -1.73335e-016 -0.951057
    outer loop
      vertex 7.68815 15 16.2901
      vertex 8.4 10.54 16.0588
      vertex 7.68815 10.54 16.2901
    endloop
  endfacet
  facet normal -0.669131 -8.30691e-017 -0.743145
    outer loop
      vertex 8.95623 15 15.558
      vertex 8.95623 10.54 15.558
      vertex 8.4 15 16.0588
    endloop
  endfacet
  facet normal -0.669131 -8.30691e-017 -0.743145
    outer loop
      vertex 8.4 15 16.0588
      vertex 8.95623 10.54 15.558
      vertex 8.4 10.54 16.0588
    endloop
  endfacet
  facet normal -0.913545 2.15597e-017 -0.406737
    outer loop
      vertex 9.26067 15 14.8742
      vertex 9.26067 10.54 14.8742
      vertex 8.95623 15 15.558
    endloop
  endfacet
  facet normal -0.913545 2.15597e-017 -0.406737
    outer loop
      vertex 8.95623 15 15.558
      vertex 9.26067 10.54 14.8742
      vertex 8.95623 10.54 15.558
    endloop
  endfacet
  facet normal -1 1.22461e-016 -2.71917e-032
    outer loop
      vertex 9.26067 15 14.8742
      vertex 9.26067 15 14.1258
      vertex 9.26067 10.54 14.8742
    endloop
  endfacet
  facet normal -1 1.22461e-016 -2.71917e-032
    outer loop
      vertex 9.26067 10.54 14.8742
      vertex 9.26067 15 14.1258
      vertex 9.26067 10.54 14.1258
    endloop
  endfacet
  facet normal -0.913545 2.02187e-016 0.406737
    outer loop
      vertex 9.26067 15 14.1258
      vertex 8.95623 15 13.442
      vertex 9.26067 10.54 14.1258
    endloop
  endfacet
  facet normal -0.913545 2.02187e-016 0.406737
    outer loop
      vertex 9.26067 10.54 14.1258
      vertex 8.95623 15 13.442
      vertex 8.95623 10.54 13.442
    endloop
  endfacet
  facet normal -0.669131 2.46953e-016 0.743145
    outer loop
      vertex 8.95623 10.54 13.442
      vertex 8.95623 15 13.442
      vertex 8.4 15 12.9412
    endloop
  endfacet
  facet normal -0.669131 2.46953e-016 0.743145
    outer loop
      vertex 8.4 10.54 12.9412
      vertex 8.95623 10.54 13.442
      vertex 8.4 15 12.9412
    endloop
  endfacet
  facet normal -0.309016 2.49019e-016 0.951057
    outer loop
      vertex 8.4 10.54 12.9412
      vertex 8.4 15 12.9412
      vertex 7.68815 15 12.7099
    endloop
  endfacet
  facet normal -0.309016 2.49019e-016 0.951057
    outer loop
      vertex 7.68815 10.54 12.7099
      vertex 8.4 10.54 12.9412
      vertex 7.68815 15 12.7099
    endloop
  endfacet
  facet normal 0.104528 2.08028e-016 0.994522
    outer loop
      vertex 7.68815 10.54 12.7099
      vertex 7.68815 15 12.7099
      vertex 6.94377 15 12.7881
    endloop
  endfacet
  facet normal 0.104528 2.08028e-016 0.994522
    outer loop
      vertex 6.94377 10.54 12.7881
      vertex 7.68815 10.54 12.7099
      vertex 6.94377 15 12.7881
    endloop
  endfacet
  facet normal 0.5 1.31066e-016 0.866025
    outer loop
      vertex 6.94377 10.54 12.7881
      vertex 6.94377 15 12.7881
      vertex 6.29557 15 13.1623
    endloop
  endfacet
  facet normal 0.5 1.31066e-016 0.866025
    outer loop
      vertex 6.29556 10.54 13.1623
      vertex 6.94377 10.54 12.7881
      vertex 6.29557 15 13.1623
    endloop
  endfacet
  facet normal 0.809017 3.14418e-017 0.587785
    outer loop
      vertex 6.29556 10.54 13.1623
      vertex 6.29557 15 13.1623
      vertex 5.85562 15 13.7679
    endloop
  endfacet
  facet normal 0.809017 3.14418e-017 0.587785
    outer loop
      vertex 5.85562 10.54 13.7679
      vertex 6.29556 10.54 13.1623
      vertex 5.85562 15 13.7679
    endloop
  endfacet
  facet normal 0 -1 2.22045e-016
    outer loop
      vertex 10.75 8 14.5
      vertex 15 8 7
      vertex 15 8 22
    endloop
  endfacet
  facet normal 0 -1 2.22045e-016
    outer loop
      vertex 0 8 7
      vertex 0.01 8 7
      vertex 0 8 22
    endloop
  endfacet
  facet normal 0 -1 2.22045e-016
    outer loop
      vertex 5.875 8 17.3146
      vertex 9.125 8 17.3146
      vertex 15 8 22
    endloop
  endfacet
  facet normal 0 -1 2.22045e-016
    outer loop
      vertex 9.125 8 17.3146
      vertex 10.75 8 14.5
      vertex 15 8 22
    endloop
  endfacet
  facet normal 0 -1 2.22045e-016
    outer loop
      vertex 0 8 22
      vertex 0.01 8 7
      vertex 4.25 8 14.5
    endloop
  endfacet
  facet normal 0 -1 2.22045e-016
    outer loop
      vertex 0 8 22
      vertex 5.875 8 17.3146
      vertex 15 8 22
    endloop
  endfacet
  facet normal 0 -1 2.22045e-016
    outer loop
      vertex 0 8 22
      vertex 4.25 8 14.5
      vertex 5.875 8 17.3146
    endloop
  endfacet
  facet normal 0 -1 2.22045e-016
    outer loop
      vertex 9.125 8 11.6854
      vertex 15 8 7
      vertex 10.75 8 14.5
    endloop
  endfacet
  facet normal 0 -1 2.22045e-016
    outer loop
      vertex 0.01 8 7
      vertex 15 8 7
      vertex 9.125 8 11.6854
    endloop
  endfacet
  facet normal 0 -1 2.22045e-016
    outer loop
      vertex 9.125 8 11.6854
      vertex 5.875 8 11.6854
      vertex 0.01 8 7
    endloop
  endfacet
  facet normal 0 -1 2.22045e-016
    outer loop
      vertex 5.875 8 11.6854
      vertex 4.25 8 14.5
      vertex 0.01 8 7
    endloop
  endfacet
  facet normal 0 1 -2.22045e-016
    outer loop
      vertex 15 -8.2 22
      vertex 15 -8.2 7
      vertex 0 -8.2 22
    endloop
  endfacet
  facet normal 0 1 -2.22045e-016
    outer loop
      vertex 0 -8.2 22
      vertex 15 -8.2 7
      vertex 0 -8.2 7
    endloop
  endfacet
  facet normal 0 2.22045e-016 1
    outer loop
      vertex 0 -8.2 22
      vertex 0 -11.5 22
      vertex 15 -11.5 22
    endloop
  endfacet
  facet normal 0 2.22045e-016 1
    outer loop
      vertex 15 -8.2 22
      vertex 0 -8.2 22
      vertex 15 -11.5 22
    endloop
  endfacet
  facet normal 0 1 -2.22045e-016
    outer loop
      vertex -20.1782 12.46 14.7901
      vertex -21.615 12.46 15.8146
      vertex -19.4338 12.46 14.7119
    endloop
  endfacet
  facet normal 0 1 -2.22045e-016
    outer loop
      vertex -18.7856 12.46 11.6623
      vertex -16.74 12.46 13
      vertex -18.365 12.46 10.1854
    endloop
  endfacet
  facet normal 0 1 -2.22045e-016
    outer loop
      vertex -20.89 12.46 11.4412
      vertex -18.365 12.46 10.1854
      vertex -21.615 12.46 10.1854
    endloop
  endfacet
  facet normal 0 1 -2.22045e-016
    outer loop
      vertex -21.7507 12.46 12.6258
      vertex -21.615 12.46 10.1854
      vertex -23.24 12.46 13
    endloop
  endfacet
  facet normal 0 1 -2.22045e-016
    outer loop
      vertex -21.7507 12.46 13.3742
      vertex -21.7507 12.46 12.6258
      vertex -23.24 12.46 13
    endloop
  endfacet
  facet normal 0 1 -2.22045e-016
    outer loop
      vertex -18.7856 12.46 11.6623
      vertex -18.365 12.46 10.1854
      vertex -19.4338 12.46 11.2881
    endloop
  endfacet
  facet normal 0 1 -2.22045e-016
    outer loop
      vertex -19.4338 12.46 11.2881
      vertex -18.365 12.46 10.1854
      vertex -20.1782 12.46 11.2099
    endloop
  endfacet
  facet normal 0 1 -2.22045e-016
    outer loop
      vertex -20.1782 12.46 11.2099
      vertex -18.365 12.46 10.1854
      vertex -20.89 12.46 11.4412
    endloop
  endfacet
  facet normal 0 1 -2.22045e-016
    outer loop
      vertex -21.4462 12.46 11.942
      vertex -20.89 12.46 11.4412
      vertex -21.615 12.46 10.1854
    endloop
  endfacet
  facet normal 0 1 -2.22045e-016
    outer loop
      vertex -18.3456 12.46 12.2679
      vertex -16.74 12.46 13
      vertex -18.7856 12.46 11.6623
    endloop
  endfacet
  facet normal 0 1 -2.22045e-016
    outer loop
      vertex -18.7856 12.46 14.3377
      vertex -16.74 12.46 13
      vertex -18.3456 12.46 13.7321
    endloop
  endfacet
  facet normal 0 1 -2.22045e-016
    outer loop
      vertex -18.19 12.46 13
      vertex -16.74 12.46 13
      vertex -18.3456 12.46 12.2679
    endloop
  endfacet
  facet normal 0 1 -2.22045e-016
    outer loop
      vertex -18.3456 12.46 13.7321
      vertex -16.74 12.46 13
      vertex -18.19 12.46 13
    endloop
  endfacet
  facet normal 0 1 -2.22045e-016
    outer loop
      vertex -18.365 12.46 15.8146
      vertex -16.74 12.46 13
      vertex -18.7856 12.46 14.3377
    endloop
  endfacet
  facet normal 0 1 -2.22045e-016
    outer loop
      vertex -18.365 12.46 15.8146
      vertex -18.7856 12.46 14.3377
      vertex -19.4338 12.46 14.7119
    endloop
  endfacet
  facet normal 0 1 -2.22045e-016
    outer loop
      vertex -18.365 12.46 15.8146
      vertex -19.4338 12.46 14.7119
      vertex -21.615 12.46 15.8146
    endloop
  endfacet
  facet normal 0 1 -2.22045e-016
    outer loop
      vertex -20.89 12.46 14.5588
      vertex -21.615 12.46 15.8146
      vertex -20.1782 12.46 14.7901
    endloop
  endfacet
  facet normal 0 1 -2.22045e-016
    outer loop
      vertex -21.4462 12.46 14.058
      vertex -21.615 12.46 15.8146
      vertex -20.89 12.46 14.5588
    endloop
  endfacet
  facet normal 0 1 -2.22045e-016
    outer loop
      vertex -21.7507 12.46 13.3742
      vertex -21.615 12.46 15.8146
      vertex -21.4462 12.46 14.058
    endloop
  endfacet
  facet normal 0 1 -2.22045e-016
    outer loop
      vertex -21.615 12.46 15.8146
      vertex -21.7507 12.46 13.3742
      vertex -23.24 12.46 13
    endloop
  endfacet
  facet normal 0 1 -2.22045e-016
    outer loop
      vertex -21.4462 12.46 11.942
      vertex -21.615 12.46 10.1854
      vertex -21.7507 12.46 12.6258
    endloop
  endfacet
  facet normal -1.22461e-016 -1 2.22045e-016
    outer loop
      vertex 8.95623 10.54 13.442
      vertex 9.125 10.54 11.6854
      vertex 10.75 10.54 14.5
    endloop
  endfacet
  facet normal -1.22461e-016 -1 2.22045e-016
    outer loop
      vertex 9.26067 10.54 14.1258
      vertex 8.95623 10.54 13.442
      vertex 10.75 10.54 14.5
    endloop
  endfacet
  facet normal -1.22461e-016 -1 2.22045e-016
    outer loop
      vertex 6.94377 10.54 16.2119
      vertex 7.68815 10.54 16.2901
      vertex 9.125 10.54 17.3146
    endloop
  endfacet
  facet normal -1.22461e-016 -1 2.22045e-016
    outer loop
      vertex 4.25 10.54 14.5
      vertex 5.7 10.54 14.5
      vertex 5.875 10.54 17.3146
    endloop
  endfacet
  facet normal -1.22461e-016 -1 2.22045e-016
    outer loop
      vertex 4.25 10.54 14.5
      vertex 5.875 10.54 11.6854
      vertex 5.7 10.54 14.5
    endloop
  endfacet
  facet normal -1.22461e-016 -1 2.22045e-016
    outer loop
      vertex 5.7 10.54 14.5
      vertex 5.85562 10.54 15.2321
      vertex 5.875 10.54 17.3146
    endloop
  endfacet
  facet normal -1.22461e-016 -1 2.22045e-016
    outer loop
      vertex 8.4 10.54 16.0588
      vertex 8.95623 10.54 15.558
      vertex 9.125 10.54 17.3146
    endloop
  endfacet
  facet normal -1.22461e-016 -1 2.22045e-016
    outer loop
      vertex 5.875 10.54 17.3146
      vertex 6.94377 10.54 16.2119
      vertex 9.125 10.54 17.3146
    endloop
  endfacet
  facet normal -1.22461e-016 -1 2.22045e-016
    outer loop
      vertex 5.875 10.54 17.3146
      vertex 6.29556 10.54 15.8377
      vertex 6.94377 10.54 16.2119
    endloop
  endfacet
  facet normal -1.22461e-016 -1 2.22045e-016
    outer loop
      vertex 6.29556 10.54 13.1623
      vertex 5.85562 10.54 13.7679
      vertex 5.875 10.54 11.6854
    endloop
  endfacet
  facet normal -1.22461e-016 -1 2.22045e-016
    outer loop
      vertex 7.68815 10.54 16.2901
      vertex 8.4 10.54 16.0588
      vertex 9.125 10.54 17.3146
    endloop
  endfacet
  facet normal -1.22461e-016 -1 2.22045e-016
    outer loop
      vertex 9.125 10.54 17.3146
      vertex 8.95623 10.54 15.558
      vertex 10.75 10.54 14.5
    endloop
  endfacet
  facet normal -1.22461e-016 -1 2.22045e-016
    outer loop
      vertex 8.95623 10.54 15.558
      vertex 9.26067 10.54 14.8742
      vertex 10.75 10.54 14.5
    endloop
  endfacet
  facet normal -1.22461e-016 -1 2.22045e-016
    outer loop
      vertex 9.26067 10.54 14.8742
      vertex 9.26067 10.54 14.1258
      vertex 10.75 10.54 14.5
    endloop
  endfacet
  facet normal -1.22461e-016 -1 2.22045e-016
    outer loop
      vertex 8.4 10.54 12.9412
      vertex 9.125 10.54 11.6854
      vertex 8.95623 10.54 13.442
    endloop
  endfacet
  facet normal -1.22461e-016 -1 2.22045e-016
    outer loop
      vertex 5.875 10.54 11.6854
      vertex 9.125 10.54 11.6854
      vertex 8.4 10.54 12.9412
    endloop
  endfacet
  facet normal -1.22461e-016 -1 2.22045e-016
    outer loop
      vertex 6.94377 10.54 12.7881
      vertex 6.29556 10.54 13.1623
      vertex 5.875 10.54 11.6854
    endloop
  endfacet
  facet normal -1.22461e-016 -1 2.22045e-016
    outer loop
      vertex 5.875 10.54 11.6854
      vertex 8.4 10.54 12.9412
      vertex 7.68815 10.54 12.7099
    endloop
  endfacet
  facet normal -1.22461e-016 -1 2.22045e-016
    outer loop
      vertex 5.7 10.54 14.5
      vertex 5.875 10.54 11.6854
      vertex 5.85562 10.54 13.7679
    endloop
  endfacet
  facet normal -1.22461e-016 -1 2.22045e-016
    outer loop
      vertex 5.85562 10.54 15.2321
      vertex 6.29556 10.54 15.8377
      vertex 5.875 10.54 17.3146
    endloop
  endfacet
  facet normal -1.22461e-016 -1 2.22045e-016
    outer loop
      vertex 7.68815 10.54 12.7099
      vertex 6.94377 10.54 12.7881
      vertex 5.875 10.54 11.6854
    endloop
  endfacet
  facet normal 0.866025 -2.17076e-016 -0.5
    outer loop
      vertex 4.25 10.54 14.5
      vertex 5.875 10.54 17.3146
      vertex 5.875 8 17.3146
    endloop
  endfacet
  facet normal 0.866025 -2.17076e-016 -0.5
    outer loop
      vertex 4.25 8 14.5
      vertex 4.25 10.54 14.5
      vertex 5.875 8 17.3146
    endloop
  endfacet
  facet normal 0.866025 4.96826e-018 0.5
    outer loop
      vertex 5.875 8 11.6854
      vertex 5.875 10.54 11.6854
      vertex 4.25 10.54 14.5
    endloop
  endfacet
  facet normal 0.866025 4.96826e-018 0.5
    outer loop
      vertex 4.25 8 14.5
      vertex 5.875 8 11.6854
      vertex 4.25 10.54 14.5
    endloop
  endfacet
  facet normal 0 2.22045e-016 1
    outer loop
      vertex 9.125 8 11.6854
      vertex 9.125 10.54 11.6854
      vertex 5.875 10.54 11.6854
    endloop
  endfacet
  facet normal 0 2.22045e-016 1
    outer loop
      vertex 5.875 8 11.6854
      vertex 9.125 8 11.6854
      vertex 5.875 10.54 11.6854
    endloop
  endfacet
  facet normal -0.866025 2.17076e-016 0.5
    outer loop
      vertex 10.75 10.54 14.5
      vertex 9.125 10.54 11.6854
      vertex 10.75 8 14.5
    endloop
  endfacet
  facet normal -0.866025 2.17076e-016 0.5
    outer loop
      vertex 10.75 8 14.5
      vertex 9.125 10.54 11.6854
      vertex 9.125 8 11.6854
    endloop
  endfacet
  facet normal -0.866025 -4.96826e-018 -0.5
    outer loop
      vertex 10.75 10.54 14.5
      vertex 10.75 8 14.5
      vertex 9.125 10.54 17.3146
    endloop
  endfacet
  facet normal -0.866025 -4.96826e-018 -0.5
    outer loop
      vertex 9.125 10.54 17.3146
      vertex 10.75 8 14.5
      vertex 9.125 8 17.3146
    endloop
  endfacet
  facet normal 0 -2.22045e-016 -1
    outer loop
      vertex 9.125 10.54 17.3146
      vertex 9.125 8 17.3146
      vertex 5.875 10.54 17.3146
    endloop
  endfacet
  facet normal 0 -2.22045e-016 -1
    outer loop
      vertex 5.875 10.54 17.3146
      vertex 9.125 8 17.3146
      vertex 5.875 8 17.3146
    endloop
  endfacet
  facet normal 0 -1.22461e-016 -1
    outer loop
      vertex 18.7513 -2.39098 2.92801e-016
      vertex 18.7513 2.39098 -2.92801e-016
      vertex 20.6963 -6.75953 8.27776e-016
    endloop
  endfacet
  facet normal 0 -1.22461e-016 -1
    outer loop
      vertex 20.6963 -6.75953 8.27776e-016
      vertex 18.7513 2.39098 -2.92801e-016
      vertex 20.6963 6.75953 -8.27776e-016
    endloop
  endfacet
  facet normal 0 -1.22461e-016 -1
    outer loop
      vertex 20.6963 -6.75953 8.27776e-016
      vertex 20.6963 6.75953 -8.27776e-016
      vertex 24.25 9.95929 -1.21962e-015
    endloop
  endfacet
  facet normal 0 -1.22461e-016 -1
    outer loop
      vertex 20.6963 -6.75953 8.27776e-016
      vertex 24.25 9.95929 -1.21962e-015
      vertex 28.7979 11.437 -1.40058e-015
    endloop
  endfacet
  facet normal 0 -1.22461e-016 -1
    outer loop
      vertex 20.6963 -6.75953 8.27776e-016
      vertex 28.7979 11.437 -1.40058e-015
      vertex 33.5537 10.9371 -1.33937e-015
    endloop
  endfacet
  facet normal 0 -1.22461e-016 -1
    outer loop
      vertex 29.8118 1.79014 -2.19222e-016
      vertex 33.5537 10.9371 -1.33937e-015
      vertex 37.695 8.54616 -1.04657e-015
    endloop
  endfacet
  facet normal 0 -1.22461e-016 -1
    outer loop
      vertex 31.2044 1.33766 -1.63811e-016
      vertex 37.695 8.54616 -1.04657e-015
      vertex 40.5058 4.67747 -5.72806e-016
    endloop
  endfacet
  facet normal 0 -1.22461e-016 -1
    outer loop
      vertex 31.2044 -1.33766 1.63811e-016
      vertex 40.5058 4.67747 -5.72806e-016
      vertex 41.5 -6.12303e-016 0
    endloop
  endfacet
  facet normal 0 -1.22461e-016 -1
    outer loop
      vertex 20.6963 -6.75953 8.27776e-016
      vertex 41.5 -6.12303e-016 0
      vertex 40.5058 -4.67747 5.72806e-016
    endloop
  endfacet
  facet normal 0 -1.22461e-016 -1
    outer loop
      vertex 20.6963 -6.75953 8.27776e-016
      vertex 40.5058 -4.67747 5.72806e-016
      vertex 37.695 -8.54617 1.04657e-015
    endloop
  endfacet
  facet normal 0 -1.22461e-016 -1
    outer loop
      vertex 20.6963 -6.75953 8.27776e-016
      vertex 37.695 -8.54617 1.04657e-015
      vertex 33.5537 -10.9371 1.33937e-015
    endloop
  endfacet
  facet normal 0 -1.22461e-016 -1
    outer loop
      vertex 20.6963 -6.75953 8.27776e-016
      vertex 33.5537 -10.9371 1.33937e-015
      vertex 28.7979 -11.437 1.40058e-015
    endloop
  endfacet
  facet normal 0 -1.22461e-016 -1
    outer loop
      vertex 20.6963 -6.75953 8.27776e-016
      vertex 28.7979 -11.437 1.40058e-015
      vertex 24.25 -9.95929 1.21962e-015
    endloop
  endfacet
  facet normal 0 -1.22461e-016 -1
    outer loop
      vertex 29.8118 -1.79014 2.19222e-016
      vertex 20.6963 -6.75953 8.27776e-016
      vertex 29.1 -1.55885 1.90897e-016
    endloop
  endfacet
  facet normal 0 -1.22461e-016 -1
    outer loop
      vertex 20.6963 -6.75953 8.27776e-016
      vertex 28.2393 -0.374241 4.58298e-017
      vertex 28.5438 -1.05801 1.29565e-016
    endloop
  endfacet
  facet normal 0 -1.22461e-016 -1
    outer loop
      vertex 20.6963 -6.75953 8.27776e-016
      vertex 28.5438 -1.05801 1.29565e-016
      vertex 29.1 -1.55885 1.90897e-016
    endloop
  endfacet
  facet normal 0 -1.22461e-016 -1
    outer loop
      vertex 31.2044 -1.33766 1.63811e-016
      vertex 41.5 -6.12303e-016 0
      vertex 30.5562 -1.7119 2.09641e-016
    endloop
  endfacet
  facet normal 0 -1.22461e-016 -1
    outer loop
      vertex 20.6963 -6.75953 8.27776e-016
      vertex 29.8118 -1.79014 2.19222e-016
      vertex 30.5562 -1.7119 2.09641e-016
    endloop
  endfacet
  facet normal 0 -1.22461e-016 -1
    outer loop
      vertex 20.6963 -6.75953 8.27776e-016
      vertex 30.5562 -1.7119 2.09641e-016
      vertex 41.5 -6.12303e-016 0
    endloop
  endfacet
  facet normal 0 -1.22461e-016 -1
    outer loop
      vertex 31.6444 -0.732126 8.96566e-017
      vertex 40.5058 4.67747 -5.72806e-016
      vertex 31.2044 -1.33766 1.63811e-016
    endloop
  endfacet
  facet normal 0 -1.22461e-016 -1
    outer loop
      vertex 31.8 -6.12303e-016 0
      vertex 40.5058 4.67747 -5.72806e-016
      vertex 31.6444 -0.732126 8.96566e-017
    endloop
  endfacet
  facet normal 0 -1.22461e-016 -1
    outer loop
      vertex 31.6444 0.732126 -8.96566e-017
      vertex 40.5058 4.67747 -5.72806e-016
      vertex 31.8 -6.12303e-016 0
    endloop
  endfacet
  facet normal 0 -1.22461e-016 -1
    outer loop
      vertex 31.2044 1.33766 -1.63811e-016
      vertex 40.5058 4.67747 -5.72806e-016
      vertex 31.6444 0.732126 -8.96566e-017
    endloop
  endfacet
  facet normal 0 -1.22461e-016 -1
    outer loop
      vertex 30.5562 1.7119 -2.09641e-016
      vertex 37.695 8.54616 -1.04657e-015
      vertex 31.2044 1.33766 -1.63811e-016
    endloop
  endfacet
  facet normal 0 -1.22461e-016 -1
    outer loop
      vertex 29.8118 1.79014 -2.19222e-016
      vertex 37.695 8.54616 -1.04657e-015
      vertex 30.5562 1.7119 -2.09641e-016
    endloop
  endfacet
  facet normal 0 -1.22461e-016 -1
    outer loop
      vertex 29.1 1.55885 -1.90897e-016
      vertex 33.5537 10.9371 -1.33937e-015
      vertex 29.8118 1.79014 -2.19222e-016
    endloop
  endfacet
  facet normal 0 -1.22461e-016 -1
    outer loop
      vertex 28.5438 1.05801 -1.29565e-016
      vertex 33.5537 10.9371 -1.33937e-015
      vertex 29.1 1.55885 -1.90897e-016
    endloop
  endfacet
  facet normal 0 -1.22461e-016 -1
    outer loop
      vertex 20.6963 -6.75953 8.27776e-016
      vertex 33.5537 10.9371 -1.33937e-015
      vertex 28.5438 1.05801 -1.29565e-016
    endloop
  endfacet
  facet normal 0 -1.22461e-016 -1
    outer loop
      vertex 20.6963 -6.75953 8.27776e-016
      vertex 28.5438 1.05801 -1.29565e-016
      vertex 28.2393 0.374241 -4.58298e-017
    endloop
  endfacet
  facet normal 0 -1.22461e-016 -1
    outer loop
      vertex 28.2393 -0.374241 4.58298e-017
      vertex 20.6963 -6.75953 8.27776e-016
      vertex 28.2393 0.374241 -4.58298e-017
    endloop
  endfacet
  facet normal -1 0 0
    outer loop
      vertex 18.7513 -2.39098 2.92801e-016
      vertex 18.7513 -2.39098 5
      vertex 18.7513 2.39098 -2.92801e-016
    endloop
  endfacet
  facet normal -1 0 0
    outer loop
      vertex 18.7513 2.39098 -2.92801e-016
      vertex 18.7513 -2.39098 5
      vertex 18.7513 2.39098 5
    endloop
  endfacet
  facet normal -0.913545 -0.406737 4.98092e-017
    outer loop
      vertex 18.7513 -2.39098 2.92801e-016
      vertex 20.6963 -6.75953 8.27776e-016
      vertex 18.7513 -2.39098 5
    endloop
  endfacet
  facet normal -0.913545 -0.406737 4.98092e-017
    outer loop
      vertex 18.7513 -2.39098 5
      vertex 20.6963 -6.75953 8.27776e-016
      vertex 20.6963 -6.75953 5
    endloop
  endfacet
  facet normal -0.669131 -0.743145 9.1006e-017
    outer loop
      vertex 20.6963 -6.75953 5
      vertex 20.6963 -6.75953 8.27776e-016
      vertex 24.25 -9.95929 1.21962e-015
    endloop
  endfacet
  facet normal -0.669131 -0.743145 9.1006e-017
    outer loop
      vertex 24.25 -9.95929 5
      vertex 20.6963 -6.75953 5
      vertex 24.25 -9.95929 1.21962e-015
    endloop
  endfacet
  facet normal -0.309017 -0.951057 1.16467e-016
    outer loop
      vertex 24.25 -9.95929 5
      vertex 24.25 -9.95929 1.21962e-015
      vertex 28.7979 -11.437 1.40058e-015
    endloop
  endfacet
  facet normal -0.309017 -0.951057 1.16467e-016
    outer loop
      vertex 28.7979 -11.437 5
      vertex 24.25 -9.95929 5
      vertex 28.7979 -11.437 1.40058e-015
    endloop
  endfacet
  facet normal 0.104529 -0.994522 1.2179e-016
    outer loop
      vertex 28.7979 -11.437 5
      vertex 28.7979 -11.437 1.40058e-015
      vertex 33.5537 -10.9371 1.33937e-015
    endloop
  endfacet
  facet normal 0.104529 -0.994522 1.2179e-016
    outer loop
      vertex 33.5537 -10.9371 5
      vertex 28.7979 -11.437 5
      vertex 33.5537 -10.9371 1.33937e-015
    endloop
  endfacet
  facet normal 0.5 -0.866025 1.06054e-016
    outer loop
      vertex 33.5537 -10.9371 5
      vertex 33.5537 -10.9371 1.33937e-015
      vertex 37.695 -8.54617 1.04657e-015
    endloop
  endfacet
  facet normal 0.5 -0.866025 1.06054e-016
    outer loop
      vertex 37.695 -8.54617 5
      vertex 33.5537 -10.9371 5
      vertex 37.695 -8.54617 1.04657e-015
    endloop
  endfacet
  facet normal 0.809017 -0.587785 7.19806e-017
    outer loop
      vertex 37.695 -8.54617 5
      vertex 37.695 -8.54617 1.04657e-015
      vertex 40.5058 -4.67747 5.72806e-016
    endloop
  endfacet
  facet normal 0.809017 -0.587785 7.19806e-017
    outer loop
      vertex 40.5058 -4.67747 5
      vertex 37.695 -8.54617 5
      vertex 40.5058 -4.67747 5.72806e-016
    endloop
  endfacet
  facet normal 0.978148 -0.207912 2.5461e-017
    outer loop
      vertex 40.5058 -4.67747 5
      vertex 40.5058 -4.67747 5.72806e-016
      vertex 41.5 -6.12303e-016 0
    endloop
  endfacet
  facet normal 0.978148 -0.207912 2.5461e-017
    outer loop
      vertex 41.5 0 5
      vertex 40.5058 -4.67747 5
      vertex 41.5 -6.12303e-016 0
    endloop
  endfacet
  facet normal 0.978148 0.207912 -2.5461e-017
    outer loop
      vertex 41.5 -6.12303e-016 0
      vertex 40.5058 4.67747 -5.72806e-016
      vertex 40.5058 4.67747 5
    endloop
  endfacet
  facet normal 0.978148 0.207912 -2.5461e-017
    outer loop
      vertex 41.5 0 5
      vertex 41.5 -6.12303e-016 0
      vertex 40.5058 4.67747 5
    endloop
  endfacet
  facet normal 0.809017 0.587785 -7.19806e-017
    outer loop
      vertex 40.5058 4.67747 -5.72806e-016
      vertex 37.695 8.54616 -1.04657e-015
      vertex 37.695 8.54617 5
    endloop
  endfacet
  facet normal 0.809017 0.587785 -7.19806e-017
    outer loop
      vertex 40.5058 4.67747 5
      vertex 40.5058 4.67747 -5.72806e-016
      vertex 37.695 8.54617 5
    endloop
  endfacet
  facet normal 0.5 0.866025 -1.06054e-016
    outer loop
      vertex 33.5537 10.9371 -1.33937e-015
      vertex 33.5537 10.9371 5
      vertex 37.695 8.54616 -1.04657e-015
    endloop
  endfacet
  facet normal 0.5 0.866025 -1.06054e-016
    outer loop
      vertex 37.695 8.54616 -1.04657e-015
      vertex 33.5537 10.9371 5
      vertex 37.695 8.54617 5
    endloop
  endfacet
  facet normal 0.104529 0.994522 -1.2179e-016
    outer loop
      vertex 28.7979 11.437 -1.40058e-015
      vertex 28.7979 11.437 5
      vertex 33.5537 10.9371 -1.33937e-015
    endloop
  endfacet
  facet normal 0.104529 0.994522 -1.2179e-016
    outer loop
      vertex 33.5537 10.9371 -1.33937e-015
      vertex 28.7979 11.437 5
      vertex 33.5537 10.9371 5
    endloop
  endfacet
  facet normal -0.309017 0.951057 -1.16467e-016
    outer loop
      vertex 24.25 9.95929 -1.21962e-015
      vertex 24.25 9.95929 5
      vertex 28.7979 11.437 -1.40058e-015
    endloop
  endfacet
  facet normal -0.309017 0.951057 -1.16467e-016
    outer loop
      vertex 28.7979 11.437 -1.40058e-015
      vertex 24.25 9.95929 5
      vertex 28.7979 11.437 5
    endloop
  endfacet
  facet normal -0.669131 0.743145 -9.1006e-017
    outer loop
      vertex 20.6963 6.75953 -8.27776e-016
      vertex 20.6963 6.75953 5
      vertex 24.25 9.95929 -1.21962e-015
    endloop
  endfacet
  facet normal -0.669131 0.743145 -9.1006e-017
    outer loop
      vertex 24.25 9.95929 -1.21962e-015
      vertex 20.6963 6.75953 5
      vertex 24.25 9.95929 5
    endloop
  endfacet
  facet normal -0.913545 0.406737 -4.98092e-017
    outer loop
      vertex 18.7513 2.39098 -2.92801e-016
      vertex 18.7513 2.39098 5
      vertex 20.6963 6.75953 -8.27776e-016
    endloop
  endfacet
  facet normal -0.913545 0.406737 -4.98092e-017
    outer loop
      vertex 20.6963 6.75953 -8.27776e-016
      vertex 18.7513 2.39098 5
      vertex 20.6963 6.75953 5
    endloop
  endfacet
  facet normal 0.913545 -0.406737 4.98092e-017
    outer loop
      vertex 28.5438 1.05801 -1.29565e-016
      vertex 28.5438 1.05801 2.46
      vertex 28.2393 0.374241 2.46
    endloop
  endfacet
  facet normal 0.913545 -0.406737 4.98092e-017
    outer loop
      vertex 28.2393 0.374241 -4.58298e-017
      vertex 28.5438 1.05801 -1.29565e-016
      vertex 28.2393 0.374241 2.46
    endloop
  endfacet
  facet normal 1 0 0
    outer loop
      vertex 28.2393 0.374241 -4.58298e-017
      vertex 28.2393 0.374241 2.46
      vertex 28.2393 -0.374241 2.46
    endloop
  endfacet
  facet normal 1 0 0
    outer loop
      vertex 28.2393 -0.374241 4.58298e-017
      vertex 28.2393 0.374241 -4.58298e-017
      vertex 28.2393 -0.374241 2.46
    endloop
  endfacet
  facet normal 0.669131 -0.743145 9.1006e-017
    outer loop
      vertex 29.1 1.55885 -1.90897e-016
      vertex 29.1 1.55885 2.46
      vertex 28.5438 1.05801 2.46
    endloop
  endfacet
  facet normal 0.669131 -0.743145 9.1006e-017
    outer loop
      vertex 28.5438 1.05801 -1.29565e-016
      vertex 29.1 1.55885 -1.90897e-016
      vertex 28.5438 1.05801 2.46
    endloop
  endfacet
  facet normal 0.309016 -0.951057 1.16467e-016
    outer loop
      vertex 29.8118 1.79014 -2.19222e-016
      vertex 29.8118 1.79014 2.46
      vertex 29.1 1.55885 2.46
    endloop
  endfacet
  facet normal 0.309016 -0.951057 1.16467e-016
    outer loop
      vertex 29.1 1.55885 -1.90897e-016
      vertex 29.8118 1.79014 -2.19222e-016
      vertex 29.1 1.55885 2.46
    endloop
  endfacet
  facet normal -0.104528 -0.994522 1.2179e-016
    outer loop
      vertex 30.5562 1.7119 -2.09641e-016
      vertex 30.5562 1.7119 2.46
      vertex 29.8118 1.79014 2.46
    endloop
  endfacet
  facet normal -0.104528 -0.994522 1.2179e-016
    outer loop
      vertex 29.8118 1.79014 -2.19222e-016
      vertex 30.5562 1.7119 -2.09641e-016
      vertex 29.8118 1.79014 2.46
    endloop
  endfacet
  facet normal -0.5 -0.866025 1.06054e-016
    outer loop
      vertex 31.2044 1.33766 -1.63811e-016
      vertex 31.2044 1.33766 2.46
      vertex 30.5562 1.7119 2.46
    endloop
  endfacet
  facet normal -0.5 -0.866025 1.06054e-016
    outer loop
      vertex 30.5562 1.7119 -2.09641e-016
      vertex 31.2044 1.33766 -1.63811e-016
      vertex 30.5562 1.7119 2.46
    endloop
  endfacet
  facet normal -0.809017 -0.587785 7.19806e-017
    outer loop
      vertex 31.6444 0.732126 2.46
      vertex 31.2044 1.33766 2.46
      vertex 31.6444 0.732126 -8.96566e-017
    endloop
  endfacet
  facet normal -0.809017 -0.587785 7.19806e-017
    outer loop
      vertex 31.6444 0.732126 -8.96566e-017
      vertex 31.2044 1.33766 2.46
      vertex 31.2044 1.33766 -1.63811e-016
    endloop
  endfacet
  facet normal -0.978148 -0.207911 2.5461e-017
    outer loop
      vertex 31.8 -3.1105e-016 2.46
      vertex 31.6444 0.732126 2.46
      vertex 31.8 -6.12303e-016 0
    endloop
  endfacet
  facet normal -0.978148 -0.207911 2.5461e-017
    outer loop
      vertex 31.8 -6.12303e-016 0
      vertex 31.6444 0.732126 2.46
      vertex 31.6444 0.732126 -8.96566e-017
    endloop
  endfacet
  facet normal -0.978148 0.207911 -2.5461e-017
    outer loop
      vertex 31.8 -3.1105e-016 2.46
      vertex 31.8 -6.12303e-016 0
      vertex 31.6444 -0.732126 2.46
    endloop
  endfacet
  facet normal -0.978148 0.207911 -2.5461e-017
    outer loop
      vertex 31.6444 -0.732126 2.46
      vertex 31.8 -6.12303e-016 0
      vertex 31.6444 -0.732126 8.96566e-017
    endloop
  endfacet
  facet normal -0.809017 0.587785 -7.19806e-017
    outer loop
      vertex 31.6444 -0.732126 2.46
      vertex 31.6444 -0.732126 8.96566e-017
      vertex 31.2044 -1.33766 2.46
    endloop
  endfacet
  facet normal -0.809017 0.587785 -7.19806e-017
    outer loop
      vertex 31.2044 -1.33766 2.46
      vertex 31.6444 -0.732126 8.96566e-017
      vertex 31.2044 -1.33766 1.63811e-016
    endloop
  endfacet
  facet normal -0.5 0.866025 -1.06054e-016
    outer loop
      vertex 31.2044 -1.33766 2.46
      vertex 31.2044 -1.33766 1.63811e-016
      vertex 30.5562 -1.7119 2.46
    endloop
  endfacet
  facet normal -0.5 0.866025 -1.06054e-016
    outer loop
      vertex 30.5562 -1.7119 2.46
      vertex 31.2044 -1.33766 1.63811e-016
      vertex 30.5562 -1.7119 2.09641e-016
    endloop
  endfacet
  facet normal -0.104528 0.994522 -1.2179e-016
    outer loop
      vertex 30.5562 -1.7119 2.46
      vertex 30.5562 -1.7119 2.09641e-016
      vertex 29.8118 -1.79014 2.46
    endloop
  endfacet
  facet normal -0.104528 0.994522 -1.2179e-016
    outer loop
      vertex 29.8118 -1.79014 2.46
      vertex 30.5562 -1.7119 2.09641e-016
      vertex 29.8118 -1.79014 2.19222e-016
    endloop
  endfacet
  facet normal 0.309016 0.951057 -1.16467e-016
    outer loop
      vertex 29.8118 -1.79014 2.46
      vertex 29.8118 -1.79014 2.19222e-016
      vertex 29.1 -1.55885 2.46
    endloop
  endfacet
  facet normal 0.309016 0.951057 -1.16467e-016
    outer loop
      vertex 29.1 -1.55885 2.46
      vertex 29.8118 -1.79014 2.19222e-016
      vertex 29.1 -1.55885 1.90897e-016
    endloop
  endfacet
  facet normal 0.669131 0.743145 -9.1006e-017
    outer loop
      vertex 29.1 -1.55885 2.46
      vertex 29.1 -1.55885 1.90897e-016
      vertex 28.5438 -1.05801 2.46
    endloop
  endfacet
  facet normal 0.669131 0.743145 -9.1006e-017
    outer loop
      vertex 28.5438 -1.05801 2.46
      vertex 29.1 -1.55885 1.90897e-016
      vertex 28.5438 -1.05801 1.29565e-016
    endloop
  endfacet
  facet normal 0.913545 0.406737 -4.98092e-017
    outer loop
      vertex 28.2393 -0.374241 2.46
      vertex 28.5438 -1.05801 2.46
      vertex 28.5438 -1.05801 1.29565e-016
    endloop
  endfacet
  facet normal 0.913545 0.406737 -4.98092e-017
    outer loop
      vertex 28.2393 -0.374241 4.58298e-017
      vertex 28.2393 -0.374241 2.46
      vertex 28.5438 -1.05801 1.29565e-016
    endloop
  endfacet
  facet normal 0 1.22461e-016 1
    outer loop
      vertex 18.7513 2.39098 5
      vertex 18.7513 -2.39098 5
      vertex 20.6963 -6.75953 5
    endloop
  endfacet
  facet normal 0 1.22461e-016 1
    outer loop
      vertex 28.7979 -11.437 5
      vertex 18.7513 2.39098 5
      vertex 24.25 -9.95929 5
    endloop
  endfacet
  facet normal 0 1.22461e-016 1
    outer loop
      vertex 24.25 -9.95929 5
      vertex 18.7513 2.39098 5
      vertex 20.6963 -6.75953 5
    endloop
  endfacet
  facet normal 0 1.22461e-016 1
    outer loop
      vertex 33.5537 -10.9371 5
      vertex 18.7513 2.39098 5
      vertex 28.7979 -11.437 5
    endloop
  endfacet
  facet normal 0 1.22461e-016 1
    outer loop
      vertex 37.695 -8.54617 5
      vertex 18.7513 2.39098 5
      vertex 33.5537 -10.9371 5
    endloop
  endfacet
  facet normal 0 1.22461e-016 1
    outer loop
      vertex 28.375 -2.81458 5
      vertex 18.7513 2.39098 5
      vertex 37.695 -8.54617 5
    endloop
  endfacet
  facet normal 0 1.22461e-016 1
    outer loop
      vertex 37.695 8.54617 5
      vertex 18.7513 2.39098 5
      vertex 40.5058 4.67747 5
    endloop
  endfacet
  facet normal 0 1.22461e-016 1
    outer loop
      vertex 33.5537 10.9371 5
      vertex 18.7513 2.39098 5
      vertex 37.695 8.54617 5
    endloop
  endfacet
  facet normal 0 1.22461e-016 1
    outer loop
      vertex 28.7979 11.437 5
      vertex 18.7513 2.39098 5
      vertex 33.5537 10.9371 5
    endloop
  endfacet
  facet normal 0 1.22461e-016 1
    outer loop
      vertex 24.25 9.95929 5
      vertex 18.7513 2.39098 5
      vertex 28.7979 11.437 5
    endloop
  endfacet
  facet normal 0 1.22461e-016 1
    outer loop
      vertex 20.6963 6.75953 5
      vertex 18.7513 2.39098 5
      vertex 24.25 9.95929 5
    endloop
  endfacet
  facet normal 0 1.22461e-016 1
    outer loop
      vertex 40.5058 -4.67747 5
      vertex 28.375 -2.81458 5
      vertex 37.695 -8.54617 5
    endloop
  endfacet
  facet normal 0 1.22461e-016 1
    outer loop
      vertex 26.75 0 5
      vertex 28.375 2.81458 5
      vertex 18.7513 2.39098 5
    endloop
  endfacet
  facet normal 0 1.22461e-016 1
    outer loop
      vertex 41.5 0 5
      vertex 33.25 0 5
      vertex 40.5058 -4.67747 5
    endloop
  endfacet
  facet normal 0 1.22461e-016 1
    outer loop
      vertex 33.25 0 5
      vertex 31.625 -2.81458 5
      vertex 40.5058 -4.67747 5
    endloop
  endfacet
  facet normal 0 1.22461e-016 1
    outer loop
      vertex 40.5058 4.67747 5
      vertex 18.7513 2.39098 5
      vertex 28.375 2.81458 5
    endloop
  endfacet
  facet normal 0 1.22461e-016 1
    outer loop
      vertex 40.5058 4.67747 5
      vertex 31.625 2.81458 5
      vertex 41.5 0 5
    endloop
  endfacet
  facet normal 0 1.22461e-016 1
    outer loop
      vertex 40.5058 4.67747 5
      vertex 28.375 2.81458 5
      vertex 31.625 2.81458 5
    endloop
  endfacet
  facet normal 0 1.22461e-016 1
    outer loop
      vertex 31.625 2.81458 5
      vertex 33.25 0 5
      vertex 41.5 0 5
    endloop
  endfacet
  facet normal 0 1.22461e-016 1
    outer loop
      vertex 40.5058 -4.67747 5
      vertex 31.625 -2.81458 5
      vertex 28.375 -2.81458 5
    endloop
  endfacet
  facet normal 0 1.22461e-016 1
    outer loop
      vertex 28.375 -2.81458 5
      vertex 26.75 0 5
      vertex 18.7513 2.39098 5
    endloop
  endfacet
  facet normal 0 1.22461e-016 1
    outer loop
      vertex 31.2044 -1.33766 2.46
      vertex 31.625 -2.81458 2.46
      vertex 33.25 -3.1105e-016 2.46
    endloop
  endfacet
  facet normal 0 1.22461e-016 1
    outer loop
      vertex 30.5562 -1.7119 2.46
      vertex 29.8118 -1.79014 2.46
      vertex 28.375 -2.81458 2.46
    endloop
  endfacet
  facet normal 0 1.22461e-016 1
    outer loop
      vertex 29.8118 1.79014 2.46
      vertex 30.5562 1.7119 2.46
      vertex 31.625 2.81458 2.46
    endloop
  endfacet
  facet normal 0 1.22461e-016 1
    outer loop
      vertex 26.75 -3.1105e-016 2.46
      vertex 28.2393 0.374241 2.46
      vertex 28.375 2.81458 2.46
    endloop
  endfacet
  facet normal 0 1.22461e-016 1
    outer loop
      vertex 28.375 2.81458 2.46
      vertex 29.1 1.55885 2.46
      vertex 31.625 2.81458 2.46
    endloop
  endfacet
  facet normal 0 1.22461e-016 1
    outer loop
      vertex 28.375 2.81458 2.46
      vertex 28.5438 1.05801 2.46
      vertex 29.1 1.55885 2.46
    endloop
  endfacet
  facet normal 0 1.22461e-016 1
    outer loop
      vertex 29.1 1.55885 2.46
      vertex 29.8118 1.79014 2.46
      vertex 31.625 2.81458 2.46
    endloop
  endfacet
  facet normal 0 1.22461e-016 1
    outer loop
      vertex 31.625 2.81458 2.46
      vertex 31.2044 1.33766 2.46
      vertex 33.25 -3.1105e-016 2.46
    endloop
  endfacet
  facet normal 0 1.22461e-016 1
    outer loop
      vertex 31.2044 1.33766 2.46
      vertex 31.6444 0.732126 2.46
      vertex 33.25 -3.1105e-016 2.46
    endloop
  endfacet
  facet normal 0 1.22461e-016 1
    outer loop
      vertex 29.1 -1.55885 2.46
      vertex 28.5438 -1.05801 2.46
      vertex 28.375 -2.81458 2.46
    endloop
  endfacet
  facet normal 0 1.22461e-016 1
    outer loop
      vertex 31.6444 0.732126 2.46
      vertex 31.8 -3.1105e-016 2.46
      vertex 33.25 -3.1105e-016 2.46
    endloop
  endfacet
  facet normal 0 1.22461e-016 1
    outer loop
      vertex 28.5438 -1.05801 2.46
      vertex 28.2393 -0.374241 2.46
      vertex 28.375 -2.81458 2.46
    endloop
  endfacet
  facet normal 0 1.22461e-016 1
    outer loop
      vertex 31.8 -3.1105e-016 2.46
      vertex 31.6444 -0.732126 2.46
      vertex 33.25 -3.1105e-016 2.46
    endloop
  endfacet
  facet normal 0 1.22461e-016 1
    outer loop
      vertex 30.5562 -1.7119 2.46
      vertex 31.625 -2.81458 2.46
      vertex 31.2044 -1.33766 2.46
    endloop
  endfacet
  facet normal 0 1.22461e-016 1
    outer loop
      vertex 28.375 -2.81458 2.46
      vertex 31.625 -2.81458 2.46
      vertex 30.5562 -1.7119 2.46
    endloop
  endfacet
  facet normal 0 1.22461e-016 1
    outer loop
      vertex 31.6444 -0.732126 2.46
      vertex 31.2044 -1.33766 2.46
      vertex 33.25 -3.1105e-016 2.46
    endloop
  endfacet
  facet normal 0 1.22461e-016 1
    outer loop
      vertex 26.75 -3.1105e-016 2.46
      vertex 28.2393 -0.374241 2.46
      vertex 28.2393 0.374241 2.46
    endloop
  endfacet
  facet normal 0 1.22461e-016 1
    outer loop
      vertex 26.75 -3.1105e-016 2.46
      vertex 28.375 -2.81458 2.46
      vertex 28.2393 -0.374241 2.46
    endloop
  endfacet
  facet normal 0 1.22461e-016 1
    outer loop
      vertex 28.2393 0.374241 2.46
      vertex 28.5438 1.05801 2.46
      vertex 28.375 2.81458 2.46
    endloop
  endfacet
  facet normal 0 1.22461e-016 1
    outer loop
      vertex 30.5562 1.7119 2.46
      vertex 31.2044 1.33766 2.46
      vertex 31.625 2.81458 2.46
    endloop
  endfacet
  facet normal 0 1.22461e-016 1
    outer loop
      vertex 29.8118 -1.79014 2.46
      vertex 29.1 -1.55885 2.46
      vertex 28.375 -2.81458 2.46
    endloop
  endfacet
  facet normal 0 1 -1.22461e-016
    outer loop
      vertex 31.625 -2.81458 5
      vertex 31.625 -2.81458 2.46
      vertex 28.375 -2.81458 5
    endloop
  endfacet
  facet normal 0 1 -1.22461e-016
    outer loop
      vertex 28.375 -2.81458 5
      vertex 31.625 -2.81458 2.46
      vertex 28.375 -2.81458 2.46
    endloop
  endfacet
  facet normal 0.866025 0.5 -6.12303e-017
    outer loop
      vertex 26.75 0 5
      vertex 28.375 -2.81458 5
      vertex 28.375 -2.81458 2.46
    endloop
  endfacet
  facet normal 0.866025 0.5 -6.12303e-017
    outer loop
      vertex 26.75 -3.1105e-016 2.46
      vertex 26.75 0 5
      vertex 28.375 -2.81458 2.46
    endloop
  endfacet
  facet normal -0.866025 0.5 -6.12303e-017
    outer loop
      vertex 33.25 0 5
      vertex 33.25 -3.1105e-016 2.46
      vertex 31.625 -2.81458 5
    endloop
  endfacet
  facet normal -0.866025 0.5 -6.12303e-017
    outer loop
      vertex 31.625 -2.81458 5
      vertex 33.25 -3.1105e-016 2.46
      vertex 31.625 -2.81458 2.46
    endloop
  endfacet
  facet normal -0.866025 -0.5 6.12303e-017
    outer loop
      vertex 33.25 0 5
      vertex 31.625 2.81458 5
      vertex 33.25 -3.1105e-016 2.46
    endloop
  endfacet
  facet normal -0.866025 -0.5 6.12303e-017
    outer loop
      vertex 33.25 -3.1105e-016 2.46
      vertex 31.625 2.81458 5
      vertex 31.625 2.81458 2.46
    endloop
  endfacet
  facet normal 0 -1 1.22461e-016
    outer loop
      vertex 31.625 2.81458 2.46
      vertex 31.625 2.81458 5
      vertex 28.375 2.81458 5
    endloop
  endfacet
  facet normal 0 -1 1.22461e-016
    outer loop
      vertex 28.375 2.81458 2.46
      vertex 31.625 2.81458 2.46
      vertex 28.375 2.81458 5
    endloop
  endfacet
  facet normal 0.866025 -0.5 6.12303e-017
    outer loop
      vertex 28.375 2.81458 2.46
      vertex 28.375 2.81458 5
      vertex 26.75 0 5
    endloop
  endfacet
  facet normal 0.866025 -0.5 6.12303e-017
    outer loop
      vertex 26.75 -3.1105e-016 2.46
      vertex 28.375 2.81458 2.46
      vertex 26.75 0 5
    endloop
  endfacet
endsolid OpenSCAD_Model
