solid OpenSCAD_Model
  facet normal -1.000000 -0.000000 -0.000000
    outer loop
      vertex -13.990000 3.000000 -0.000000
      vertex -13.990000 3.000000 3.500000
      vertex -13.990000 15.000000 -0.000000
    endloop
  endfacet
  facet normal -1.000000 0.000000 0.000000
    outer loop
      vertex -13.990000 15.000000 -0.000000
      vertex -13.990000 3.000000 3.500000
      vertex -13.990000 15.000000 3.500000
    endloop
  endfacet
  facet normal 0.000000 -1.000000 0.000000
    outer loop
      vertex -13.990000 3.000000 3.500000
      vertex -13.990000 3.000000 -0.000000
      vertex 0.000000 3.000000 -0.000000
    endloop
  endfacet
  facet normal 0.000000 -1.000000 0.000000
    outer loop
      vertex 0.000000 3.000000 3.500000
      vertex -13.990000 3.000000 3.500000
      vertex 0.000000 3.000000 -0.000000
    endloop
  endfacet
  facet normal -0.000000 -0.000000 -1.000000
    outer loop
      vertex -13.990000 3.000000 -0.000000
      vertex -13.990000 15.000000 -0.000000
      vertex 0.000000 3.000000 -0.000000
    endloop
  endfacet
  facet normal 0.000000 -0.000000 -1.000000
    outer loop
      vertex 0.000000 3.000000 -0.000000
      vertex -13.990000 15.000000 -0.000000
      vertex 15.000000 15.000000 -0.000000
    endloop
  endfacet
  facet normal 0.000000 -0.000000 -1.000000
    outer loop
      vertex 0.000000 3.000000 -0.000000
      vertex 15.000000 15.000000 -0.000000
      vertex 15.000000 -11.500000 0.000000
    endloop
  endfacet
  facet normal 0.000000 -0.000000 -1.000000
    outer loop
      vertex 0.000000 3.000000 -0.000000
      vertex 15.000000 -11.500000 0.000000
      vertex 0.000000 -11.500000 0.000000
    endloop
  endfacet
  facet normal 0.000000 1.000000 0.000000
    outer loop
      vertex -13.990000 15.000000 -0.000000
      vertex -13.990000 15.000000 3.500000
      vertex 15.000000 15.000000 -0.000000
    endloop
  endfacet
  facet normal 0.000000 1.000000 0.000000
    outer loop
      vertex 15.000000 15.000000 -0.000000
      vertex -13.990000 15.000000 3.500000
      vertex 0.000000 15.000000 3.500000
    endloop
  endfacet
  facet normal -0.000000 1.000000 0.000000
    outer loop
      vertex 5.700000 15.000000 11.000000
      vertex 0.000000 15.000000 3.500000
      vertex 0.000000 15.000000 18.500000
    endloop
  endfacet
  facet normal 0.000000 1.000000 0.000000
    outer loop
      vertex 8.400000 15.000000 12.558846
      vertex 0.000000 15.000000 18.500000
      vertex 15.000000 15.000000 18.500000
    endloop
  endfacet
  facet normal -0.000000 1.000000 0.000000
    outer loop
      vertex 5.855618 15.000000 10.267874
      vertex 0.000000 15.000000 3.500000
      vertex 5.700000 15.000000 11.000000
    endloop
  endfacet
  facet normal -0.000000 1.000000 -0.000000
    outer loop
      vertex 6.943769 15.000000 9.288098
      vertex 15.000000 15.000000 -0.000000
      vertex 6.295565 15.000000 9.662339
    endloop
  endfacet
  facet normal -0.000000 1.000000 0.000000
    outer loop
      vertex 6.295565 15.000000 9.662339
      vertex 0.000000 15.000000 3.500000
      vertex 5.855618 15.000000 10.267874
    endloop
  endfacet
  facet normal 0.000000 1.000000 0.000000
    outer loop
      vertex 15.000000 15.000000 -0.000000
      vertex 0.000000 15.000000 3.500000
      vertex 6.295565 15.000000 9.662339
    endloop
  endfacet
  facet normal -0.000000 1.000000 -0.000000
    outer loop
      vertex 7.688151 15.000000 9.209861
      vertex 15.000000 15.000000 -0.000000
      vertex 6.943769 15.000000 9.288098
    endloop
  endfacet
  facet normal 0.000000 1.000000 0.000000
    outer loop
      vertex 15.000000 15.000000 -0.000000
      vertex 7.688151 15.000000 9.209861
      vertex 8.400000 15.000000 9.441154
    endloop
  endfacet
  facet normal 0.000000 1.000000 0.000000
    outer loop
      vertex 15.000000 15.000000 -0.000000
      vertex 8.400000 15.000000 9.441154
      vertex 8.956231 15.000000 9.941987
    endloop
  endfacet
  facet normal 0.000000 1.000000 0.000000
    outer loop
      vertex 15.000000 15.000000 -0.000000
      vertex 8.956231 15.000000 9.941987
      vertex 15.000000 15.000000 18.500000
    endloop
  endfacet
  facet normal 0.000000 1.000000 -0.000000
    outer loop
      vertex 9.260666 15.000000 11.374241
      vertex 15.000000 15.000000 18.500000
      vertex 9.260666 15.000000 10.625759
    endloop
  endfacet
  facet normal 0.000000 1.000000 0.000000
    outer loop
      vertex 7.688151 15.000000 12.790139
      vertex 0.000000 15.000000 18.500000
      vertex 8.400000 15.000000 12.558846
    endloop
  endfacet
  facet normal 0.000000 1.000000 0.000000
    outer loop
      vertex 6.943769 15.000000 12.711902
      vertex 0.000000 15.000000 18.500000
      vertex 7.688151 15.000000 12.790139
    endloop
  endfacet
  facet normal 0.000000 1.000000 0.000000
    outer loop
      vertex 9.260666 15.000000 11.374241
      vertex 8.956231 15.000000 12.058013
      vertex 15.000000 15.000000 18.500000
    endloop
  endfacet
  facet normal 0.000000 1.000000 0.000000
    outer loop
      vertex 8.956231 15.000000 12.058013
      vertex 8.400000 15.000000 12.558846
      vertex 15.000000 15.000000 18.500000
    endloop
  endfacet
  facet normal 0.000000 1.000000 0.000000
    outer loop
      vertex 6.295565 15.000000 12.337661
      vertex 0.000000 15.000000 18.500000
      vertex 6.943769 15.000000 12.711902
    endloop
  endfacet
  facet normal 0.000000 1.000000 0.000000
    outer loop
      vertex 5.855618 15.000000 11.732126
      vertex 0.000000 15.000000 18.500000
      vertex 6.295565 15.000000 12.337661
    endloop
  endfacet
  facet normal 0.000000 1.000000 0.000000
    outer loop
      vertex 5.700000 15.000000 11.000000
      vertex 0.000000 15.000000 18.500000
      vertex 5.855618 15.000000 11.732126
    endloop
  endfacet
  facet normal 0.000000 1.000000 -0.000000
    outer loop
      vertex 9.260666 15.000000 10.625759
      vertex 15.000000 15.000000 18.500000
      vertex 8.956231 15.000000 9.941987
    endloop
  endfacet
  facet normal 0.000000 0.000000 1.000000
    outer loop
      vertex 0.000000 3.000000 3.500000
      vertex 0.020000 3.000000 3.500000
      vertex 0.020000 8.000000 3.500000
    endloop
  endfacet
  facet normal 0.000000 0.000000 1.000000
    outer loop
      vertex -13.990000 15.000000 3.500000
      vertex 0.000000 3.000000 3.500000
      vertex 0.000000 8.000000 3.500000
    endloop
  endfacet
  facet normal 0.000000 0.000000 1.000000
    outer loop
      vertex 0.000000 8.000000 3.500000
      vertex 0.000000 3.000000 3.500000
      vertex 0.020000 8.000000 3.500000
    endloop
  endfacet
  facet normal 0.000000 0.000000 1.000000
    outer loop
      vertex -13.990000 15.000000 3.500000
      vertex 0.000000 8.000000 3.500000
      vertex 0.000000 15.000000 3.500000
    endloop
  endfacet
  facet normal 0.000000 0.000000 1.000000
    outer loop
      vertex -13.990000 3.000000 3.500000
      vertex 0.000000 3.000000 3.500000
      vertex -13.990000 15.000000 3.500000
    endloop
  endfacet
  facet normal 0.000000 0.000000 1.000000
    outer loop
      vertex 15.000000 -8.200000 3.500000
      vertex 15.000000 8.000000 3.500000
      vertex 0.020000 8.000000 3.500000
    endloop
  endfacet
  facet normal 0.000000 0.000000 1.000000
    outer loop
      vertex 0.000000 3.000000 3.500000
      vertex 15.000000 -8.200000 3.500000
      vertex 0.020000 3.000000 3.500000
    endloop
  endfacet
  facet normal 0.000000 0.000000 1.000000
    outer loop
      vertex 0.020000 3.000000 3.500000
      vertex 15.000000 -8.200000 3.500000
      vertex 0.020000 8.000000 3.500000
    endloop
  endfacet
  facet normal 0.000000 0.000000 1.000000
    outer loop
      vertex 0.000000 -8.200000 3.500000
      vertex 15.000000 -8.200000 3.500000
      vertex 0.000000 3.000000 3.500000
    endloop
  endfacet
  facet normal -1.000000 0.000000 0.000000
    outer loop
      vertex 0.000000 3.000000 3.500000
      vertex 0.000000 3.000000 -0.000000
      vertex 0.000000 -8.200000 3.500000
    endloop
  endfacet
  facet normal -1.000000 0.000000 0.000000
    outer loop
      vertex 0.000000 -11.500000 0.000000
      vertex 0.000000 -11.500000 18.500000
      vertex 0.000000 -8.200000 3.500000
    endloop
  endfacet
  facet normal -1.000000 -0.000000 0.000000
    outer loop
      vertex 0.000000 -11.500000 0.000000
      vertex 0.000000 -8.200000 3.500000
      vertex 0.000000 3.000000 -0.000000
    endloop
  endfacet
  facet normal -1.000000 0.000000 0.000000
    outer loop
      vertex 0.000000 -8.200000 3.500000
      vertex 0.000000 -11.500000 18.500000
      vertex 0.000000 -8.200000 18.500000
    endloop
  endfacet
  facet normal 0.000000 -1.000000 0.000000
    outer loop
      vertex 0.000000 -11.500000 18.500000
      vertex 0.000000 -11.500000 0.000000
      vertex 15.000000 -11.500000 0.000000
    endloop
  endfacet
  facet normal 0.000000 -1.000000 0.000000
    outer loop
      vertex 15.000000 -11.500000 18.500000
      vertex 0.000000 -11.500000 18.500000
      vertex 15.000000 -11.500000 0.000000
    endloop
  endfacet
  facet normal 1.000000 0.000000 -0.000000
    outer loop
      vertex 15.000000 8.000000 3.500000
      vertex 15.000000 -11.500000 0.000000
      vertex 15.000000 15.000000 -0.000000
    endloop
  endfacet
  facet normal 1.000000 0.000000 0.000000
    outer loop
      vertex 15.000000 -8.200000 3.500000
      vertex 15.000000 -8.200000 18.500000
      vertex 15.000000 -11.500000 18.500000
    endloop
  endfacet
  facet normal 1.000000 0.000000 0.000000
    outer loop
      vertex 15.000000 15.000000 18.500000
      vertex 15.000000 8.000000 18.500000
      vertex 15.000000 15.000000 -0.000000
    endloop
  endfacet
  facet normal 1.000000 0.000000 -0.000000
    outer loop
      vertex 15.000000 -8.200000 3.500000
      vertex 15.000000 -11.500000 0.000000
      vertex 15.000000 8.000000 3.500000
    endloop
  endfacet
  facet normal 1.000000 0.000000 -0.000000
    outer loop
      vertex 15.000000 -11.500000 18.500000
      vertex 15.000000 -11.500000 0.000000
      vertex 15.000000 -8.200000 3.500000
    endloop
  endfacet
  facet normal 1.000000 0.000000 -0.000000
    outer loop
      vertex 15.000000 8.000000 18.500000
      vertex 15.000000 8.000000 3.500000
      vertex 15.000000 15.000000 -0.000000
    endloop
  endfacet
  facet normal 0.000000 -0.000000 1.000000
    outer loop
      vertex 0.000000 15.000000 18.500000
      vertex 0.000000 8.000000 18.500000
      vertex 15.000000 8.000000 18.500000
    endloop
  endfacet
  facet normal 0.000000 0.000000 1.000000
    outer loop
      vertex 15.000000 15.000000 18.500000
      vertex 0.000000 15.000000 18.500000
      vertex 15.000000 8.000000 18.500000
    endloop
  endfacet
  facet normal -1.000000 -0.000000 -0.000000
    outer loop
      vertex 0.000000 8.000000 3.500000
      vertex 0.000000 8.000000 18.500000
      vertex 0.000000 15.000000 3.500000
    endloop
  endfacet
  facet normal -1.000000 0.000000 0.000000
    outer loop
      vertex 0.000000 15.000000 3.500000
      vertex 0.000000 8.000000 18.500000
      vertex 0.000000 15.000000 18.500000
    endloop
  endfacet
  facet normal 0.978148 -0.000000 0.207911
    outer loop
      vertex 5.855618 10.540000 10.267874
      vertex 5.855618 15.000000 10.267874
      vertex 5.700000 15.000000 11.000000
    endloop
  endfacet
  facet normal 0.978148 -0.000000 0.207911
    outer loop
      vertex 5.700000 10.540000 11.000000
      vertex 5.855618 10.540000 10.267874
      vertex 5.700000 15.000000 11.000000
    endloop
  endfacet
  facet normal 0.978148 -0.000000 -0.207911
    outer loop
      vertex 5.700000 15.000000 11.000000
      vertex 5.855618 15.000000 11.732126
      vertex 5.855618 10.540000 11.732126
    endloop
  endfacet
  facet normal 0.978148 -0.000000 -0.207911
    outer loop
      vertex 5.700000 10.540000 11.000000
      vertex 5.700000 15.000000 11.000000
      vertex 5.855618 10.540000 11.732126
    endloop
  endfacet
  facet normal 0.809017 -0.000000 -0.587785
    outer loop
      vertex 5.855618 15.000000 11.732126
      vertex 6.295565 15.000000 12.337661
      vertex 6.295565 10.540000 12.337661
    endloop
  endfacet
  facet normal 0.809017 -0.000000 -0.587785
    outer loop
      vertex 5.855618 10.540000 11.732126
      vertex 5.855618 15.000000 11.732126
      vertex 6.295565 10.540000 12.337661
    endloop
  endfacet
  facet normal 0.500000 -0.000000 -0.866025
    outer loop
      vertex 6.943769 15.000000 12.711902
      vertex 6.943769 10.540000 12.711902
      vertex 6.295565 15.000000 12.337661
    endloop
  endfacet
  facet normal 0.500000 -0.000000 -0.866025
    outer loop
      vertex 6.295565 15.000000 12.337661
      vertex 6.943769 10.540000 12.711902
      vertex 6.295565 10.540000 12.337661
    endloop
  endfacet
  facet normal 0.104528 0.000000 -0.994522
    outer loop
      vertex 7.688151 15.000000 12.790139
      vertex 7.688151 10.540000 12.790139
      vertex 6.943769 15.000000 12.711902
    endloop
  endfacet
  facet normal 0.104528 -0.000000 -0.994522
    outer loop
      vertex 6.943769 15.000000 12.711902
      vertex 7.688151 10.540000 12.790139
      vertex 6.943769 10.540000 12.711902
    endloop
  endfacet
  facet normal -0.309016 -0.000000 -0.951057
    outer loop
      vertex 8.400000 15.000000 12.558846
      vertex 8.400000 10.540000 12.558846
      vertex 7.688151 15.000000 12.790139
    endloop
  endfacet
  facet normal -0.309016 0.000000 -0.951057
    outer loop
      vertex 7.688151 15.000000 12.790139
      vertex 8.400000 10.540000 12.558846
      vertex 7.688151 10.540000 12.790139
    endloop
  endfacet
  facet normal -0.669131 -0.000000 -0.743145
    outer loop
      vertex 8.956231 15.000000 12.058013
      vertex 8.956231 10.540000 12.058013
      vertex 8.400000 15.000000 12.558846
    endloop
  endfacet
  facet normal -0.669131 -0.000000 -0.743145
    outer loop
      vertex 8.400000 15.000000 12.558846
      vertex 8.956231 10.540000 12.058013
      vertex 8.400000 10.540000 12.558846
    endloop
  endfacet
  facet normal -0.913545 0.000000 -0.406737
    outer loop
      vertex 9.260666 15.000000 11.374241
      vertex 9.260666 10.540000 11.374241
      vertex 8.956231 15.000000 12.058013
    endloop
  endfacet
  facet normal -0.913545 0.000000 -0.406737
    outer loop
      vertex 8.956231 15.000000 12.058013
      vertex 9.260666 10.540000 11.374241
      vertex 8.956231 10.540000 12.058013
    endloop
  endfacet
  facet normal -1.000000 0.000000 0.000000
    outer loop
      vertex 9.260666 15.000000 11.374241
      vertex 9.260666 15.000000 10.625759
      vertex 9.260666 10.540000 11.374241
    endloop
  endfacet
  facet normal -1.000000 0.000000 0.000000
    outer loop
      vertex 9.260666 10.540000 11.374241
      vertex 9.260666 15.000000 10.625759
      vertex 9.260666 10.540000 10.625759
    endloop
  endfacet
  facet normal -0.913545 0.000000 0.406737
    outer loop
      vertex 9.260666 15.000000 10.625759
      vertex 8.956231 15.000000 9.941987
      vertex 9.260666 10.540000 10.625759
    endloop
  endfacet
  facet normal -0.913545 0.000000 0.406737
    outer loop
      vertex 9.260666 10.540000 10.625759
      vertex 8.956231 15.000000 9.941987
      vertex 8.956231 10.540000 9.941987
    endloop
  endfacet
  facet normal -0.669131 0.000000 0.743145
    outer loop
      vertex 8.956231 10.540000 9.941987
      vertex 8.956231 15.000000 9.941987
      vertex 8.400000 15.000000 9.441154
    endloop
  endfacet
  facet normal -0.669131 0.000000 0.743145
    outer loop
      vertex 8.400000 10.540000 9.441154
      vertex 8.956231 10.540000 9.941987
      vertex 8.400000 15.000000 9.441154
    endloop
  endfacet
  facet normal -0.309016 0.000000 0.951057
    outer loop
      vertex 8.400000 10.540000 9.441154
      vertex 8.400000 15.000000 9.441154
      vertex 7.688151 15.000000 9.209861
    endloop
  endfacet
  facet normal -0.309016 0.000000 0.951057
    outer loop
      vertex 7.688151 10.540000 9.209861
      vertex 8.400000 10.540000 9.441154
      vertex 7.688151 15.000000 9.209861
    endloop
  endfacet
  facet normal 0.104528 0.000000 0.994522
    outer loop
      vertex 7.688151 10.540000 9.209861
      vertex 7.688151 15.000000 9.209861
      vertex 6.943769 15.000000 9.288098
    endloop
  endfacet
  facet normal 0.104528 -0.000000 0.994522
    outer loop
      vertex 6.943769 10.540000 9.288098
      vertex 7.688151 10.540000 9.209861
      vertex 6.943769 15.000000 9.288098
    endloop
  endfacet
  facet normal 0.500000 -0.000000 0.866025
    outer loop
      vertex 6.943769 10.540000 9.288098
      vertex 6.943769 15.000000 9.288098
      vertex 6.295565 15.000000 9.662339
    endloop
  endfacet
  facet normal 0.500000 0.000000 0.866025
    outer loop
      vertex 6.295565 10.540000 9.662339
      vertex 6.943769 10.540000 9.288098
      vertex 6.295565 15.000000 9.662339
    endloop
  endfacet
  facet normal 0.809017 0.000000 0.587785
    outer loop
      vertex 6.295565 10.540000 9.662339
      vertex 6.295565 15.000000 9.662339
      vertex 5.855618 15.000000 10.267874
    endloop
  endfacet
  facet normal 0.809017 -0.000000 0.587785
    outer loop
      vertex 5.855618 10.540000 10.267874
      vertex 6.295565 10.540000 9.662339
      vertex 5.855618 15.000000 10.267874
    endloop
  endfacet
  facet normal -0.000000 -1.000000 0.000000
    outer loop
      vertex 10.750000 8.000000 11.000000
      vertex 15.000000 8.000000 3.500000
      vertex 15.000000 8.000000 18.500000
    endloop
  endfacet
  facet normal -0.000000 -1.000000 -0.000000
    outer loop
      vertex 0.000000 8.000000 3.500000
      vertex 0.020000 8.000000 3.500000
      vertex 0.000000 8.000000 18.500000
    endloop
  endfacet
  facet normal -0.000000 -1.000000 0.000000
    outer loop
      vertex 5.875000 8.000000 13.814583
      vertex 9.125000 8.000000 13.814583
      vertex 15.000000 8.000000 18.500000
    endloop
  endfacet
  facet normal -0.000000 -1.000000 0.000000
    outer loop
      vertex 9.125000 8.000000 13.814583
      vertex 10.750000 8.000000 11.000000
      vertex 15.000000 8.000000 18.500000
    endloop
  endfacet
  facet normal 0.000000 -1.000000 0.000000
    outer loop
      vertex 0.000000 8.000000 18.500000
      vertex 0.020000 8.000000 3.500000
      vertex 4.250000 8.000000 11.000000
    endloop
  endfacet
  facet normal 0.000000 -1.000000 0.000000
    outer loop
      vertex 0.000000 8.000000 18.500000
      vertex 5.875000 8.000000 13.814583
      vertex 15.000000 8.000000 18.500000
    endloop
  endfacet
  facet normal 0.000000 -1.000000 0.000000
    outer loop
      vertex 0.000000 8.000000 18.500000
      vertex 4.250000 8.000000 11.000000
      vertex 5.875000 8.000000 13.814583
    endloop
  endfacet
  facet normal -0.000000 -1.000000 0.000000
    outer loop
      vertex 9.125000 8.000000 8.185417
      vertex 15.000000 8.000000 3.500000
      vertex 10.750000 8.000000 11.000000
    endloop
  endfacet
  facet normal -0.000000 -1.000000 0.000000
    outer loop
      vertex 0.020000 8.000000 3.500000
      vertex 15.000000 8.000000 3.500000
      vertex 9.125000 8.000000 8.185417
    endloop
  endfacet
  facet normal 0.000000 -1.000000 0.000000
    outer loop
      vertex 9.125000 8.000000 8.185417
      vertex 5.875000 8.000000 8.185417
      vertex 0.020000 8.000000 3.500000
    endloop
  endfacet
  facet normal 0.000000 -1.000000 0.000000
    outer loop
      vertex 5.875000 8.000000 8.185417
      vertex 4.250000 8.000000 11.000000
      vertex 0.020000 8.000000 3.500000
    endloop
  endfacet
  facet normal 0.000000 1.000000 0.000000
    outer loop
      vertex 15.000000 -8.200000 18.500000
      vertex 15.000000 -8.200000 3.500000
      vertex 0.000000 -8.200000 18.500000
    endloop
  endfacet
  facet normal 0.000000 1.000000 -0.000000
    outer loop
      vertex 0.000000 -8.200000 18.500000
      vertex 15.000000 -8.200000 3.500000
      vertex 0.000000 -8.200000 3.500000
    endloop
  endfacet
  facet normal 0.000000 -0.000000 1.000000
    outer loop
      vertex 0.000000 -8.200000 18.500000
      vertex 0.000000 -11.500000 18.500000
      vertex 15.000000 -11.500000 18.500000
    endloop
  endfacet
  facet normal 0.000000 0.000000 1.000000
    outer loop
      vertex 15.000000 -8.200000 18.500000
      vertex 0.000000 -8.200000 18.500000
      vertex 15.000000 -11.500000 18.500000
    endloop
  endfacet
  facet normal -0.000000 -1.000000 0.000000
    outer loop
      vertex 8.956231 10.540000 9.941987
      vertex 9.125000 10.540000 8.185417
      vertex 10.750000 10.540000 11.000000
    endloop
  endfacet
  facet normal -0.000000 -1.000000 0.000000
    outer loop
      vertex 9.260666 10.540000 10.625759
      vertex 8.956231 10.540000 9.941987
      vertex 10.750000 10.540000 11.000000
    endloop
  endfacet
  facet normal 0.000000 -1.000000 0.000000
    outer loop
      vertex 6.943769 10.540000 12.711902
      vertex 7.688151 10.540000 12.790139
      vertex 9.125000 10.540000 13.814583
    endloop
  endfacet
  facet normal -0.000000 -1.000000 0.000000
    outer loop
      vertex 4.250000 10.540000 11.000000
      vertex 5.700000 10.540000 11.000000
      vertex 5.875000 10.540000 13.814583
    endloop
  endfacet
  facet normal 0.000000 -1.000000 0.000000
    outer loop
      vertex 4.250000 10.540000 11.000000
      vertex 5.875000 10.540000 8.185417
      vertex 5.700000 10.540000 11.000000
    endloop
  endfacet
  facet normal 0.000000 -1.000000 0.000000
    outer loop
      vertex 5.700000 10.540000 11.000000
      vertex 5.855618 10.540000 11.732126
      vertex 5.875000 10.540000 13.814583
    endloop
  endfacet
  facet normal -0.000000 -1.000000 0.000000
    outer loop
      vertex 8.400000 10.540000 12.558846
      vertex 8.956231 10.540000 12.058013
      vertex 9.125000 10.540000 13.814583
    endloop
  endfacet
  facet normal -0.000000 -1.000000 0.000000
    outer loop
      vertex 5.875000 10.540000 13.814583
      vertex 6.943769 10.540000 12.711902
      vertex 9.125000 10.540000 13.814583
    endloop
  endfacet
  facet normal -0.000000 -1.000000 -0.000000
    outer loop
      vertex 5.875000 10.540000 13.814583
      vertex 6.295565 10.540000 12.337661
      vertex 6.943769 10.540000 12.711902
    endloop
  endfacet
  facet normal 0.000000 -1.000000 0.000000
    outer loop
      vertex 6.295565 10.540000 9.662339
      vertex 5.855618 10.540000 10.267874
      vertex 5.875000 10.540000 8.185417
    endloop
  endfacet
  facet normal -0.000000 -1.000000 0.000000
    outer loop
      vertex 7.688151 10.540000 12.790139
      vertex 8.400000 10.540000 12.558846
      vertex 9.125000 10.540000 13.814583
    endloop
  endfacet
  facet normal 0.000000 -1.000000 0.000000
    outer loop
      vertex 9.125000 10.540000 13.814583
      vertex 8.956231 10.540000 12.058013
      vertex 10.750000 10.540000 11.000000
    endloop
  endfacet
  facet normal 0.000000 -1.000000 0.000000
    outer loop
      vertex 8.956231 10.540000 12.058013
      vertex 9.260666 10.540000 11.374241
      vertex 10.750000 10.540000 11.000000
    endloop
  endfacet
  facet normal 0.000000 -1.000000 0.000000
    outer loop
      vertex 9.260666 10.540000 11.374241
      vertex 9.260666 10.540000 10.625759
      vertex 10.750000 10.540000 11.000000
    endloop
  endfacet
  facet normal -0.000000 -1.000000 0.000000
    outer loop
      vertex 8.400000 10.540000 9.441154
      vertex 9.125000 10.540000 8.185417
      vertex 8.956231 10.540000 9.941987
    endloop
  endfacet
  facet normal -0.000000 -1.000000 0.000000
    outer loop
      vertex 5.875000 10.540000 8.185417
      vertex 9.125000 10.540000 8.185417
      vertex 8.400000 10.540000 9.441154
    endloop
  endfacet
  facet normal 0.000000 -1.000000 0.000000
    outer loop
      vertex 6.943769 10.540000 9.288098
      vertex 6.295565 10.540000 9.662339
      vertex 5.875000 10.540000 8.185417
    endloop
  endfacet
  facet normal 0.000000 -1.000000 0.000000
    outer loop
      vertex 5.875000 10.540000 8.185417
      vertex 8.400000 10.540000 9.441154
      vertex 7.688151 10.540000 9.209861
    endloop
  endfacet
  facet normal -0.000000 -1.000000 -0.000000
    outer loop
      vertex 5.700000 10.540000 11.000000
      vertex 5.875000 10.540000 8.185417
      vertex 5.855618 10.540000 10.267874
    endloop
  endfacet
  facet normal 0.000000 -1.000000 0.000000
    outer loop
      vertex 5.855618 10.540000 11.732126
      vertex 6.295565 10.540000 12.337661
      vertex 5.875000 10.540000 13.814583
    endloop
  endfacet
  facet normal 0.000000 -1.000000 0.000000
    outer loop
      vertex 7.688151 10.540000 9.209861
      vertex 6.943769 10.540000 9.288098
      vertex 5.875000 10.540000 8.185417
    endloop
  endfacet
  facet normal 0.866025 0.000000 -0.500000
    outer loop
      vertex 4.250000 10.540000 11.000000
      vertex 5.875000 10.540000 13.814583
      vertex 5.875000 8.000000 13.814583
    endloop
  endfacet
  facet normal 0.866025 0.000000 -0.500000
    outer loop
      vertex 4.250000 8.000000 11.000000
      vertex 4.250000 10.540000 11.000000
      vertex 5.875000 8.000000 13.814583
    endloop
  endfacet
  facet normal 0.866025 0.000000 0.500000
    outer loop
      vertex 5.875000 8.000000 8.185417
      vertex 5.875000 10.540000 8.185417
      vertex 4.250000 10.540000 11.000000
    endloop
  endfacet
  facet normal 0.866025 0.000000 0.500000
    outer loop
      vertex 4.250000 8.000000 11.000000
      vertex 5.875000 8.000000 8.185417
      vertex 4.250000 10.540000 11.000000
    endloop
  endfacet
  facet normal 0.000000 0.000000 1.000000
    outer loop
      vertex 9.125000 8.000000 8.185417
      vertex 9.125000 10.540000 8.185417
      vertex 5.875000 10.540000 8.185417
    endloop
  endfacet
  facet normal 0.000000 0.000000 1.000000
    outer loop
      vertex 5.875000 8.000000 8.185417
      vertex 9.125000 8.000000 8.185417
      vertex 5.875000 10.540000 8.185417
    endloop
  endfacet
  facet normal -0.866025 0.000000 0.500000
    outer loop
      vertex 10.750000 10.540000 11.000000
      vertex 9.125000 10.540000 8.185417
      vertex 10.750000 8.000000 11.000000
    endloop
  endfacet
  facet normal -0.866025 0.000000 0.500000
    outer loop
      vertex 10.750000 8.000000 11.000000
      vertex 9.125000 10.540000 8.185417
      vertex 9.125000 8.000000 8.185417
    endloop
  endfacet
  facet normal -0.866025 0.000000 -0.500000
    outer loop
      vertex 10.750000 10.540000 11.000000
      vertex 10.750000 8.000000 11.000000
      vertex 9.125000 10.540000 13.814583
    endloop
  endfacet
  facet normal -0.866025 0.000000 -0.500000
    outer loop
      vertex 9.125000 10.540000 13.814583
      vertex 10.750000 8.000000 11.000000
      vertex 9.125000 8.000000 13.814583
    endloop
  endfacet
  facet normal 0.000000 0.000000 -1.000000
    outer loop
      vertex 9.125000 10.540000 13.814583
      vertex 9.125000 8.000000 13.814583
      vertex 5.875000 10.540000 13.814583
    endloop
  endfacet
  facet normal 0.000000 0.000000 -1.000000
    outer loop
      vertex 5.875000 10.540000 13.814583
      vertex 9.125000 8.000000 13.814583
      vertex 5.875000 8.000000 13.814583
    endloop
  endfacet
  facet normal -1.000000 -0.000000 0.000000
    outer loop
      vertex -25.990000 3.000000 -0.000000
      vertex -25.990000 3.000000 15.500000
      vertex -25.990000 15.000000 -0.000000
    endloop
  endfacet
  facet normal -1.000000 0.000000 0.000000
    outer loop
      vertex -25.990000 15.000000 -0.000000
      vertex -25.990000 3.000000 15.500000
      vertex -25.990000 15.000000 15.500000
    endloop
  endfacet
  facet normal 0.000000 -1.000000 0.000000
    outer loop
      vertex -20.890000 3.000000 7.941154
      vertex -25.990000 3.000000 -0.000000
      vertex -13.990000 3.000000 -0.000000
    endloop
  endfacet
  facet normal -0.000000 -1.000000 0.000000
    outer loop
      vertex -25.990000 3.000000 15.500000
      vertex -25.990000 3.000000 -0.000000
      vertex -21.750666 3.000000 9.125759
    endloop
  endfacet
  facet normal -0.000000 -1.000000 0.000000
    outer loop
      vertex -20.890000 3.000000 11.058846
      vertex -20.178151 3.000000 11.290139
      vertex -13.990000 3.000000 15.500000
    endloop
  endfacet
  facet normal -0.000000 -1.000000 0.000000
    outer loop
      vertex -25.990000 3.000000 15.500000
      vertex -21.750666 3.000000 9.125759
      vertex -21.750666 3.000000 9.874241
    endloop
  endfacet
  facet normal -0.000000 -1.000000 0.000000
    outer loop
      vertex -20.890000 3.000000 11.058846
      vertex -25.990000 3.000000 15.500000
      vertex -21.446231 3.000000 10.558013
    endloop
  endfacet
  facet normal 0.000000 -1.000000 0.000000
    outer loop
      vertex -13.990000 3.000000 15.500000
      vertex -25.990000 3.000000 15.500000
      vertex -20.890000 3.000000 11.058846
    endloop
  endfacet
  facet normal -0.000000 -1.000000 0.000000
    outer loop
      vertex -18.345618 3.000000 8.767874
      vertex -18.785565 3.000000 8.162339
      vertex -13.990000 3.000000 -0.000000
    endloop
  endfacet
  facet normal 0.000000 -1.000000 0.000000
    outer loop
      vertex -13.990000 3.000000 15.500000
      vertex -20.178151 3.000000 11.290139
      vertex -19.433769 3.000000 11.211902
    endloop
  endfacet
  facet normal -0.000000 -1.000000 0.000000
    outer loop
      vertex -19.433769 3.000000 7.788098
      vertex -20.178151 3.000000 7.709861
      vertex -13.990000 3.000000 -0.000000
    endloop
  endfacet
  facet normal 0.000000 -1.000000 0.000000
    outer loop
      vertex -13.990000 3.000000 15.500000
      vertex -19.433769 3.000000 11.211902
      vertex -18.785565 3.000000 10.837661
    endloop
  endfacet
  facet normal 0.000000 -1.000000 0.000000
    outer loop
      vertex -13.990000 3.000000 15.500000
      vertex -18.345618 3.000000 10.232126
      vertex -13.990000 3.000000 -0.000000
    endloop
  endfacet
  facet normal 0.000000 -1.000000 0.000000
    outer loop
      vertex -13.990000 3.000000 15.500000
      vertex -18.785565 3.000000 10.837661
      vertex -18.345618 3.000000 10.232126
    endloop
  endfacet
  facet normal -0.000000 -1.000000 -0.000000
    outer loop
      vertex -18.345618 3.000000 10.232126
      vertex -18.190000 3.000000 9.500000
      vertex -13.990000 3.000000 -0.000000
    endloop
  endfacet
  facet normal -0.000000 -1.000000 0.000000
    outer loop
      vertex -18.785565 3.000000 8.162339
      vertex -19.433769 3.000000 7.788098
      vertex -13.990000 3.000000 -0.000000
    endloop
  endfacet
  facet normal 0.000000 -1.000000 0.000000
    outer loop
      vertex -21.446231 3.000000 8.441987
      vertex -25.990000 3.000000 -0.000000
      vertex -20.890000 3.000000 7.941154
    endloop
  endfacet
  facet normal 0.000000 -1.000000 0.000000
    outer loop
      vertex -21.750666 3.000000 9.125759
      vertex -25.990000 3.000000 -0.000000
      vertex -21.446231 3.000000 8.441987
    endloop
  endfacet
  facet normal 0.000000 -1.000000 0.000000
    outer loop
      vertex -20.178151 3.000000 7.709861
      vertex -20.890000 3.000000 7.941154
      vertex -13.990000 3.000000 -0.000000
    endloop
  endfacet
  facet normal -0.000000 -1.000000 0.000000
    outer loop
      vertex -21.750666 3.000000 9.874241
      vertex -21.446231 3.000000 10.558013
      vertex -25.990000 3.000000 15.500000
    endloop
  endfacet
  facet normal -0.000000 -1.000000 0.000000
    outer loop
      vertex -18.190000 3.000000 9.500000
      vertex -18.345618 3.000000 8.767874
      vertex -13.990000 3.000000 -0.000000
    endloop
  endfacet
  facet normal -0.000000 -0.000000 -1.000000
    outer loop
      vertex -25.990000 3.000000 -0.000000
      vertex -25.990000 15.000000 -0.000000
      vertex -13.990000 3.000000 -0.000000
    endloop
  endfacet
  facet normal 0.000000 -0.000000 -1.000000
    outer loop
      vertex -13.990000 3.000000 -0.000000
      vertex -25.990000 15.000000 -0.000000
      vertex -13.990000 15.000000 -0.000000
    endloop
  endfacet
  facet normal 0.000000 1.000000 -0.000000
    outer loop
      vertex -18.365000 15.000000 6.685417
      vertex -13.990000 15.000000 -0.000000
      vertex -21.615000 15.000000 6.685417
    endloop
  endfacet
  facet normal 0.000000 1.000000 0.000000
    outer loop
      vertex -18.365000 15.000000 12.314583
      vertex -25.990000 15.000000 15.500000
      vertex -13.990000 15.000000 15.500000
    endloop
  endfacet
  facet normal 0.000000 1.000000 0.000000
    outer loop
      vertex -25.990000 15.000000 -0.000000
      vertex -25.990000 15.000000 15.500000
      vertex -23.240000 15.000000 9.500000
    endloop
  endfacet
  facet normal 0.000000 1.000000 0.000000
    outer loop
      vertex -25.990000 15.000000 -0.000000
      vertex -23.240000 15.000000 9.500000
      vertex -21.615000 15.000000 6.685417
    endloop
  endfacet
  facet normal 0.000000 1.000000 0.000000
    outer loop
      vertex -25.990000 15.000000 -0.000000
      vertex -21.615000 15.000000 6.685417
      vertex -13.990000 15.000000 -0.000000
    endloop
  endfacet
  facet normal 0.000000 1.000000 0.000000
    outer loop
      vertex -13.990000 15.000000 -0.000000
      vertex -18.365000 15.000000 6.685417
      vertex -16.740000 15.000000 9.500000
    endloop
  endfacet
  facet normal 0.000000 1.000000 0.000000
    outer loop
      vertex -13.990000 15.000000 -0.000000
      vertex -16.740000 15.000000 9.500000
      vertex -13.990000 15.000000 15.500000
    endloop
  endfacet
  facet normal 0.000000 1.000000 0.000000
    outer loop
      vertex -21.615000 15.000000 12.314583
      vertex -25.990000 15.000000 15.500000
      vertex -18.365000 15.000000 12.314583
    endloop
  endfacet
  facet normal 0.000000 1.000000 0.000000
    outer loop
      vertex -23.240000 15.000000 9.500000
      vertex -25.990000 15.000000 15.500000
      vertex -21.615000 15.000000 12.314583
    endloop
  endfacet
  facet normal 0.000000 1.000000 0.000000
    outer loop
      vertex -18.365000 15.000000 12.314583
      vertex -13.990000 15.000000 15.500000
      vertex -16.740000 15.000000 9.500000
    endloop
  endfacet
  facet normal 0.000000 -0.000000 1.000000
    outer loop
      vertex -25.990000 15.000000 15.500000
      vertex -25.990000 3.000000 15.500000
      vertex -13.990000 3.000000 15.500000
    endloop
  endfacet
  facet normal 0.000000 0.000000 1.000000
    outer loop
      vertex -13.990000 15.000000 15.500000
      vertex -25.990000 15.000000 15.500000
      vertex -13.990000 3.000000 15.500000
    endloop
  endfacet
  facet normal 1.000000 0.000000 -0.000000
    outer loop
      vertex -13.990000 3.000000 15.500000
      vertex -13.990000 3.000000 -0.000000
      vertex -13.990000 15.000000 -0.000000
    endloop
  endfacet
  facet normal 1.000000 0.000000 0.000000
    outer loop
      vertex -13.990000 15.000000 15.500000
      vertex -13.990000 3.000000 15.500000
      vertex -13.990000 15.000000 -0.000000
    endloop
  endfacet
  facet normal 0.913545 0.000000 0.406737
    outer loop
      vertex -21.446231 3.000000 8.441987
      vertex -21.446231 12.460000 8.441987
      vertex -21.750666 12.460000 9.125759
    endloop
  endfacet
  facet normal 0.913545 0.000000 0.406737
    outer loop
      vertex -21.750666 3.000000 9.125759
      vertex -21.446231 3.000000 8.441987
      vertex -21.750666 12.460000 9.125759
    endloop
  endfacet
  facet normal 1.000000 0.000000 0.000000
    outer loop
      vertex -21.750666 12.460000 9.125759
      vertex -21.750666 12.460000 9.874241
      vertex -21.750666 3.000000 9.874241
    endloop
  endfacet
  facet normal 1.000000 0.000000 0.000000
    outer loop
      vertex -21.750666 3.000000 9.125759
      vertex -21.750666 12.460000 9.125759
      vertex -21.750666 3.000000 9.874241
    endloop
  endfacet
  facet normal 0.669131 0.000000 0.743145
    outer loop
      vertex -20.890000 3.000000 7.941154
      vertex -20.890000 12.460000 7.941154
      vertex -21.446231 12.460000 8.441987
    endloop
  endfacet
  facet normal 0.669131 0.000000 0.743145
    outer loop
      vertex -21.446231 3.000000 8.441987
      vertex -20.890000 3.000000 7.941154
      vertex -21.446231 12.460000 8.441987
    endloop
  endfacet
  facet normal 0.309016 0.000000 0.951057
    outer loop
      vertex -20.178151 3.000000 7.709861
      vertex -20.178151 12.460000 7.709861
      vertex -20.890000 12.460000 7.941154
    endloop
  endfacet
  facet normal 0.309016 0.000000 0.951057
    outer loop
      vertex -20.890000 3.000000 7.941154
      vertex -20.178151 3.000000 7.709861
      vertex -20.890000 12.460000 7.941154
    endloop
  endfacet
  facet normal -0.104528 0.000000 0.994522
    outer loop
      vertex -19.433769 3.000000 7.788098
      vertex -19.433769 12.460000 7.788098
      vertex -20.178151 12.460000 7.709861
    endloop
  endfacet
  facet normal -0.104528 0.000000 0.994522
    outer loop
      vertex -20.178151 3.000000 7.709861
      vertex -19.433769 3.000000 7.788098
      vertex -20.178151 12.460000 7.709861
    endloop
  endfacet
  facet normal -0.500000 0.000000 0.866025
    outer loop
      vertex -18.785565 3.000000 8.162339
      vertex -18.785565 12.460000 8.162339
      vertex -19.433769 12.460000 7.788098
    endloop
  endfacet
  facet normal -0.500000 0.000000 0.866025
    outer loop
      vertex -19.433769 3.000000 7.788098
      vertex -18.785565 3.000000 8.162339
      vertex -19.433769 12.460000 7.788098
    endloop
  endfacet
  facet normal -0.809017 0.000000 0.587785
    outer loop
      vertex -18.345618 12.460000 8.767874
      vertex -18.785565 12.460000 8.162339
      vertex -18.345618 3.000000 8.767874
    endloop
  endfacet
  facet normal -0.809017 0.000000 0.587785
    outer loop
      vertex -18.345618 3.000000 8.767874
      vertex -18.785565 12.460000 8.162339
      vertex -18.785565 3.000000 8.162339
    endloop
  endfacet
  facet normal -0.978148 0.000000 0.207911
    outer loop
      vertex -18.190000 12.460000 9.500000
      vertex -18.345618 12.460000 8.767874
      vertex -18.190000 3.000000 9.500000
    endloop
  endfacet
  facet normal -0.978148 0.000000 0.207911
    outer loop
      vertex -18.190000 3.000000 9.500000
      vertex -18.345618 12.460000 8.767874
      vertex -18.345618 3.000000 8.767874
    endloop
  endfacet
  facet normal -0.978148 0.000000 -0.207911
    outer loop
      vertex -18.190000 12.460000 9.500000
      vertex -18.190000 3.000000 9.500000
      vertex -18.345618 12.460000 10.232126
    endloop
  endfacet
  facet normal -0.978148 0.000000 -0.207911
    outer loop
      vertex -18.345618 12.460000 10.232126
      vertex -18.190000 3.000000 9.500000
      vertex -18.345618 3.000000 10.232126
    endloop
  endfacet
  facet normal -0.809017 0.000000 -0.587785
    outer loop
      vertex -18.345618 12.460000 10.232126
      vertex -18.345618 3.000000 10.232126
      vertex -18.785565 12.460000 10.837661
    endloop
  endfacet
  facet normal -0.809017 0.000000 -0.587785
    outer loop
      vertex -18.785565 12.460000 10.837661
      vertex -18.345618 3.000000 10.232126
      vertex -18.785565 3.000000 10.837661
    endloop
  endfacet
  facet normal -0.500000 0.000000 -0.866025
    outer loop
      vertex -18.785565 12.460000 10.837661
      vertex -18.785565 3.000000 10.837661
      vertex -19.433769 12.460000 11.211902
    endloop
  endfacet
  facet normal -0.500000 0.000000 -0.866025
    outer loop
      vertex -19.433769 12.460000 11.211902
      vertex -18.785565 3.000000 10.837661
      vertex -19.433769 3.000000 11.211902
    endloop
  endfacet
  facet normal -0.104528 0.000000 -0.994522
    outer loop
      vertex -19.433769 12.460000 11.211902
      vertex -19.433769 3.000000 11.211902
      vertex -20.178151 12.460000 11.290139
    endloop
  endfacet
  facet normal -0.104528 0.000000 -0.994522
    outer loop
      vertex -20.178151 12.460000 11.290139
      vertex -19.433769 3.000000 11.211902
      vertex -20.178151 3.000000 11.290139
    endloop
  endfacet
  facet normal 0.309016 0.000000 -0.951057
    outer loop
      vertex -20.178151 12.460000 11.290139
      vertex -20.178151 3.000000 11.290139
      vertex -20.890000 12.460000 11.058846
    endloop
  endfacet
  facet normal 0.309016 0.000000 -0.951057
    outer loop
      vertex -20.890000 12.460000 11.058846
      vertex -20.178151 3.000000 11.290139
      vertex -20.890000 3.000000 11.058846
    endloop
  endfacet
  facet normal 0.669131 0.000000 -0.743145
    outer loop
      vertex -20.890000 12.460000 11.058846
      vertex -20.890000 3.000000 11.058846
      vertex -21.446231 12.460000 10.558013
    endloop
  endfacet
  facet normal 0.669131 0.000000 -0.743145
    outer loop
      vertex -21.446231 12.460000 10.558013
      vertex -20.890000 3.000000 11.058846
      vertex -21.446231 3.000000 10.558013
    endloop
  endfacet
  facet normal 0.913545 0.000000 -0.406737
    outer loop
      vertex -21.750666 12.460000 9.874241
      vertex -21.446231 12.460000 10.558013
      vertex -21.446231 3.000000 10.558013
    endloop
  endfacet
  facet normal 0.913545 -0.000000 -0.406737
    outer loop
      vertex -21.750666 3.000000 9.874241
      vertex -21.750666 12.460000 9.874241
      vertex -21.446231 3.000000 10.558013
    endloop
  endfacet
  facet normal 0.866025 0.000000 0.500000
    outer loop
      vertex -21.615000 12.460000 6.685417
      vertex -21.615000 15.000000 6.685417
      vertex -23.240000 15.000000 9.500000
    endloop
  endfacet
  facet normal 0.866025 0.000000 0.500000
    outer loop
      vertex -23.240000 12.460000 9.500000
      vertex -21.615000 12.460000 6.685417
      vertex -23.240000 15.000000 9.500000
    endloop
  endfacet
  facet normal 0.866025 -0.000000 -0.500000
    outer loop
      vertex -23.240000 15.000000 9.500000
      vertex -21.615000 15.000000 12.314583
      vertex -21.615000 12.460000 12.314583
    endloop
  endfacet
  facet normal 0.866025 0.000000 -0.500000
    outer loop
      vertex -23.240000 12.460000 9.500000
      vertex -23.240000 15.000000 9.500000
      vertex -21.615000 12.460000 12.314583
    endloop
  endfacet
  facet normal 0.000000 -0.000000 -1.000000
    outer loop
      vertex -18.365000 15.000000 12.314583
      vertex -18.365000 12.460000 12.314583
      vertex -21.615000 15.000000 12.314583
    endloop
  endfacet
  facet normal 0.000000 -0.000000 -1.000000
    outer loop
      vertex -21.615000 15.000000 12.314583
      vertex -18.365000 12.460000 12.314583
      vertex -21.615000 12.460000 12.314583
    endloop
  endfacet
  facet normal -0.866025 0.000000 -0.500000
    outer loop
      vertex -16.740000 15.000000 9.500000
      vertex -16.740000 12.460000 9.500000
      vertex -18.365000 15.000000 12.314583
    endloop
  endfacet
  facet normal -0.866025 -0.000000 -0.500000
    outer loop
      vertex -18.365000 15.000000 12.314583
      vertex -16.740000 12.460000 9.500000
      vertex -18.365000 12.460000 12.314583
    endloop
  endfacet
  facet normal -0.866025 0.000000 0.500000
    outer loop
      vertex -16.740000 15.000000 9.500000
      vertex -18.365000 15.000000 6.685417
      vertex -16.740000 12.460000 9.500000
    endloop
  endfacet
  facet normal -0.866025 0.000000 0.500000
    outer loop
      vertex -16.740000 12.460000 9.500000
      vertex -18.365000 15.000000 6.685417
      vertex -18.365000 12.460000 6.685417
    endloop
  endfacet
  facet normal 0.000000 0.000000 1.000000
    outer loop
      vertex -18.365000 12.460000 6.685417
      vertex -18.365000 15.000000 6.685417
      vertex -21.615000 15.000000 6.685417
    endloop
  endfacet
  facet normal 0.000000 0.000000 1.000000
    outer loop
      vertex -21.615000 12.460000 6.685417
      vertex -18.365000 12.460000 6.685417
      vertex -21.615000 15.000000 6.685417
    endloop
  endfacet
  facet normal 0.000000 1.000000 0.000000
    outer loop
      vertex -20.178151 12.460000 11.290139
      vertex -21.615000 12.460000 12.314583
      vertex -19.433769 12.460000 11.211902
    endloop
  endfacet
  facet normal 0.000000 1.000000 0.000000
    outer loop
      vertex -18.785565 12.460000 8.162339
      vertex -16.740000 12.460000 9.500000
      vertex -18.365000 12.460000 6.685417
    endloop
  endfacet
  facet normal 0.000000 1.000000 -0.000000
    outer loop
      vertex -20.890000 12.460000 7.941154
      vertex -18.365000 12.460000 6.685417
      vertex -21.615000 12.460000 6.685417
    endloop
  endfacet
  facet normal -0.000000 1.000000 -0.000000
    outer loop
      vertex -21.750666 12.460000 9.125759
      vertex -21.615000 12.460000 6.685417
      vertex -23.240000 12.460000 9.500000
    endloop
  endfacet
  facet normal 0.000000 1.000000 0.000000
    outer loop
      vertex -21.750666 12.460000 9.874241
      vertex -21.750666 12.460000 9.125759
      vertex -23.240000 12.460000 9.500000
    endloop
  endfacet
  facet normal 0.000000 1.000000 -0.000000
    outer loop
      vertex -18.785565 12.460000 8.162339
      vertex -18.365000 12.460000 6.685417
      vertex -19.433769 12.460000 7.788098
    endloop
  endfacet
  facet normal 0.000000 1.000000 -0.000000
    outer loop
      vertex -19.433769 12.460000 7.788098
      vertex -18.365000 12.460000 6.685417
      vertex -20.178151 12.460000 7.709861
    endloop
  endfacet
  facet normal -0.000000 1.000000 -0.000000
    outer loop
      vertex -20.178151 12.460000 7.709861
      vertex -18.365000 12.460000 6.685417
      vertex -20.890000 12.460000 7.941154
    endloop
  endfacet
  facet normal 0.000000 1.000000 -0.000000
    outer loop
      vertex -21.446231 12.460000 8.441987
      vertex -20.890000 12.460000 7.941154
      vertex -21.615000 12.460000 6.685417
    endloop
  endfacet
  facet normal 0.000000 1.000000 -0.000000
    outer loop
      vertex -18.345618 12.460000 8.767874
      vertex -16.740000 12.460000 9.500000
      vertex -18.785565 12.460000 8.162339
    endloop
  endfacet
  facet normal 0.000000 1.000000 0.000000
    outer loop
      vertex -18.785565 12.460000 10.837661
      vertex -16.740000 12.460000 9.500000
      vertex -18.345618 12.460000 10.232126
    endloop
  endfacet
  facet normal 0.000000 1.000000 -0.000000
    outer loop
      vertex -18.190000 12.460000 9.500000
      vertex -16.740000 12.460000 9.500000
      vertex -18.345618 12.460000 8.767874
    endloop
  endfacet
  facet normal 0.000000 1.000000 0.000000
    outer loop
      vertex -18.345618 12.460000 10.232126
      vertex -16.740000 12.460000 9.500000
      vertex -18.190000 12.460000 9.500000
    endloop
  endfacet
  facet normal 0.000000 1.000000 -0.000000
    outer loop
      vertex -18.365000 12.460000 12.314583
      vertex -16.740000 12.460000 9.500000
      vertex -18.785565 12.460000 10.837661
    endloop
  endfacet
  facet normal 0.000000 1.000000 0.000000
    outer loop
      vertex -18.365000 12.460000 12.314583
      vertex -18.785565 12.460000 10.837661
      vertex -19.433769 12.460000 11.211902
    endloop
  endfacet
  facet normal 0.000000 1.000000 0.000000
    outer loop
      vertex -18.365000 12.460000 12.314583
      vertex -19.433769 12.460000 11.211902
      vertex -21.615000 12.460000 12.314583
    endloop
  endfacet
  facet normal 0.000000 1.000000 0.000000
    outer loop
      vertex -20.890000 12.460000 11.058846
      vertex -21.615000 12.460000 12.314583
      vertex -20.178151 12.460000 11.290139
    endloop
  endfacet
  facet normal 0.000000 1.000000 0.000000
    outer loop
      vertex -21.446231 12.460000 10.558013
      vertex -21.615000 12.460000 12.314583
      vertex -20.890000 12.460000 11.058846
    endloop
  endfacet
  facet normal 0.000000 1.000000 0.000000
    outer loop
      vertex -21.750666 12.460000 9.874241
      vertex -21.615000 12.460000 12.314583
      vertex -21.446231 12.460000 10.558013
    endloop
  endfacet
  facet normal 0.000000 1.000000 0.000000
    outer loop
      vertex -21.615000 12.460000 12.314583
      vertex -21.750666 12.460000 9.874241
      vertex -23.240000 12.460000 9.500000
    endloop
  endfacet
  facet normal -0.000000 1.000000 0.000000
    outer loop
      vertex -21.446231 12.460000 8.441987
      vertex -21.615000 12.460000 6.685417
      vertex -21.750666 12.460000 9.125759
    endloop
  endfacet
  facet normal 0.000000 -0.000000 -1.000000
    outer loop
      vertex 18.751303 -2.390984 0.000000
      vertex 18.751303 2.390984 -0.000000
      vertex 20.696305 -6.759530 0.000000
    endloop
  endfacet
  facet normal 0.000000 -0.000000 -1.000000
    outer loop
      vertex 20.696305 -6.759530 0.000000
      vertex 18.751303 2.390984 -0.000000
      vertex 20.696305 6.759530 -0.000000
    endloop
  endfacet
  facet normal -0.000000 -0.000000 -1.000000
    outer loop
      vertex 20.696305 -6.759530 0.000000
      vertex 20.696305 6.759530 -0.000000
      vertex 24.250000 9.959292 -0.000000
    endloop
  endfacet
  facet normal 0.000000 -0.000000 -1.000000
    outer loop
      vertex 20.696305 -6.759530 0.000000
      vertex 24.250000 9.959292 -0.000000
      vertex 28.797923 11.437002 -0.000000
    endloop
  endfacet
  facet normal -0.000000 -0.000000 -1.000000
    outer loop
      vertex 20.696305 -6.759530 0.000000
      vertex 28.797923 11.437002 -0.000000
      vertex 33.553695 10.937150 -0.000000
    endloop
  endfacet
  facet normal 0.000000 -0.000000 -1.000000
    outer loop
      vertex 29.811849 1.790139 -0.000000
      vertex 33.553695 10.937150 -0.000000
      vertex 37.695002 8.546165 -0.000000
    endloop
  endfacet
  facet normal -0.000000 -0.000000 -1.000000
    outer loop
      vertex 31.204435 1.337661 -0.000000
      vertex 37.695002 8.546165 -0.000000
      vertex 40.505773 4.677471 -0.000000
    endloop
  endfacet
  facet normal -0.000000 -0.000000 -1.000000
    outer loop
      vertex 31.204435 -1.337661 0.000000
      vertex 40.505773 4.677471 -0.000000
      vertex 41.500000 -0.000000 0.000000
    endloop
  endfacet
  facet normal 0.000000 -0.000000 -1.000000
    outer loop
      vertex 20.696305 -6.759530 0.000000
      vertex 41.500000 -0.000000 0.000000
      vertex 40.505773 -4.677471 0.000000
    endloop
  endfacet
  facet normal -0.000000 -0.000000 -1.000000
    outer loop
      vertex 20.696305 -6.759530 0.000000
      vertex 40.505773 -4.677471 0.000000
      vertex 37.695002 -8.546165 0.000000
    endloop
  endfacet
  facet normal -0.000000 -0.000000 -1.000000
    outer loop
      vertex 20.696305 -6.759530 0.000000
      vertex 37.695002 -8.546165 0.000000
      vertex 33.553695 -10.937150 0.000000
    endloop
  endfacet
  facet normal -0.000000 -0.000000 -1.000000
    outer loop
      vertex 20.696305 -6.759530 0.000000
      vertex 33.553695 -10.937150 0.000000
      vertex 28.797923 -11.437002 0.000000
    endloop
  endfacet
  facet normal -0.000000 -0.000000 -1.000000
    outer loop
      vertex 20.696305 -6.759530 0.000000
      vertex 28.797923 -11.437002 0.000000
      vertex 24.250000 -9.959292 0.000000
    endloop
  endfacet
  facet normal -0.000000 -0.000000 -1.000000
    outer loop
      vertex 29.811849 -1.790139 0.000000
      vertex 20.696305 -6.759530 0.000000
      vertex 29.100000 -1.558846 0.000000
    endloop
  endfacet
  facet normal 0.000000 -0.000000 -1.000000
    outer loop
      vertex 20.696305 -6.759530 0.000000
      vertex 28.239334 -0.374241 0.000000
      vertex 28.543769 -1.058013 0.000000
    endloop
  endfacet
  facet normal -0.000000 -0.000000 -1.000000
    outer loop
      vertex 20.696305 -6.759530 0.000000
      vertex 28.543769 -1.058013 0.000000
      vertex 29.100000 -1.558846 0.000000
    endloop
  endfacet
  facet normal -0.000000 -0.000000 -1.000000
    outer loop
      vertex 31.204435 -1.337661 0.000000
      vertex 41.500000 -0.000000 0.000000
      vertex 30.556231 -1.711902 0.000000
    endloop
  endfacet
  facet normal 0.000000 -0.000000 -1.000000
    outer loop
      vertex 20.696305 -6.759530 0.000000
      vertex 29.811849 -1.790139 0.000000
      vertex 30.556231 -1.711902 0.000000
    endloop
  endfacet
  facet normal 0.000000 -0.000000 -1.000000
    outer loop
      vertex 20.696305 -6.759530 0.000000
      vertex 30.556231 -1.711902 0.000000
      vertex 41.500000 -0.000000 0.000000
    endloop
  endfacet
  facet normal 0.000000 -0.000000 -1.000000
    outer loop
      vertex 31.644382 -0.732126 0.000000
      vertex 40.505773 4.677471 -0.000000
      vertex 31.204435 -1.337661 0.000000
    endloop
  endfacet
  facet normal 0.000000 -0.000000 -1.000000
    outer loop
      vertex 31.800000 -0.000000 0.000000
      vertex 40.505773 4.677471 -0.000000
      vertex 31.644382 -0.732126 0.000000
    endloop
  endfacet
  facet normal 0.000000 -0.000000 -1.000000
    outer loop
      vertex 31.644382 0.732126 -0.000000
      vertex 40.505773 4.677471 -0.000000
      vertex 31.800000 -0.000000 0.000000
    endloop
  endfacet
  facet normal -0.000000 -0.000000 -1.000000
    outer loop
      vertex 31.204435 1.337661 -0.000000
      vertex 40.505773 4.677471 -0.000000
      vertex 31.644382 0.732126 -0.000000
    endloop
  endfacet
  facet normal -0.000000 -0.000000 -1.000000
    outer loop
      vertex 30.556231 1.711902 -0.000000
      vertex 37.695002 8.546165 -0.000000
      vertex 31.204435 1.337661 -0.000000
    endloop
  endfacet
  facet normal -0.000000 -0.000000 -1.000000
    outer loop
      vertex 29.811849 1.790139 -0.000000
      vertex 37.695002 8.546165 -0.000000
      vertex 30.556231 1.711902 -0.000000
    endloop
  endfacet
  facet normal 0.000000 -0.000000 -1.000000
    outer loop
      vertex 29.100000 1.558846 -0.000000
      vertex 33.553695 10.937150 -0.000000
      vertex 29.811849 1.790139 -0.000000
    endloop
  endfacet
  facet normal 0.000000 -0.000000 -1.000000
    outer loop
      vertex 28.543769 1.058013 -0.000000
      vertex 33.553695 10.937150 -0.000000
      vertex 29.100000 1.558846 -0.000000
    endloop
  endfacet
  facet normal 0.000000 -0.000000 -1.000000
    outer loop
      vertex 20.696305 -6.759530 0.000000
      vertex 33.553695 10.937150 -0.000000
      vertex 28.543769 1.058013 -0.000000
    endloop
  endfacet
  facet normal -0.000000 -0.000000 -1.000000
    outer loop
      vertex 20.696305 -6.759530 0.000000
      vertex 28.543769 1.058013 -0.000000
      vertex 28.239334 0.374241 -0.000000
    endloop
  endfacet
  facet normal -0.000000 -0.000000 -1.000000
    outer loop
      vertex 28.239334 -0.374241 0.000000
      vertex 20.696305 -6.759530 0.000000
      vertex 28.239334 0.374241 -0.000000
    endloop
  endfacet
  facet normal -1.000000 -0.000000 0.000000
    outer loop
      vertex 18.751303 -2.390984 0.000000
      vertex 18.751303 -2.390984 5.000000
      vertex 18.751303 2.390984 -0.000000
    endloop
  endfacet
  facet normal -1.000000 0.000000 -0.000000
    outer loop
      vertex 18.751303 2.390984 -0.000000
      vertex 18.751303 -2.390984 5.000000
      vertex 18.751303 2.390984 5.000000
    endloop
  endfacet
  facet normal -0.913545 -0.406737 0.000000
    outer loop
      vertex 18.751303 -2.390984 0.000000
      vertex 20.696305 -6.759530 0.000000
      vertex 18.751303 -2.390984 5.000000
    endloop
  endfacet
  facet normal -0.913545 -0.406737 0.000000
    outer loop
      vertex 18.751303 -2.390984 5.000000
      vertex 20.696305 -6.759530 0.000000
      vertex 20.696305 -6.759530 5.000000
    endloop
  endfacet
  facet normal -0.669131 -0.743145 0.000000
    outer loop
      vertex 20.696305 -6.759530 5.000000
      vertex 20.696305 -6.759530 0.000000
      vertex 24.250000 -9.959292 0.000000
    endloop
  endfacet
  facet normal -0.669131 -0.743145 0.000000
    outer loop
      vertex 24.250000 -9.959292 5.000000
      vertex 20.696305 -6.759530 5.000000
      vertex 24.250000 -9.959292 0.000000
    endloop
  endfacet
  facet normal -0.309017 -0.951057 0.000000
    outer loop
      vertex 24.250000 -9.959292 5.000000
      vertex 24.250000 -9.959292 0.000000
      vertex 28.797923 -11.437002 0.000000
    endloop
  endfacet
  facet normal -0.309017 -0.951057 0.000000
    outer loop
      vertex 28.797923 -11.437002 5.000000
      vertex 24.250000 -9.959292 5.000000
      vertex 28.797923 -11.437002 0.000000
    endloop
  endfacet
  facet normal 0.104529 -0.994522 0.000000
    outer loop
      vertex 28.797923 -11.437002 5.000000
      vertex 28.797923 -11.437002 0.000000
      vertex 33.553695 -10.937150 0.000000
    endloop
  endfacet
  facet normal 0.104529 -0.994522 0.000000
    outer loop
      vertex 33.553695 -10.937150 5.000000
      vertex 28.797923 -11.437002 5.000000
      vertex 33.553695 -10.937150 0.000000
    endloop
  endfacet
  facet normal 0.500000 -0.866025 0.000000
    outer loop
      vertex 33.553695 -10.937150 5.000000
      vertex 33.553695 -10.937150 0.000000
      vertex 37.695002 -8.546165 0.000000
    endloop
  endfacet
  facet normal 0.500000 -0.866025 0.000000
    outer loop
      vertex 37.695002 -8.546165 5.000000
      vertex 33.553695 -10.937150 5.000000
      vertex 37.695002 -8.546165 0.000000
    endloop
  endfacet
  facet normal 0.809017 -0.587785 0.000000
    outer loop
      vertex 37.695002 -8.546165 5.000000
      vertex 37.695002 -8.546165 0.000000
      vertex 40.505773 -4.677471 0.000000
    endloop
  endfacet
  facet normal 0.809017 -0.587785 0.000000
    outer loop
      vertex 40.505773 -4.677471 5.000000
      vertex 37.695002 -8.546165 5.000000
      vertex 40.505773 -4.677471 0.000000
    endloop
  endfacet
  facet normal 0.978148 -0.207912 0.000000
    outer loop
      vertex 40.505773 -4.677471 5.000000
      vertex 40.505773 -4.677471 0.000000
      vertex 41.500000 -0.000000 0.000000
    endloop
  endfacet
  facet normal 0.978148 -0.207912 0.000000
    outer loop
      vertex 41.500000 0.000000 5.000000
      vertex 40.505773 -4.677471 5.000000
      vertex 41.500000 -0.000000 0.000000
    endloop
  endfacet
  facet normal 0.978148 0.207912 -0.000000
    outer loop
      vertex 41.500000 -0.000000 0.000000
      vertex 40.505773 4.677471 -0.000000
      vertex 40.505773 4.677471 5.000000
    endloop
  endfacet
  facet normal 0.978148 0.207912 -0.000000
    outer loop
      vertex 41.500000 0.000000 5.000000
      vertex 41.500000 -0.000000 0.000000
      vertex 40.505773 4.677471 5.000000
    endloop
  endfacet
  facet normal 0.809017 0.587785 -0.000000
    outer loop
      vertex 40.505773 4.677471 -0.000000
      vertex 37.695002 8.546165 -0.000000
      vertex 37.695002 8.546165 5.000000
    endloop
  endfacet
  facet normal 0.809017 0.587785 -0.000000
    outer loop
      vertex 40.505773 4.677471 5.000000
      vertex 40.505773 4.677471 -0.000000
      vertex 37.695002 8.546165 5.000000
    endloop
  endfacet
  facet normal 0.500000 0.866025 -0.000000
    outer loop
      vertex 33.553695 10.937150 -0.000000
      vertex 33.553695 10.937150 5.000000
      vertex 37.695002 8.546165 -0.000000
    endloop
  endfacet
  facet normal 0.500000 0.866025 -0.000000
    outer loop
      vertex 37.695002 8.546165 -0.000000
      vertex 33.553695 10.937150 5.000000
      vertex 37.695002 8.546165 5.000000
    endloop
  endfacet
  facet normal 0.104529 0.994522 -0.000000
    outer loop
      vertex 28.797923 11.437002 -0.000000
      vertex 28.797923 11.437002 5.000000
      vertex 33.553695 10.937150 -0.000000
    endloop
  endfacet
  facet normal 0.104529 0.994522 -0.000000
    outer loop
      vertex 33.553695 10.937150 -0.000000
      vertex 28.797923 11.437002 5.000000
      vertex 33.553695 10.937150 5.000000
    endloop
  endfacet
  facet normal -0.309017 0.951057 -0.000000
    outer loop
      vertex 24.250000 9.959292 -0.000000
      vertex 24.250000 9.959292 5.000000
      vertex 28.797923 11.437002 -0.000000
    endloop
  endfacet
  facet normal -0.309017 0.951057 -0.000000
    outer loop
      vertex 28.797923 11.437002 -0.000000
      vertex 24.250000 9.959292 5.000000
      vertex 28.797923 11.437002 5.000000
    endloop
  endfacet
  facet normal -0.669131 0.743145 -0.000000
    outer loop
      vertex 20.696305 6.759530 -0.000000
      vertex 20.696305 6.759530 5.000000
      vertex 24.250000 9.959292 -0.000000
    endloop
  endfacet
  facet normal -0.669131 0.743145 -0.000000
    outer loop
      vertex 24.250000 9.959292 -0.000000
      vertex 20.696305 6.759530 5.000000
      vertex 24.250000 9.959292 5.000000
    endloop
  endfacet
  facet normal -0.913545 0.406737 -0.000000
    outer loop
      vertex 18.751303 2.390984 -0.000000
      vertex 18.751303 2.390984 5.000000
      vertex 20.696305 6.759530 -0.000000
    endloop
  endfacet
  facet normal -0.913545 0.406737 -0.000000
    outer loop
      vertex 20.696305 6.759530 -0.000000
      vertex 18.751303 2.390984 5.000000
      vertex 20.696305 6.759530 5.000000
    endloop
  endfacet
  facet normal 1.000000 0.000000 0.000000
    outer loop
      vertex 28.239334 0.374241 -0.000000
      vertex 28.239334 0.374241 2.460000
      vertex 28.239334 -0.374241 2.460000
    endloop
  endfacet
  facet normal 1.000000 0.000000 0.000000
    outer loop
      vertex 28.239334 -0.374241 0.000000
      vertex 28.239334 0.374241 -0.000000
      vertex 28.239334 -0.374241 2.460000
    endloop
  endfacet
  facet normal 0.913545 -0.406737 0.000000
    outer loop
      vertex 28.543769 1.058013 -0.000000
      vertex 28.543769 1.058013 2.460000
      vertex 28.239334 0.374241 2.460000
    endloop
  endfacet
  facet normal 0.913545 -0.406737 0.000000
    outer loop
      vertex 28.239334 0.374241 -0.000000
      vertex 28.543769 1.058013 -0.000000
      vertex 28.239334 0.374241 2.460000
    endloop
  endfacet
  facet normal 0.669131 -0.743145 0.000000
    outer loop
      vertex 29.100000 1.558846 -0.000000
      vertex 29.100000 1.558846 2.460000
      vertex 28.543769 1.058013 2.460000
    endloop
  endfacet
  facet normal 0.669131 -0.743145 0.000000
    outer loop
      vertex 28.543769 1.058013 -0.000000
      vertex 29.100000 1.558846 -0.000000
      vertex 28.543769 1.058013 2.460000
    endloop
  endfacet
  facet normal 0.309016 -0.951057 0.000000
    outer loop
      vertex 29.811849 1.790139 -0.000000
      vertex 29.811849 1.790139 2.460000
      vertex 29.100000 1.558846 2.460000
    endloop
  endfacet
  facet normal 0.309016 -0.951057 0.000000
    outer loop
      vertex 29.100000 1.558846 -0.000000
      vertex 29.811849 1.790139 -0.000000
      vertex 29.100000 1.558846 2.460000
    endloop
  endfacet
  facet normal -0.104528 -0.994522 0.000000
    outer loop
      vertex 30.556231 1.711902 -0.000000
      vertex 30.556231 1.711902 2.460000
      vertex 29.811849 1.790139 2.460000
    endloop
  endfacet
  facet normal -0.104528 -0.994522 0.000000
    outer loop
      vertex 29.811849 1.790139 -0.000000
      vertex 30.556231 1.711902 -0.000000
      vertex 29.811849 1.790139 2.460000
    endloop
  endfacet
  facet normal -0.500000 -0.866025 0.000000
    outer loop
      vertex 31.204435 1.337661 -0.000000
      vertex 31.204435 1.337661 2.460000
      vertex 30.556231 1.711902 2.460000
    endloop
  endfacet
  facet normal -0.500000 -0.866025 0.000000
    outer loop
      vertex 30.556231 1.711902 -0.000000
      vertex 31.204435 1.337661 -0.000000
      vertex 30.556231 1.711902 2.460000
    endloop
  endfacet
  facet normal -0.809017 -0.587785 0.000000
    outer loop
      vertex 31.644382 0.732126 2.460000
      vertex 31.204435 1.337661 2.460000
      vertex 31.644382 0.732126 -0.000000
    endloop
  endfacet
  facet normal -0.809017 -0.587785 0.000000
    outer loop
      vertex 31.644382 0.732126 -0.000000
      vertex 31.204435 1.337661 2.460000
      vertex 31.204435 1.337661 -0.000000
    endloop
  endfacet
  facet normal -0.978148 -0.207911 0.000000
    outer loop
      vertex 31.800000 -0.000000 2.460000
      vertex 31.644382 0.732126 2.460000
      vertex 31.800000 -0.000000 0.000000
    endloop
  endfacet
  facet normal -0.978148 -0.207911 0.000000
    outer loop
      vertex 31.800000 -0.000000 0.000000
      vertex 31.644382 0.732126 2.460000
      vertex 31.644382 0.732126 -0.000000
    endloop
  endfacet
  facet normal -0.978148 0.207911 -0.000000
    outer loop
      vertex 31.800000 -0.000000 2.460000
      vertex 31.800000 -0.000000 0.000000
      vertex 31.644382 -0.732126 2.460000
    endloop
  endfacet
  facet normal -0.978148 0.207911 -0.000000
    outer loop
      vertex 31.644382 -0.732126 2.460000
      vertex 31.800000 -0.000000 0.000000
      vertex 31.644382 -0.732126 0.000000
    endloop
  endfacet
  facet normal -0.809017 0.587785 -0.000000
    outer loop
      vertex 31.644382 -0.732126 2.460000
      vertex 31.644382 -0.732126 0.000000
      vertex 31.204435 -1.337661 2.460000
    endloop
  endfacet
  facet normal -0.809017 0.587785 -0.000000
    outer loop
      vertex 31.204435 -1.337661 2.460000
      vertex 31.644382 -0.732126 0.000000
      vertex 31.204435 -1.337661 0.000000
    endloop
  endfacet
  facet normal -0.500000 0.866025 -0.000000
    outer loop
      vertex 31.204435 -1.337661 2.460000
      vertex 31.204435 -1.337661 0.000000
      vertex 30.556231 -1.711902 2.460000
    endloop
  endfacet
  facet normal -0.500000 0.866025 -0.000000
    outer loop
      vertex 30.556231 -1.711902 2.460000
      vertex 31.204435 -1.337661 0.000000
      vertex 30.556231 -1.711902 0.000000
    endloop
  endfacet
  facet normal -0.104528 0.994522 -0.000000
    outer loop
      vertex 30.556231 -1.711902 2.460000
      vertex 30.556231 -1.711902 0.000000
      vertex 29.811849 -1.790139 2.460000
    endloop
  endfacet
  facet normal -0.104528 0.994522 -0.000000
    outer loop
      vertex 29.811849 -1.790139 2.460000
      vertex 30.556231 -1.711902 0.000000
      vertex 29.811849 -1.790139 0.000000
    endloop
  endfacet
  facet normal 0.309016 0.951057 -0.000000
    outer loop
      vertex 29.811849 -1.790139 2.460000
      vertex 29.811849 -1.790139 0.000000
      vertex 29.100000 -1.558846 2.460000
    endloop
  endfacet
  facet normal 0.309016 0.951057 -0.000000
    outer loop
      vertex 29.100000 -1.558846 2.460000
      vertex 29.811849 -1.790139 0.000000
      vertex 29.100000 -1.558846 0.000000
    endloop
  endfacet
  facet normal 0.669131 0.743145 -0.000000
    outer loop
      vertex 29.100000 -1.558846 2.460000
      vertex 29.100000 -1.558846 0.000000
      vertex 28.543769 -1.058013 2.460000
    endloop
  endfacet
  facet normal 0.669131 0.743145 -0.000000
    outer loop
      vertex 28.543769 -1.058013 2.460000
      vertex 29.100000 -1.558846 0.000000
      vertex 28.543769 -1.058013 0.000000
    endloop
  endfacet
  facet normal 0.913545 0.406737 -0.000000
    outer loop
      vertex 28.239334 -0.374241 2.460000
      vertex 28.543769 -1.058013 2.460000
      vertex 28.543769 -1.058013 0.000000
    endloop
  endfacet
  facet normal 0.913545 0.406737 -0.000000
    outer loop
      vertex 28.239334 -0.374241 0.000000
      vertex 28.239334 -0.374241 2.460000
      vertex 28.543769 -1.058013 0.000000
    endloop
  endfacet
  facet normal 0.000000 0.000000 1.000000
    outer loop
      vertex 18.751303 2.390984 5.000000
      vertex 18.751303 -2.390984 5.000000
      vertex 20.696305 -6.759530 5.000000
    endloop
  endfacet
  facet normal 0.000000 0.000000 1.000000
    outer loop
      vertex 28.797923 -11.437002 5.000000
      vertex 18.751303 2.390984 5.000000
      vertex 24.250000 -9.959292 5.000000
    endloop
  endfacet
  facet normal -0.000000 0.000000 1.000000
    outer loop
      vertex 24.250000 -9.959292 5.000000
      vertex 18.751303 2.390984 5.000000
      vertex 20.696305 -6.759530 5.000000
    endloop
  endfacet
  facet normal -0.000000 0.000000 1.000000
    outer loop
      vertex 33.553695 -10.937150 5.000000
      vertex 18.751303 2.390984 5.000000
      vertex 28.797923 -11.437002 5.000000
    endloop
  endfacet
  facet normal -0.000000 0.000000 1.000000
    outer loop
      vertex 37.695002 -8.546165 5.000000
      vertex 18.751303 2.390984 5.000000
      vertex 33.553695 -10.937150 5.000000
    endloop
  endfacet
  facet normal -0.000000 0.000000 1.000000
    outer loop
      vertex 28.375000 -2.814583 5.000000
      vertex 18.751303 2.390984 5.000000
      vertex 37.695002 -8.546165 5.000000
    endloop
  endfacet
  facet normal -0.000000 0.000000 1.000000
    outer loop
      vertex 37.695002 8.546165 5.000000
      vertex 18.751303 2.390984 5.000000
      vertex 40.505773 4.677471 5.000000
    endloop
  endfacet
  facet normal 0.000000 0.000000 1.000000
    outer loop
      vertex 33.553695 10.937150 5.000000
      vertex 18.751303 2.390984 5.000000
      vertex 37.695002 8.546165 5.000000
    endloop
  endfacet
  facet normal 0.000000 0.000000 1.000000
    outer loop
      vertex 28.797923 11.437002 5.000000
      vertex 18.751303 2.390984 5.000000
      vertex 33.553695 10.937150 5.000000
    endloop
  endfacet
  facet normal -0.000000 0.000000 1.000000
    outer loop
      vertex 24.250000 9.959292 5.000000
      vertex 18.751303 2.390984 5.000000
      vertex 28.797923 11.437002 5.000000
    endloop
  endfacet
  facet normal 0.000000 -0.000000 1.000000
    outer loop
      vertex 20.696305 6.759530 5.000000
      vertex 18.751303 2.390984 5.000000
      vertex 24.250000 9.959292 5.000000
    endloop
  endfacet
  facet normal 0.000000 0.000000 1.000000
    outer loop
      vertex 40.505773 -4.677471 5.000000
      vertex 28.375000 -2.814583 5.000000
      vertex 37.695002 -8.546165 5.000000
    endloop
  endfacet
  facet normal -0.000000 0.000000 1.000000
    outer loop
      vertex 26.750000 0.000000 5.000000
      vertex 28.375000 2.814583 5.000000
      vertex 18.751303 2.390984 5.000000
    endloop
  endfacet
  facet normal 0.000000 0.000000 1.000000
    outer loop
      vertex 41.500000 0.000000 5.000000
      vertex 33.250000 0.000000 5.000000
      vertex 40.505773 -4.677471 5.000000
    endloop
  endfacet
  facet normal 0.000000 -0.000000 1.000000
    outer loop
      vertex 33.250000 0.000000 5.000000
      vertex 31.625000 -2.814583 5.000000
      vertex 40.505773 -4.677471 5.000000
    endloop
  endfacet
  facet normal 0.000000 0.000000 1.000000
    outer loop
      vertex 40.505773 4.677471 5.000000
      vertex 18.751303 2.390984 5.000000
      vertex 28.375000 2.814583 5.000000
    endloop
  endfacet
  facet normal -0.000000 0.000000 1.000000
    outer loop
      vertex 40.505773 4.677471 5.000000
      vertex 31.625000 2.814583 5.000000
      vertex 41.500000 0.000000 5.000000
    endloop
  endfacet
  facet normal 0.000000 0.000000 1.000000
    outer loop
      vertex 40.505773 4.677471 5.000000
      vertex 28.375000 2.814583 5.000000
      vertex 31.625000 2.814583 5.000000
    endloop
  endfacet
  facet normal 0.000000 0.000000 1.000000
    outer loop
      vertex 31.625000 2.814583 5.000000
      vertex 33.250000 0.000000 5.000000
      vertex 41.500000 0.000000 5.000000
    endloop
  endfacet
  facet normal 0.000000 0.000000 1.000000
    outer loop
      vertex 40.505773 -4.677471 5.000000
      vertex 31.625000 -2.814583 5.000000
      vertex 28.375000 -2.814583 5.000000
    endloop
  endfacet
  facet normal -0.000000 -0.000000 1.000000
    outer loop
      vertex 28.375000 -2.814583 5.000000
      vertex 26.750000 0.000000 5.000000
      vertex 18.751303 2.390984 5.000000
    endloop
  endfacet
  facet normal 0.000000 0.000000 1.000000
    outer loop
      vertex 31.204435 -1.337661 2.460000
      vertex 31.625000 -2.814583 2.460000
      vertex 33.250000 -0.000000 2.460000
    endloop
  endfacet
  facet normal 0.000000 0.000000 1.000000
    outer loop
      vertex 30.556231 -1.711902 2.460000
      vertex 29.811849 -1.790139 2.460000
      vertex 28.375000 -2.814583 2.460000
    endloop
  endfacet
  facet normal 0.000000 0.000000 1.000000
    outer loop
      vertex 29.811849 1.790139 2.460000
      vertex 30.556231 1.711902 2.460000
      vertex 31.625000 2.814583 2.460000
    endloop
  endfacet
  facet normal 0.000000 -0.000000 1.000000
    outer loop
      vertex 26.750000 -0.000000 2.460000
      vertex 28.239334 0.374241 2.460000
      vertex 28.375000 2.814583 2.460000
    endloop
  endfacet
  facet normal 0.000000 0.000000 1.000000
    outer loop
      vertex 28.375000 2.814583 2.460000
      vertex 29.100000 1.558846 2.460000
      vertex 31.625000 2.814583 2.460000
    endloop
  endfacet
  facet normal 0.000000 0.000000 1.000000
    outer loop
      vertex 28.375000 2.814583 2.460000
      vertex 28.543769 1.058013 2.460000
      vertex 29.100000 1.558846 2.460000
    endloop
  endfacet
  facet normal 0.000000 0.000000 1.000000
    outer loop
      vertex 29.100000 1.558846 2.460000
      vertex 29.811849 1.790139 2.460000
      vertex 31.625000 2.814583 2.460000
    endloop
  endfacet
  facet normal -0.000000 0.000000 1.000000
    outer loop
      vertex 31.625000 2.814583 2.460000
      vertex 31.204435 1.337661 2.460000
      vertex 33.250000 -0.000000 2.460000
    endloop
  endfacet
  facet normal -0.000000 -0.000000 1.000000
    outer loop
      vertex 31.204435 1.337661 2.460000
      vertex 31.644382 0.732126 2.460000
      vertex 33.250000 -0.000000 2.460000
    endloop
  endfacet
  facet normal -0.000000 0.000000 1.000000
    outer loop
      vertex 29.100000 -1.558846 2.460000
      vertex 28.543769 -1.058013 2.460000
      vertex 28.375000 -2.814583 2.460000
    endloop
  endfacet
  facet normal 0.000000 0.000000 1.000000
    outer loop
      vertex 31.644382 0.732126 2.460000
      vertex 31.800000 -0.000000 2.460000
      vertex 33.250000 -0.000000 2.460000
    endloop
  endfacet
  facet normal -0.000000 0.000000 1.000000
    outer loop
      vertex 28.543769 -1.058013 2.460000
      vertex 28.239334 -0.374241 2.460000
      vertex 28.375000 -2.814583 2.460000
    endloop
  endfacet
  facet normal 0.000000 -0.000000 1.000000
    outer loop
      vertex 31.800000 -0.000000 2.460000
      vertex 31.644382 -0.732126 2.460000
      vertex 33.250000 -0.000000 2.460000
    endloop
  endfacet
  facet normal 0.000000 0.000000 1.000000
    outer loop
      vertex 30.556231 -1.711902 2.460000
      vertex 31.625000 -2.814583 2.460000
      vertex 31.204435 -1.337661 2.460000
    endloop
  endfacet
  facet normal 0.000000 0.000000 1.000000
    outer loop
      vertex 28.375000 -2.814583 2.460000
      vertex 31.625000 -2.814583 2.460000
      vertex 30.556231 -1.711902 2.460000
    endloop
  endfacet
  facet normal 0.000000 -0.000000 1.000000
    outer loop
      vertex 31.644382 -0.732126 2.460000
      vertex 31.204435 -1.337661 2.460000
      vertex 33.250000 -0.000000 2.460000
    endloop
  endfacet
  facet normal 0.000000 0.000000 1.000000
    outer loop
      vertex 26.750000 -0.000000 2.460000
      vertex 28.239334 -0.374241 2.460000
      vertex 28.239334 0.374241 2.460000
    endloop
  endfacet
  facet normal 0.000000 0.000000 1.000000
    outer loop
      vertex 26.750000 -0.000000 2.460000
      vertex 28.375000 -2.814583 2.460000
      vertex 28.239334 -0.374241 2.460000
    endloop
  endfacet
  facet normal 0.000000 0.000000 1.000000
    outer loop
      vertex 28.239334 0.374241 2.460000
      vertex 28.543769 1.058013 2.460000
      vertex 28.375000 2.814583 2.460000
    endloop
  endfacet
  facet normal 0.000000 0.000000 1.000000
    outer loop
      vertex 30.556231 1.711902 2.460000
      vertex 31.204435 1.337661 2.460000
      vertex 31.625000 2.814583 2.460000
    endloop
  endfacet
  facet normal -0.000000 0.000000 1.000000
    outer loop
      vertex 29.811849 -1.790139 2.460000
      vertex 29.100000 -1.558846 2.460000
      vertex 28.375000 -2.814583 2.460000
    endloop
  endfacet
  facet normal 0.000000 1.000000 0.000000
    outer loop
      vertex 31.625000 -2.814583 5.000000
      vertex 31.625000 -2.814583 2.460000
      vertex 28.375000 -2.814583 5.000000
    endloop
  endfacet
  facet normal 0.000000 1.000000 -0.000000
    outer loop
      vertex 28.375000 -2.814583 5.000000
      vertex 31.625000 -2.814583 2.460000
      vertex 28.375000 -2.814583 2.460000
    endloop
  endfacet
  facet normal 0.866025 0.500000 0.000000
    outer loop
      vertex 26.750000 0.000000 5.000000
      vertex 28.375000 -2.814583 5.000000
      vertex 28.375000 -2.814583 2.460000
    endloop
  endfacet
  facet normal 0.866025 0.500000 -0.000000
    outer loop
      vertex 26.750000 -0.000000 2.460000
      vertex 26.750000 0.000000 5.000000
      vertex 28.375000 -2.814583 2.460000
    endloop
  endfacet
  facet normal -0.866025 0.500000 -0.000000
    outer loop
      vertex 33.250000 0.000000 5.000000
      vertex 33.250000 -0.000000 2.460000
      vertex 31.625000 -2.814583 5.000000
    endloop
  endfacet
  facet normal -0.866025 0.500000 0.000000
    outer loop
      vertex 31.625000 -2.814583 5.000000
      vertex 33.250000 -0.000000 2.460000
      vertex 31.625000 -2.814583 2.460000
    endloop
  endfacet
  facet normal -0.866025 -0.500000 0.000000
    outer loop
      vertex 33.250000 0.000000 5.000000
      vertex 31.625000 2.814583 5.000000
      vertex 33.250000 -0.000000 2.460000
    endloop
  endfacet
  facet normal -0.866025 -0.500000 0.000000
    outer loop
      vertex 33.250000 -0.000000 2.460000
      vertex 31.625000 2.814583 5.000000
      vertex 31.625000 2.814583 2.460000
    endloop
  endfacet
  facet normal 0.000000 -1.000000 0.000000
    outer loop
      vertex 31.625000 2.814583 2.460000
      vertex 31.625000 2.814583 5.000000
      vertex 28.375000 2.814583 5.000000
    endloop
  endfacet
  facet normal 0.000000 -1.000000 0.000000
    outer loop
      vertex 28.375000 2.814583 2.460000
      vertex 31.625000 2.814583 2.460000
      vertex 28.375000 2.814583 5.000000
    endloop
  endfacet
  facet normal 0.866025 -0.500000 0.000000
    outer loop
      vertex 28.375000 2.814583 2.460000
      vertex 28.375000 2.814583 5.000000
      vertex 26.750000 0.000000 5.000000
    endloop
  endfacet
  facet normal 0.866025 -0.500000 0.000000
    outer loop
      vertex 26.750000 -0.000000 2.460000
      vertex 28.375000 2.814583 2.460000
      vertex 26.750000 0.000000 5.000000
    endloop
  endfacet
endsolid OpenSCAD_Model
