solid OpenSCAD_Model
  facet normal -0.866025 1.03621e-015 -0.5
    outer loop
      vertex -63.77 4 5
      vertex -63.77 7 5
      vertex -60.885 7 0.003033
    endloop
  endfacet
  facet normal -6.03961e-016 -0 0
    outer loop
      vertex -63.77 2 5
      vertex -63.77 7 5
      vertex -63.77 4 5
    endloop
  endfacet
  facet normal -0.866025 -1.6015e-016 -0.5
    outer loop
      vertex -63.77 4 5
      vertex -60.885 7 0.003033
      vertex -60.885 4 0.003033
    endloop
  endfacet
  facet normal -3.90799e-016 0 0
    outer loop
      vertex -63.77 7 5
      vertex -63.77 2 5
      vertex -63.77 4 5
    endloop
  endfacet
  facet normal -0.866025 1.03621e-015 0.5
    outer loop
      vertex -63.77 7 5
      vertex -63.77 4 5
      vertex -60.885 4 9.99697
    endloop
  endfacet
  facet normal -0.866025 0 0.5
    outer loop
      vertex -63.77 7 5
      vertex -60.885 4 9.99697
      vertex -60.885 7 9.99697
    endloop
  endfacet
  facet normal -1 0 0
    outer loop
      vertex -63.77 4 5
      vertex -63.77 4 0
      vertex -63.77 2 5
    endloop
  endfacet
  facet normal -1 0 0
    outer loop
      vertex -63.77 4 5
      vertex -63.77 0 10
      vertex -63.77 4 10
    endloop
  endfacet
  facet normal -1 -0 -0
    outer loop
      vertex -63.77 2 5
      vertex -63.77 0 10
      vertex -63.77 4 5
    endloop
  endfacet
  facet normal -1 0 -0
    outer loop
      vertex -63.77 0 0
      vertex -63.77 0 10
      vertex -63.77 2 5
    endloop
  endfacet
  facet normal -1 -0 0
    outer loop
      vertex -63.77 0 0
      vertex -63.77 2 5
      vertex -63.77 4 0
    endloop
  endfacet
  facet normal 0 1 0
    outer loop
      vertex -63.77 4 0
      vertex -60.885 4 0.003033
      vertex 0.889322 4 0
    endloop
  endfacet
  facet normal 0 1 0
    outer loop
      vertex -63.77 4 0
      vertex -63.77 4 5
      vertex -60.885 4 0.003033
    endloop
  endfacet
  facet normal 0 1 0
    outer loop
      vertex -60.885 4 0.003033
      vertex -55.115 4 0.003033
      vertex 0.889322 4 0
    endloop
  endfacet
  facet normal 0 1 0
    outer loop
      vertex -15.77 4 12
      vertex -13.77 4 17
      vertex -12.885 4 16.997
    endloop
  endfacet
  facet normal 0 1 0
    outer loop
      vertex 0.889322 4 0
      vertex -52.23 4 5
      vertex -55.115 4 9.99697
    endloop
  endfacet
  facet normal -0 1 0
    outer loop
      vertex -60.885 4 9.99697
      vertex -63.77 4 5
      vertex -63.77 4 10
    endloop
  endfacet
  facet normal 0 1 0
    outer loop
      vertex -60.885 4 9.99697
      vertex -63.77 4 10
      vertex -55.115 4 9.99697
    endloop
  endfacet
  facet normal 0 1 0
    outer loop
      vertex -55.115 4 9.99697
      vertex -63.77 4 10
      vertex -20.77 4 10
    endloop
  endfacet
  facet normal 0 1 -0
    outer loop
      vertex -7.115 4 7.00303
      vertex 0.889322 4 0
      vertex -7.115 4 4.00303
    endloop
  endfacet
  facet normal 0 1 -0
    outer loop
      vertex -7.115 4 4.00303
      vertex 0.889322 4 0
      vertex -12.885 4 4.00303
    endloop
  endfacet
  facet normal 0 1 0
    outer loop
      vertex -7.115 4 16.997
      vertex -13.77 4 17
      vertex -6.23 4 17
    endloop
  endfacet
  facet normal 0 1 0
    outer loop
      vertex 0.889322 4 0
      vertex -6.23 4 17
      vertex 0.77 4 10
    endloop
  endfacet
  facet normal 0 1 0
    outer loop
      vertex 0.889322 4 0
      vertex 0.77 4 10
      vertex 0.889322 4 10
    endloop
  endfacet
  facet normal 0 1 0
    outer loop
      vertex -20.77 4 10
      vertex -13.77 4 17
      vertex -15.77 4 12
    endloop
  endfacet
  facet normal 0 1 0
    outer loop
      vertex -20.77 4 10
      vertex -15.77 4 12
      vertex -12.885 4 7.00303
    endloop
  endfacet
  facet normal 0 1 0
    outer loop
      vertex -55.115 4 9.99697
      vertex -20.77 4 10
      vertex -12.885 4 4.00303
    endloop
  endfacet
  facet normal 0 1 0
    outer loop
      vertex -55.115 4 9.99697
      vertex -12.885 4 4.00303
      vertex 0.889322 4 0
    endloop
  endfacet
  facet normal 0 1 0
    outer loop
      vertex -12.885 4 4.00303
      vertex -20.77 4 10
      vertex -12.885 4 7.00303
    endloop
  endfacet
  facet normal 0 1 -0
    outer loop
      vertex -4.23 4 12
      vertex 0.889322 4 0
      vertex -7.115 4 7.00303
    endloop
  endfacet
  facet normal 0 1 0
    outer loop
      vertex 0.889322 4 0
      vertex -4.23 4 12
      vertex -6.23 4 17
    endloop
  endfacet
  facet normal 0 1 0
    outer loop
      vertex -12.885 4 16.997
      vertex -13.77 4 17
      vertex -7.115 4 16.997
    endloop
  endfacet
  facet normal 0 1 0
    outer loop
      vertex -4.23 4 12
      vertex -7.115 4 16.997
      vertex -6.23 4 17
    endloop
  endfacet
  facet normal 0 1 -0
    outer loop
      vertex -52.23 4 5
      vertex 0.889322 4 0
      vertex -55.115 4 0.003033
    endloop
  endfacet
  facet normal -0 -2.219e-016 -1
    outer loop
      vertex -60.885 4 0.003033
      vertex -60.885 7 0.003033
      vertex -55.115 4 0.003033
    endloop
  endfacet
  facet normal 0 -2.219e-016 -1
    outer loop
      vertex -55.115 4 0.003033
      vertex -60.885 7 0.003033
      vertex -55.115 7 0.003033
    endloop
  endfacet
  facet normal -1.01572e-016 1 -3.64911e-016
    outer loop
      vertex -59.6743 7 2.1
      vertex -60.885 7 0.003033
      vertex -61.3486 7 5
    endloop
  endfacet
  facet normal 0 1 -4.23554e-016
    outer loop
      vertex -59.6743 7 7.9
      vertex -60.885 7 9.99697
      vertex -55.115 7 9.99697
    endloop
  endfacet
  facet normal 0 1 -1.77744e-016
    outer loop
      vertex -54.6514 7 5
      vertex -55.115 7 9.99697
      vertex -52.23 7 5
    endloop
  endfacet
  facet normal 5.89476e-017 1 -3.8952e-016
    outer loop
      vertex -56.3257 7 2.1
      vertex -52.23 7 5
      vertex -55.115 7 0.003033
    endloop
  endfacet
  facet normal 0 1 -1.77744e-016
    outer loop
      vertex -63.77 7 5
      vertex -60.885 7 9.99697
      vertex -61.3486 7 5
    endloop
  endfacet
  facet normal 0 1 -3.55487e-016
    outer loop
      vertex -63.77 7 5
      vertex -61.3486 7 5
      vertex -60.885 7 0.003033
    endloop
  endfacet
  facet normal 0 1 -3.06268e-016
    outer loop
      vertex -54.6514 7 5
      vertex -52.23 7 5
      vertex -56.3257 7 2.1
    endloop
  endfacet
  facet normal 0 1 -4.23554e-016
    outer loop
      vertex -60.885 7 0.003033
      vertex -56.3257 7 2.1
      vertex -55.115 7 0.003033
    endloop
  endfacet
  facet normal -3.66808e-016 1 -2.11777e-016
    outer loop
      vertex -56.3257 7 7.9
      vertex -55.115 7 9.99697
      vertex -54.6514 7 5
    endloop
  endfacet
  facet normal 3.66808e-016 1 -2.11777e-016
    outer loop
      vertex -61.3486 7 5
      vertex -60.885 7 9.99697
      vertex -59.6743 7 7.9
    endloop
  endfacet
  facet normal 0 1 -4.23554e-016
    outer loop
      vertex -56.3257 7 2.1
      vertex -60.885 7 0.003033
      vertex -59.6743 7 2.1
    endloop
  endfacet
  facet normal 0 1 -4.23554e-016
    outer loop
      vertex -59.6743 7 7.9
      vertex -55.115 7 9.99697
      vertex -56.3257 7 7.9
    endloop
  endfacet
  facet normal 0 -0 1
    outer loop
      vertex -60.885 7 9.99697
      vertex -60.885 4 9.99697
      vertex -55.115 4 9.99697
    endloop
  endfacet
  facet normal 0 0 1
    outer loop
      vertex -55.115 7 9.99697
      vertex -60.885 7 9.99697
      vertex -55.115 4 9.99697
    endloop
  endfacet
  facet normal -0 -0 -1
    outer loop
      vertex -63.77 0 0
      vertex -63.77 4 0
      vertex -63 0 0
    endloop
  endfacet
  facet normal 0 -0 -1
    outer loop
      vertex -63 0 0
      vertex -63.77 4 0
      vertex 0.889322 4 0
    endloop
  endfacet
  facet normal 0 0 -1
    outer loop
      vertex 0.889322 4 0
      vertex 0.357287 5.04418 0
      vertex 0 7.3 0
    endloop
  endfacet
  facet normal 0 0 -1
    outer loop
      vertex 0.889322 4 0
      vertex 0 7.3 0
      vertex 0.357287 9.55582 0
    endloop
  endfacet
  facet normal 0 -0 -1
    outer loop
      vertex 0.889322 4 0
      vertex 0.357287 9.55582 0
      vertex 1.39418 11.5908 0
    endloop
  endfacet
  facet normal 0 0 -1
    outer loop
      vertex 0.889322 4 0
      vertex 1.39418 11.5908 0
      vertex 3.00917 13.2058 0
    endloop
  endfacet
  facet normal 0 0 -1
    outer loop
      vertex 0.889322 4 0
      vertex 3.00917 13.2058 0
      vertex 5.04418 14.2427 0
    endloop
  endfacet
  facet normal 0 0 -1
    outer loop
      vertex 4.23582 9.87115 0
      vertex 5.04418 14.2427 0
      vertex 7.3 14.6 0
    endloop
  endfacet
  facet normal 0 -0 -1
    outer loop
      vertex 9.55516 10.55 0
      vertex 7.3 14.6 0
      vertex 22.8 14.6 0
    endloop
  endfacet
  facet normal -0 -0 -1
    outer loop
      vertex 9.3 10.7641 0
      vertex 7.3 14.6 0
      vertex 9.55516 10.55 0
    endloop
  endfacet
  facet normal 0 0 -1
    outer loop
      vertex 4.23582 9.87115 0
      vertex 7.3 14.6 0
      vertex 5.3 10.7641 0
    endloop
  endfacet
  facet normal -0 -0 -1
    outer loop
      vertex 7.99459 11.2392 0
      vertex 7.3 14.6 0
      vertex 9.3 10.7641 0
    endloop
  endfacet
  facet normal -0 0 -1
    outer loop
      vertex 6.60541 11.2392 0
      vertex 7.3 14.6 0
      vertex 7.99459 11.2392 0
    endloop
  endfacet
  facet normal 0 0 -1
    outer loop
      vertex 5.3 10.7641 0
      vertex 7.3 14.6 0
      vertex 6.60541 11.2392 0
    endloop
  endfacet
  facet normal 0 0 -1
    outer loop
      vertex 3.54123 8.66808 0
      vertex 5.04418 14.2427 0
      vertex 4.23582 9.87115 0
    endloop
  endfacet
  facet normal 0 -0 -1
    outer loop
      vertex 3.3 7.3 0
      vertex 0.889322 4 0
      vertex 3.54123 8.66808 0
    endloop
  endfacet
  facet normal 0 0 -1
    outer loop
      vertex 0.889322 4 0
      vertex 5.04418 14.2427 0
      vertex 3.54123 8.66808 0
    endloop
  endfacet
  facet normal 0 0 -1
    outer loop
      vertex 3.54123 5.93192 0
      vertex 0.889322 4 0
      vertex 3.3 7.3 0
    endloop
  endfacet
  facet normal 0 0 -1
    outer loop
      vertex 4.23582 4.72885 0
      vertex 0.889322 4 0
      vertex 3.54123 5.93192 0
    endloop
  endfacet
  facet normal 0 0 -1
    outer loop
      vertex 22.8 4.05 0
      vertex 9.3 3.8359 0
      vertex 9.55516 4.05 0
    endloop
  endfacet
  facet normal -0 0 -1
    outer loop
      vertex 0.889322 4 0
      vertex 4.23582 4.72885 0
      vertex 5.3 3.8359 0
    endloop
  endfacet
  facet normal 0 0 -1
    outer loop
      vertex 0.889322 4 0
      vertex 5.3 3.8359 0
      vertex -63 0 0
    endloop
  endfacet
  facet normal 0 0 -1
    outer loop
      vertex 5.3 3.8359 0
      vertex 6.60541 3.36077 0
      vertex -63 0 0
    endloop
  endfacet
  facet normal 0 0 -1
    outer loop
      vertex 6.60541 3.36077 0
      vertex 7.99459 3.36077 0
      vertex -63 0 0
    endloop
  endfacet
  facet normal -0 0 -1
    outer loop
      vertex 7.99459 3.36077 0
      vertex 22.8 4.05 0
      vertex -63 0 0
    endloop
  endfacet
  facet normal -0 0 -1
    outer loop
      vertex 9.3 3.8359 0
      vertex 22.8 4.05 0
      vertex 7.99459 3.36077 0
    endloop
  endfacet
  facet normal -0 0 -1
    outer loop
      vertex -53 0 0
      vertex 22.8 4.05 0
      vertex 22.8 0 0
    endloop
  endfacet
  facet normal -0 0 -1
    outer loop
      vertex -55 0 0
      vertex 22.8 4.05 0
      vertex -53 0 0
    endloop
  endfacet
  facet normal -0 0 -1
    outer loop
      vertex -61 0 0
      vertex 22.8 4.05 0
      vertex -55 0 0
    endloop
  endfacet
  facet normal -0 0 -1
    outer loop
      vertex -63 0 0
      vertex 22.8 4.05 0
      vertex -61 0 0
    endloop
  endfacet
  facet normal -0 0 -1
    outer loop
      vertex 9.55516 10.55 0
      vertex 22.8 14.6 0
      vertex 22.8 10.55 0
    endloop
  endfacet
  facet normal 0 -0 1
    outer loop
      vertex -63.77 4 10
      vertex -63.77 0 10
      vertex -20.77 0 10
    endloop
  endfacet
  facet normal 0 0 1
    outer loop
      vertex -20.77 4 10
      vertex -63.77 4 10
      vertex -20.77 0 10
    endloop
  endfacet
  facet normal 0 -1 0
    outer loop
      vertex -63.77 0 10
      vertex -63.77 0 0
      vertex -63 0 0
    endloop
  endfacet
  facet normal 0 -1 0
    outer loop
      vertex -61 0 8
      vertex -63.77 0 10
      vertex -61 0 0
    endloop
  endfacet
  facet normal 0 -1 0
    outer loop
      vertex -61 0 0
      vertex -63.77 0 10
      vertex -63 0 0
    endloop
  endfacet
  facet normal 0 -1 0
    outer loop
      vertex -55 0 8
      vertex -63.77 0 10
      vertex -61 0 8
    endloop
  endfacet
  facet normal 0 -1 0
    outer loop
      vertex 22.8 0 0
      vertex -63.77 0 10
      vertex -55 0 8
    endloop
  endfacet
  facet normal 0 -1 0
    outer loop
      vertex -53 0 0
      vertex -55 0 8
      vertex -55 0 0
    endloop
  endfacet
  facet normal 0 -1 0
    outer loop
      vertex 22.8 0 0
      vertex -55 0 8
      vertex -53 0 0
    endloop
  endfacet
  facet normal 0 -1 0
    outer loop
      vertex -15 0 6.5
      vertex -63.77 0 10
      vertex 22.8 0 0
    endloop
  endfacet
  facet normal 0 -1 0
    outer loop
      vertex 16.5056 0 3.47831
      vertex 0.77 0 10
      vertex 22.8 0 0
    endloop
  endfacet
  facet normal -0 -1 0
    outer loop
      vertex 16.5056 0 6.52169
      vertex 17.4944 0 6.52169
      vertex 22.8 0 10
    endloop
  endfacet
  facet normal 0 -1 0
    outer loop
      vertex -7 0 14.5
      vertex -7 0 6.5
      vertex -5 0 6.5
    endloop
  endfacet
  facet normal -0 -1 0
    outer loop
      vertex -13 0 14.5
      vertex -7 0 14.5
      vertex -6.23 0 17
    endloop
  endfacet
  facet normal 0 -1 0
    outer loop
      vertex -13 0 6.5
      vertex -15 0 6.5
      vertex 22.8 0 0
    endloop
  endfacet
  facet normal 0 -1 0
    outer loop
      vertex -20.77 0 10
      vertex -63.77 0 10
      vertex -15 0 6.5
    endloop
  endfacet
  facet normal 0 -1 0
    outer loop
      vertex -7 0 6.5
      vertex -13 0 6.5
      vertex 22.8 0 0
    endloop
  endfacet
  facet normal 0 -1 0
    outer loop
      vertex -20.77 0 10
      vertex -15 0 6.5
      vertex -13 0 6.5
    endloop
  endfacet
  facet normal -0 -1 0
    outer loop
      vertex 17.4944 0 6.52169
      vertex 18.2944 0 5.94046
      vertex 22.8 0 10
    endloop
  endfacet
  facet normal 0 -1 0
    outer loop
      vertex -6.23 0 17
      vertex -7 0 14.5
      vertex 0.77 0 10
    endloop
  endfacet
  facet normal 0 -1 0
    outer loop
      vertex -7 0 14.5
      vertex -5 0 6.5
      vertex 0.77 0 10
    endloop
  endfacet
  facet normal 0 -1 0
    outer loop
      vertex 0.77 0 10
      vertex -5 0 6.5
      vertex 22.8 0 0
    endloop
  endfacet
  facet normal 0 -1 0
    outer loop
      vertex 15.4 0 5
      vertex 0.77 0 10
      vertex 15.7056 0 4.05954
    endloop
  endfacet
  facet normal 0 -1 0
    outer loop
      vertex 17.4944 0 3.47831
      vertex 16.5056 0 3.47831
      vertex 22.8 0 0
    endloop
  endfacet
  facet normal 0 -1 0
    outer loop
      vertex 15.7056 0 5.94046
      vertex 0.77 0 10
      vertex 15.4 0 5
    endloop
  endfacet
  facet normal 0 -1 0
    outer loop
      vertex 16.5056 0 6.52169
      vertex 0.77 0 10
      vertex 15.7056 0 5.94046
    endloop
  endfacet
  facet normal 0 -1 0
    outer loop
      vertex 22.8 0 10
      vertex 0.77 0 10
      vertex 16.5056 0 6.52169
    endloop
  endfacet
  facet normal 0 -1 0
    outer loop
      vertex 22.8 0 10
      vertex 18.2944 0 5.94046
      vertex 22.8 0 0
    endloop
  endfacet
  facet normal 0 -1 0
    outer loop
      vertex 18.2944 0 5.94046
      vertex 18.6 0 5
      vertex 22.8 0 0
    endloop
  endfacet
  facet normal 0 -1 0
    outer loop
      vertex 18.6 0 5
      vertex 18.2944 0 4.05954
      vertex 22.8 0 0
    endloop
  endfacet
  facet normal 0 -1 0
    outer loop
      vertex 18.2944 0 4.05954
      vertex 17.4944 0 3.47831
      vertex 22.8 0 0
    endloop
  endfacet
  facet normal 0 -1 0
    outer loop
      vertex 15.7056 0 4.05954
      vertex 0.77 0 10
      vertex 16.5056 0 3.47831
    endloop
  endfacet
  facet normal 0 -1 0
    outer loop
      vertex -13.77 0 17
      vertex -13 0 14.5
      vertex -6.23 0 17
    endloop
  endfacet
  facet normal 0 -1 0
    outer loop
      vertex -13.77 0 17
      vertex -20.77 0 10
      vertex -13 0 14.5
    endloop
  endfacet
  facet normal 0 -1 0
    outer loop
      vertex -5 0 6.5
      vertex -7 0 6.5
      vertex 22.8 0 0
    endloop
  endfacet
  facet normal 0 -1 0
    outer loop
      vertex -13 0 6.5
      vertex -13 0 14.5
      vertex -20.77 0 10
    endloop
  endfacet
  facet normal -0.891006 -0.453991 -0
    outer loop
      vertex 0.357287 5.04418 0
      vertex 0.889322 4 0
      vertex 0.357287 5.04418 10
    endloop
  endfacet
  facet normal -0.891006 -0.453991 0
    outer loop
      vertex 0.77 4.23418 10
      vertex 0.889322 4 0
      vertex 0.889322 4 10
    endloop
  endfacet
  facet normal -0.891006 -0.453991 -2.86233e-017
    outer loop
      vertex 0.357287 5.04418 10
      vertex 0.889322 4 0
      vertex 0.77 4.23418 10
    endloop
  endfacet
  facet normal 0 0 1
    outer loop
      vertex 0.357287 9.55582 10
      vertex 0 7.3 10
      vertex 0.357287 5.04418 10
    endloop
  endfacet
  facet normal -0 0 1
    outer loop
      vertex 0.77 6 10
      vertex 0.357287 9.55582 10
      vertex 0.77 4.23418 10
    endloop
  endfacet
  facet normal 0 0 1
    outer loop
      vertex 0.77 4.23418 10
      vertex 0.357287 9.55582 10
      vertex 0.357287 5.04418 10
    endloop
  endfacet
  facet normal 0 0 1
    outer loop
      vertex 0.889322 4 10
      vertex 0.77 6 10
      vertex 0.77 4.23418 10
    endloop
  endfacet
  facet normal 0 0 1
    outer loop
      vertex 3.54123 5.93192 10
      vertex 0.357287 9.55582 10
      vertex 0.77 6 10
    endloop
  endfacet
  facet normal 0 0 1
    outer loop
      vertex 0.77 0 10
      vertex 22.8 0 10
      vertex 0.889322 4 10
    endloop
  endfacet
  facet normal 0 0 1
    outer loop
      vertex 0.77 0 10
      vertex 0.889322 4 10
      vertex 0.77 4 10
    endloop
  endfacet
  facet normal 0 -0 1
    outer loop
      vertex 9.3 3.8359 10
      vertex 7.99459 3.36077 10
      vertex 22.8 0 10
    endloop
  endfacet
  facet normal 0 0 1
    outer loop
      vertex 3.3 7.3 10
      vertex 3.54123 8.66808 10
      vertex 0.357287 9.55582 10
    endloop
  endfacet
  facet normal 0 0 1
    outer loop
      vertex 6.60541 3.36077 10
      vertex 5.3 3.8359 10
      vertex 0.889322 4 10
    endloop
  endfacet
  facet normal 0 0 1
    outer loop
      vertex 22.8 0 10
      vertex 9.55516 4.05 10
      vertex 9.3 3.8359 10
    endloop
  endfacet
  facet normal 0 0 1
    outer loop
      vertex 6.60541 3.36077 10
      vertex 22.8 0 10
      vertex 7.99459 3.36077 10
    endloop
  endfacet
  facet normal 0 0 1
    outer loop
      vertex 0.889322 4 10
      vertex 22.8 0 10
      vertex 6.60541 3.36077 10
    endloop
  endfacet
  facet normal 0 0 1
    outer loop
      vertex 0.889322 4 10
      vertex 5.3 3.8359 10
      vertex 0.77 6 10
    endloop
  endfacet
  facet normal 0 0 1
    outer loop
      vertex 5.3 3.8359 10
      vertex 4.23582 4.72885 10
      vertex 0.77 6 10
    endloop
  endfacet
  facet normal -0 -0 1
    outer loop
      vertex 3.3 7.3 10
      vertex 0.357287 9.55582 10
      vertex 3.54123 5.93192 10
    endloop
  endfacet
  facet normal 0 0 1
    outer loop
      vertex 3.54123 8.66808 10
      vertex 4.23582 9.87115 10
      vertex 0.357287 9.55582 10
    endloop
  endfacet
  facet normal 0 0 1
    outer loop
      vertex 9.55516 10.55 10
      vertex 22.8 10.55 10
      vertex 9.3 10.7641 10
    endloop
  endfacet
  facet normal 0 0 1
    outer loop
      vertex 5.3 10.7641 10
      vertex 0.357287 9.55582 10
      vertex 4.23582 9.87115 10
    endloop
  endfacet
  facet normal 0 0 1
    outer loop
      vertex 6.60541 11.2392 10
      vertex 0.357287 9.55582 10
      vertex 5.3 10.7641 10
    endloop
  endfacet
  facet normal 0 0 1
    outer loop
      vertex 7.3 14.6 10
      vertex 0.357287 9.55582 10
      vertex 6.60541 11.2392 10
    endloop
  endfacet
  facet normal 0 0 1
    outer loop
      vertex 22.8 14.6 10
      vertex 6.60541 11.2392 10
      vertex 7.99459 11.2392 10
    endloop
  endfacet
  facet normal 0 0 1
    outer loop
      vertex 22.8 10.55 10
      vertex 7.99459 11.2392 10
      vertex 9.3 10.7641 10
    endloop
  endfacet
  facet normal 0 0 1
    outer loop
      vertex 22.8 14.6 10
      vertex 7.99459 11.2392 10
      vertex 22.8 10.55 10
    endloop
  endfacet
  facet normal 0 -0 1
    outer loop
      vertex 7.3 14.6 10
      vertex 6.60541 11.2392 10
      vertex 22.8 14.6 10
    endloop
  endfacet
  facet normal 0 -0 1
    outer loop
      vertex 5.04418 14.2427 10
      vertex 0.357287 9.55582 10
      vertex 7.3 14.6 10
    endloop
  endfacet
  facet normal 0 -0 1
    outer loop
      vertex 3.00917 13.2058 10
      vertex 0.357287 9.55582 10
      vertex 5.04418 14.2427 10
    endloop
  endfacet
  facet normal 0 -0 1
    outer loop
      vertex 1.39418 11.5908 10
      vertex 0.357287 9.55582 10
      vertex 3.00917 13.2058 10
    endloop
  endfacet
  facet normal 0 0 1
    outer loop
      vertex 22.8 4.05 10
      vertex 9.55516 4.05 10
      vertex 22.8 0 10
    endloop
  endfacet
  facet normal 0 0 1
    outer loop
      vertex 4.23582 4.72885 10
      vertex 3.54123 5.93192 10
      vertex 0.77 6 10
    endloop
  endfacet
  facet normal 0.707107 0 0.707107
    outer loop
      vertex 0.77 0 10
      vertex 0.77 4 10
      vertex -6.23 4 17
    endloop
  endfacet
  facet normal 0.707107 0 0.707107
    outer loop
      vertex -6.23 0 17
      vertex 0.77 0 10
      vertex -6.23 4 17
    endloop
  endfacet
  facet normal 0 -0 1
    outer loop
      vertex -13.77 4 17
      vertex -13.77 0 17
      vertex -6.23 0 17
    endloop
  endfacet
  facet normal 0 0 1
    outer loop
      vertex -6.23 4 17
      vertex -13.77 4 17
      vertex -6.23 0 17
    endloop
  endfacet
  facet normal -0.707107 0 0.707107
    outer loop
      vertex -13.77 4 17
      vertex -20.77 4 10
      vertex -13.77 0 17
    endloop
  endfacet
  facet normal -0.707107 0 0.707107
    outer loop
      vertex -13.77 0 17
      vertex -20.77 4 10
      vertex -20.77 0 10
    endloop
  endfacet
  facet normal 0.866025 -0 0.5
    outer loop
      vertex -55.115 7 9.99697
      vertex -55.115 4 9.99697
      vertex -52.23 4 5
    endloop
  endfacet
  facet normal 0.866025 -0 0.5
    outer loop
      vertex -52.23 7 5
      vertex -55.115 7 9.99697
      vertex -52.23 4 5
    endloop
  endfacet
  facet normal 0.866025 -1.6015e-016 -0.5
    outer loop
      vertex -52.23 4 5
      vertex -55.115 4 0.003033
      vertex -55.115 7 0.003033
    endloop
  endfacet
  facet normal 0.866025 0 -0.5
    outer loop
      vertex -52.23 7 5
      vertex -52.23 4 5
      vertex -55.115 7 0.003033
    endloop
  endfacet
  facet normal -0.866025 0 0.5
    outer loop
      vertex -15.77 4 12
      vertex -12.885 4 16.997
      vertex -15.77 7 12
    endloop
  endfacet
  facet normal -0.866025 0 0.5
    outer loop
      vertex -15.77 7 12
      vertex -12.885 4 16.997
      vertex -12.885 7 16.997
    endloop
  endfacet
  facet normal -0.866025 -0 -0.5
    outer loop
      vertex -15.77 4 12
      vertex -15.77 7 12
      vertex -12.885 4 7.00303
    endloop
  endfacet
  facet normal -0.866025 -0 -0.5
    outer loop
      vertex -12.885 4 7.00303
      vertex -15.77 7 12
      vertex -12.885 7 7.00303
    endloop
  endfacet
  facet normal 0 -0 1
    outer loop
      vertex -12.885 7 16.997
      vertex -12.885 4 16.997
      vertex -7.115 4 16.997
    endloop
  endfacet
  facet normal 0 0 1
    outer loop
      vertex -7.115 7 16.997
      vertex -12.885 7 16.997
      vertex -7.115 4 16.997
    endloop
  endfacet
  facet normal 0.866025 -0 0.5
    outer loop
      vertex -7.115 7 16.997
      vertex -7.115 4 16.997
      vertex -4.23 4 12
    endloop
  endfacet
  facet normal 0.866025 -0 0.5
    outer loop
      vertex -4.23 7 12
      vertex -7.115 7 16.997
      vertex -4.23 4 12
    endloop
  endfacet
  facet normal 0.866025 0 -0.5
    outer loop
      vertex -4.23 4 12
      vertex -7.115 4 7.00303
      vertex -7.115 7 7.00303
    endloop
  endfacet
  facet normal 0.866025 0 -0.5
    outer loop
      vertex -4.23 7 12
      vertex -4.23 4 12
      vertex -7.115 7 7.00303
    endloop
  endfacet
  facet normal 1 0 -0
    outer loop
      vertex -7.115 4 7.00303
      vertex -7.115 4 4.00303
      vertex -7.115 7 7.00303
    endloop
  endfacet
  facet normal 0 0.707107 -0.707107
    outer loop
      vertex -12.885 4 4.00303
      vertex -12.885 7 7.00303
      vertex -7.115 4 4.00303
    endloop
  endfacet
  facet normal 0 0.707107 -0.707107
    outer loop
      vertex -7.115 4 4.00303
      vertex -12.885 7 7.00303
      vertex -7.115 7 7.00303
    endloop
  endfacet
  facet normal -1 0 0
    outer loop
      vertex -12.885 7 7.00303
      vertex -12.885 4 4.00303
      vertex -12.885 4 7.00303
    endloop
  endfacet
  facet normal 0.866025 -1.98927e-016 -0.5
    outer loop
      vertex -61.3486 7 5
      vertex -59.6743 7 7.9
      vertex -59.6743 4 7.9
    endloop
  endfacet
  facet normal 0.866025 -1.4803e-016 -0.5
    outer loop
      vertex -61.3486 4 5
      vertex -61.3486 7 5
      vertex -59.6743 4 7.9
    endloop
  endfacet
  facet normal 0.866025 1.4803e-016 0.5
    outer loop
      vertex -59.6743 4 2.1
      vertex -59.6743 7 2.1
      vertex -61.3486 7 5
    endloop
  endfacet
  facet normal 0.866025 1.4803e-016 0.5
    outer loop
      vertex -61.3486 4 5
      vertex -59.6743 4 2.1
      vertex -61.3486 7 5
    endloop
  endfacet
  facet normal 0 -2.96059e-016 -1
    outer loop
      vertex -56.3257 7 7.9
      vertex -56.3257 4 7.9
      vertex -59.6743 7 7.9
    endloop
  endfacet
  facet normal 0 -2.96059e-016 -1
    outer loop
      vertex -59.6743 7 7.9
      vertex -56.3257 4 7.9
      vertex -59.6743 4 7.9
    endloop
  endfacet
  facet normal -0.866025 -1.4803e-016 -0.5
    outer loop
      vertex -54.6514 7 5
      vertex -54.6514 4 5
      vertex -56.3257 7 7.9
    endloop
  endfacet
  facet normal -0.866025 -1.4803e-016 -0.5
    outer loop
      vertex -56.3257 7 7.9
      vertex -54.6514 4 5
      vertex -56.3257 4 7.9
    endloop
  endfacet
  facet normal -0.866025 1.4803e-016 0.5
    outer loop
      vertex -54.6514 7 5
      vertex -56.3257 7 2.1
      vertex -54.6514 4 5
    endloop
  endfacet
  facet normal -0.866025 9.94636e-017 0.5
    outer loop
      vertex -54.6514 4 5
      vertex -56.3257 7 2.1
      vertex -56.3257 4 2.1
    endloop
  endfacet
  facet normal 0 2.96059e-016 1
    outer loop
      vertex -56.3257 4 2.1
      vertex -56.3257 7 2.1
      vertex -59.6743 7 2.1
    endloop
  endfacet
  facet normal 0 2.96059e-016 1
    outer loop
      vertex -59.6743 4 2.1
      vertex -56.3257 4 2.1
      vertex -59.6743 7 2.1
    endloop
  endfacet
  facet normal -1 -0 -0
    outer loop
      vertex -61 -3 1.73205
      vertex -61 -3 8
      vertex -61 0 0
    endloop
  endfacet
  facet normal -1 0 0
    outer loop
      vertex -61 0 0
      vertex -61 -3 8
      vertex -61 0 8
    endloop
  endfacet
  facet normal 0 -0.5 -0.866025
    outer loop
      vertex -55 0 0
      vertex -55 -3 1.73205
      vertex -61 0 0
    endloop
  endfacet
  facet normal 0 -0.5 -0.866025
    outer loop
      vertex -61 0 0
      vertex -55 -3 1.73205
      vertex -61 -3 1.73205
    endloop
  endfacet
  facet normal 1 0 -0
    outer loop
      vertex -55 -3 8
      vertex -55 -3 1.73205
      vertex -55 0 0
    endloop
  endfacet
  facet normal 1 0 0
    outer loop
      vertex -55 0 8
      vertex -55 -3 8
      vertex -55 0 0
    endloop
  endfacet
  facet normal 1 0 -0
    outer loop
      vertex 22.8 0 10
      vertex 22.8 0 0
      vertex 22.8 4.05 0
    endloop
  endfacet
  facet normal 1 0 0
    outer loop
      vertex 22.8 4.05 10
      vertex 22.8 0 10
      vertex 22.8 4.05 0
    endloop
  endfacet
  facet normal 0 1 0
    outer loop
      vertex 16.5056 4.05 6.52169
      vertex 9.55516 4.05 10
      vertex 17.4944 4.05 6.52169
    endloop
  endfacet
  facet normal 0 1 -0
    outer loop
      vertex 16.5056 4.05 3.47831
      vertex 22.8 4.05 0
      vertex 9.55516 4.05 0
    endloop
  endfacet
  facet normal 0 1 -0
    outer loop
      vertex 18.2944 4.05 4.05954
      vertex 22.8 4.05 0
      vertex 17.4944 4.05 3.47831
    endloop
  endfacet
  facet normal 0 1 -0
    outer loop
      vertex 9.55516 4.05 10
      vertex 15.7056 4.05 4.05954
      vertex 9.55516 4.05 0
    endloop
  endfacet
  facet normal 0 1 -0
    outer loop
      vertex 15.7056 4.05 4.05954
      vertex 16.5056 4.05 3.47831
      vertex 9.55516 4.05 0
    endloop
  endfacet
  facet normal 0 1 0
    outer loop
      vertex 22.8 4.05 10
      vertex 22.8 4.05 0
      vertex 18.2944 4.05 4.05954
    endloop
  endfacet
  facet normal 0 1 0
    outer loop
      vertex 22.8 4.05 10
      vertex 18.2944 4.05 4.05954
      vertex 18.6 4.05 5
    endloop
  endfacet
  facet normal 0 1 0
    outer loop
      vertex 22.8 4.05 10
      vertex 18.6 4.05 5
      vertex 18.2944 4.05 5.94046
    endloop
  endfacet
  facet normal 0 1 0
    outer loop
      vertex 22.8 4.05 10
      vertex 18.2944 4.05 5.94046
      vertex 17.4944 4.05 6.52169
    endloop
  endfacet
  facet normal 0 1 0
    outer loop
      vertex 22.8 4.05 10
      vertex 17.4944 4.05 6.52169
      vertex 9.55516 4.05 10
    endloop
  endfacet
  facet normal 0 1 0
    outer loop
      vertex 15.7056 4.05 5.94046
      vertex 9.55516 4.05 10
      vertex 16.5056 4.05 6.52169
    endloop
  endfacet
  facet normal 0 1 0
    outer loop
      vertex 15.4 4.05 5
      vertex 9.55516 4.05 10
      vertex 15.7056 4.05 5.94046
    endloop
  endfacet
  facet normal 0 1 0
    outer loop
      vertex 9.55516 4.05 10
      vertex 15.4 4.05 5
      vertex 15.7056 4.05 4.05954
    endloop
  endfacet
  facet normal 0 1 -0
    outer loop
      vertex 17.4944 4.05 3.47831
      vertex 22.8 4.05 0
      vertex 16.5056 4.05 3.47831
    endloop
  endfacet
  facet normal -0.642788 0.766044 0
    outer loop
      vertex 9.55516 4.05 10
      vertex 9.55516 4.05 0
      vertex 9.3 3.8359 10
    endloop
  endfacet
  facet normal -0.642788 0.766044 0
    outer loop
      vertex 9.3 3.8359 10
      vertex 9.55516 4.05 0
      vertex 9.3 3.8359 0
    endloop
  endfacet
  facet normal -0.34202 0.939693 0
    outer loop
      vertex 9.3 3.8359 10
      vertex 9.3 3.8359 0
      vertex 7.99459 3.36077 10
    endloop
  endfacet
  facet normal -0.34202 0.939693 0
    outer loop
      vertex 7.99459 3.36077 10
      vertex 9.3 3.8359 0
      vertex 7.99459 3.36077 0
    endloop
  endfacet
  facet normal 0 1 0
    outer loop
      vertex 7.99459 3.36077 10
      vertex 7.99459 3.36077 0
      vertex 6.60541 3.36077 10
    endloop
  endfacet
  facet normal 0 1 -0
    outer loop
      vertex 6.60541 3.36077 10
      vertex 7.99459 3.36077 0
      vertex 6.60541 3.36077 0
    endloop
  endfacet
  facet normal 0.34202 0.939693 -0
    outer loop
      vertex 6.60541 3.36077 10
      vertex 6.60541 3.36077 0
      vertex 5.3 3.8359 10
    endloop
  endfacet
  facet normal 0.34202 0.939693 -0
    outer loop
      vertex 5.3 3.8359 10
      vertex 6.60541 3.36077 0
      vertex 5.3 3.8359 0
    endloop
  endfacet
  facet normal 0.642788 0.766044 -0
    outer loop
      vertex 5.3 3.8359 10
      vertex 5.3 3.8359 0
      vertex 4.23582 4.72885 10
    endloop
  endfacet
  facet normal 0.642788 0.766044 -0
    outer loop
      vertex 4.23582 4.72885 10
      vertex 5.3 3.8359 0
      vertex 4.23582 4.72885 0
    endloop
  endfacet
  facet normal 0.866025 0.5 0
    outer loop
      vertex 3.54123 5.93192 10
      vertex 4.23582 4.72885 10
      vertex 4.23582 4.72885 0
    endloop
  endfacet
  facet normal 0.866025 0.5 0
    outer loop
      vertex 3.54123 5.93192 0
      vertex 3.54123 5.93192 10
      vertex 4.23582 4.72885 0
    endloop
  endfacet
  facet normal 0.984808 0.173648 0
    outer loop
      vertex 3.3 7.3 10
      vertex 3.54123 5.93192 10
      vertex 3.54123 5.93192 0
    endloop
  endfacet
  facet normal 0.984808 0.173648 0
    outer loop
      vertex 3.3 7.3 0
      vertex 3.3 7.3 10
      vertex 3.54123 5.93192 0
    endloop
  endfacet
  facet normal 0.984808 -0.173648 0
    outer loop
      vertex 3.54123 8.66808 0
      vertex 3.54123 8.66808 10
      vertex 3.3 7.3 10
    endloop
  endfacet
  facet normal 0.984808 -0.173648 0
    outer loop
      vertex 3.3 7.3 0
      vertex 3.54123 8.66808 0
      vertex 3.3 7.3 10
    endloop
  endfacet
  facet normal 0.866025 -0.5 0
    outer loop
      vertex 4.23582 9.87115 0
      vertex 4.23582 9.87115 10
      vertex 3.54123 8.66808 10
    endloop
  endfacet
  facet normal 0.866025 -0.5 0
    outer loop
      vertex 3.54123 8.66808 0
      vertex 4.23582 9.87115 0
      vertex 3.54123 8.66808 10
    endloop
  endfacet
  facet normal 0.642788 -0.766044 0
    outer loop
      vertex 5.3 10.7641 0
      vertex 5.3 10.7641 10
      vertex 4.23582 9.87115 10
    endloop
  endfacet
  facet normal 0.642788 -0.766044 0
    outer loop
      vertex 4.23582 9.87115 0
      vertex 5.3 10.7641 0
      vertex 4.23582 9.87115 10
    endloop
  endfacet
  facet normal 0.34202 -0.939693 0
    outer loop
      vertex 6.60541 11.2392 0
      vertex 6.60541 11.2392 10
      vertex 5.3 10.7641 10
    endloop
  endfacet
  facet normal 0.34202 -0.939693 0
    outer loop
      vertex 5.3 10.7641 0
      vertex 6.60541 11.2392 0
      vertex 5.3 10.7641 10
    endloop
  endfacet
  facet normal 0 -1 0
    outer loop
      vertex 7.99459 11.2392 0
      vertex 7.99459 11.2392 10
      vertex 6.60541 11.2392 10
    endloop
  endfacet
  facet normal -0 -1 -0
    outer loop
      vertex 6.60541 11.2392 0
      vertex 7.99459 11.2392 0
      vertex 6.60541 11.2392 10
    endloop
  endfacet
  facet normal -0.34202 -0.939693 -0
    outer loop
      vertex 9.3 10.7641 0
      vertex 9.3 10.7641 10
      vertex 7.99459 11.2392 10
    endloop
  endfacet
  facet normal -0.34202 -0.939693 -0
    outer loop
      vertex 7.99459 11.2392 0
      vertex 9.3 10.7641 0
      vertex 7.99459 11.2392 10
    endloop
  endfacet
  facet normal -0.642788 -0.766044 -0
    outer loop
      vertex 9.55516 10.55 0
      vertex 9.55516 10.55 10
      vertex 9.3 10.7641 10
    endloop
  endfacet
  facet normal -0.642788 -0.766044 -0
    outer loop
      vertex 9.3 10.7641 0
      vertex 9.55516 10.55 0
      vertex 9.3 10.7641 10
    endloop
  endfacet
  facet normal 0 -1 -0
    outer loop
      vertex 16.5056 10.55 6.52169
      vertex 22.8 10.55 10
      vertex 9.55516 10.55 10
    endloop
  endfacet
  facet normal -0 -1 0
    outer loop
      vertex 16.5056 10.55 6.52169
      vertex 17.4944 10.55 6.52169
      vertex 22.8 10.55 10
    endloop
  endfacet
  facet normal 0 -1 -0
    outer loop
      vertex 9.55516 10.55 0
      vertex 15.4 10.55 5
      vertex 9.55516 10.55 10
    endloop
  endfacet
  facet normal 0 -1 -0
    outer loop
      vertex 15.7056 10.55 5.94046
      vertex 16.5056 10.55 6.52169
      vertex 9.55516 10.55 10
    endloop
  endfacet
  facet normal 0 -1 0
    outer loop
      vertex 18.2944 10.55 5.94046
      vertex 18.6 10.55 5
      vertex 22.8 10.55 0
    endloop
  endfacet
  facet normal 0 -1 -0
    outer loop
      vertex 18.2944 10.55 5.94046
      vertex 22.8 10.55 10
      vertex 17.4944 10.55 6.52169
    endloop
  endfacet
  facet normal 0 -1 0
    outer loop
      vertex 22.8 10.55 0
      vertex 22.8 10.55 10
      vertex 18.2944 10.55 5.94046
    endloop
  endfacet
  facet normal 0 -1 0
    outer loop
      vertex 22.8 10.55 0
      vertex 18.6 10.55 5
      vertex 18.2944 10.55 4.05954
    endloop
  endfacet
  facet normal -0 -1 0
    outer loop
      vertex 9.55516 10.55 0
      vertex 22.8 10.55 0
      vertex 17.4944 10.55 3.47831
    endloop
  endfacet
  facet normal 0 -1 0
    outer loop
      vertex 9.55516 10.55 0
      vertex 17.4944 10.55 3.47831
      vertex 16.5056 10.55 3.47831
    endloop
  endfacet
  facet normal 0 -1 0
    outer loop
      vertex 9.55516 10.55 0
      vertex 15.7056 10.55 4.05954
      vertex 15.4 10.55 5
    endloop
  endfacet
  facet normal 0 -1 0
    outer loop
      vertex 9.55516 10.55 0
      vertex 16.5056 10.55 3.47831
      vertex 15.7056 10.55 4.05954
    endloop
  endfacet
  facet normal 0 -1 -0
    outer loop
      vertex 15.4 10.55 5
      vertex 15.7056 10.55 5.94046
      vertex 9.55516 10.55 10
    endloop
  endfacet
  facet normal 0 -1 0
    outer loop
      vertex 18.2944 10.55 4.05954
      vertex 17.4944 10.55 3.47831
      vertex 22.8 10.55 0
    endloop
  endfacet
  facet normal 1 0 -0
    outer loop
      vertex 22.8 10.55 10
      vertex 22.8 10.55 0
      vertex 22.8 14.6 0
    endloop
  endfacet
  facet normal 1 0 0
    outer loop
      vertex 22.8 14.6 10
      vertex 22.8 10.55 10
      vertex 22.8 14.6 0
    endloop
  endfacet
  facet normal 0 1 -0
    outer loop
      vertex 22.77 14.6 5
      vertex 22.8 14.6 0
      vertex 19.885 14.6 0.003033
    endloop
  endfacet
  facet normal 0 1 0
    outer loop
      vertex 19.885 14.6 9.99697
      vertex 7.3 14.6 10
      vertex 22.8 14.6 10
    endloop
  endfacet
  facet normal 0 1 0
    outer loop
      vertex 7.3 14.6 0
      vertex 7.3 14.6 10
      vertex 11.23 14.6 5
    endloop
  endfacet
  facet normal 0 1 0
    outer loop
      vertex 7.3 14.6 0
      vertex 11.23 14.6 5
      vertex 14.115 14.6 0.003033
    endloop
  endfacet
  facet normal 0 1 0
    outer loop
      vertex 7.3 14.6 0
      vertex 14.115 14.6 0.003033
      vertex 22.8 14.6 0
    endloop
  endfacet
  facet normal 0 1 0
    outer loop
      vertex 14.115 14.6 0.003033
      vertex 19.885 14.6 0.003033
      vertex 22.8 14.6 0
    endloop
  endfacet
  facet normal 0 1 0
    outer loop
      vertex 22.8 14.6 0
      vertex 22.77 14.6 5
      vertex 22.8 14.6 10
    endloop
  endfacet
  facet normal 0 1 0
    outer loop
      vertex 14.115 14.6 9.99697
      vertex 7.3 14.6 10
      vertex 19.885 14.6 9.99697
    endloop
  endfacet
  facet normal 0 1 0
    outer loop
      vertex 22.77 14.6 5
      vertex 19.885 14.6 9.99697
      vertex 22.8 14.6 10
    endloop
  endfacet
  facet normal 0 1 0
    outer loop
      vertex 11.23 14.6 5
      vertex 7.3 14.6 10
      vertex 14.115 14.6 9.99697
    endloop
  endfacet
  facet normal -0.156434 0.987688 0
    outer loop
      vertex 5.04418 14.2427 0
      vertex 5.04418 14.2427 10
      vertex 7.3 14.6 0
    endloop
  endfacet
  facet normal -0.156434 0.987688 0
    outer loop
      vertex 7.3 14.6 0
      vertex 5.04418 14.2427 10
      vertex 7.3 14.6 10
    endloop
  endfacet
  facet normal -0.453991 0.891006 0
    outer loop
      vertex 3.00917 13.2058 0
      vertex 3.00917 13.2058 10
      vertex 5.04418 14.2427 0
    endloop
  endfacet
  facet normal -0.453991 0.891006 0
    outer loop
      vertex 5.04418 14.2427 0
      vertex 3.00917 13.2058 10
      vertex 5.04418 14.2427 10
    endloop
  endfacet
  facet normal -0.707107 0.707107 0
    outer loop
      vertex 1.39418 11.5908 0
      vertex 1.39418 11.5908 10
      vertex 3.00917 13.2058 0
    endloop
  endfacet
  facet normal -0.707107 0.707107 0
    outer loop
      vertex 3.00917 13.2058 0
      vertex 1.39418 11.5908 10
      vertex 3.00917 13.2058 10
    endloop
  endfacet
  facet normal -0.891006 0.453991 0
    outer loop
      vertex 0.357287 9.55582 0
      vertex 0.357287 9.55582 10
      vertex 1.39418 11.5908 0
    endloop
  endfacet
  facet normal -0.891006 0.453991 0
    outer loop
      vertex 1.39418 11.5908 0
      vertex 0.357287 9.55582 10
      vertex 1.39418 11.5908 10
    endloop
  endfacet
  facet normal -0.987688 0.156434 0
    outer loop
      vertex 0 7.3 0
      vertex 0 7.3 10
      vertex 0.357287 9.55582 0
    endloop
  endfacet
  facet normal -0.987688 0.156434 0
    outer loop
      vertex 0.357287 9.55582 0
      vertex 0 7.3 10
      vertex 0.357287 9.55582 10
    endloop
  endfacet
  facet normal -0.987688 -0.156434 -0
    outer loop
      vertex 0 7.3 0
      vertex 0.357287 5.04418 0
      vertex 0 7.3 10
    endloop
  endfacet
  facet normal -0.987688 -0.156434 0
    outer loop
      vertex 0 7.3 10
      vertex 0.357287 5.04418 0
      vertex 0.357287 5.04418 10
    endloop
  endfacet
  facet normal 0 -0 1
    outer loop
      vertex -61 0 8
      vertex -61 -3 8
      vertex -55 -3 8
    endloop
  endfacet
  facet normal 0 0 1
    outer loop
      vertex -55 0 8
      vertex -61 0 8
      vertex -55 -3 8
    endloop
  endfacet
  facet normal -1 -0 -0
    outer loop
      vertex -13 -3 9.5
      vertex -13 -3 14.5
      vertex -13 0 6.5
    endloop
  endfacet
  facet normal -1 0 0
    outer loop
      vertex -13 0 6.5
      vertex -13 -3 14.5
      vertex -13 0 14.5
    endloop
  endfacet
  facet normal -0 -0.707107 -0.707107
    outer loop
      vertex -13 0 6.5
      vertex -7 0 6.5
      vertex -7 -3 9.5
    endloop
  endfacet
  facet normal -0 -0.707107 -0.707107
    outer loop
      vertex -13 -3 9.5
      vertex -13 0 6.5
      vertex -7 -3 9.5
    endloop
  endfacet
  facet normal 1 0 -0
    outer loop
      vertex -7 -3 14.5
      vertex -7 -3 9.5
      vertex -7 0 6.5
    endloop
  endfacet
  facet normal 1 0 0
    outer loop
      vertex -7 0 14.5
      vertex -7 -3 14.5
      vertex -7 0 6.5
    endloop
  endfacet
  facet normal 0 -0 1
    outer loop
      vertex -13 0 14.5
      vertex -13 -3 14.5
      vertex -7 -3 14.5
    endloop
  endfacet
  facet normal 0 0 1
    outer loop
      vertex -7 0 14.5
      vertex -13 0 14.5
      vertex -7 -3 14.5
    endloop
  endfacet
  facet normal 0.587785 1.7742e-016 0.809017
    outer loop
      vertex 16.5056 0 3.47831
      vertex 16.5056 4.05 3.47831
      vertex 15.7056 4.05 4.05954
    endloop
  endfacet
  facet normal 0.587785 1.7742e-016 0.809017
    outer loop
      vertex 15.7056 0 4.05954
      vertex 16.5056 0 3.47831
      vertex 15.7056 4.05 4.05954
    endloop
  endfacet
  facet normal 0.951056 6.77685e-017 0.309017
    outer loop
      vertex 15.7056 0 4.05954
      vertex 15.7056 4.05 4.05954
      vertex 15.4 4.05 5
    endloop
  endfacet
  facet normal 0.951056 6.77685e-017 0.309017
    outer loop
      vertex 15.4 0 5
      vertex 15.7056 0 4.05954
      vertex 15.4 4.05 5
    endloop
  endfacet
  facet normal 0 2.19303e-016 1
    outer loop
      vertex 17.4944 0 3.47831
      vertex 17.4944 4.05 3.47831
      vertex 16.5056 4.05 3.47831
    endloop
  endfacet
  facet normal 0 2.19303e-016 1
    outer loop
      vertex 16.5056 0 3.47831
      vertex 17.4944 0 3.47831
      vertex 16.5056 4.05 3.47831
    endloop
  endfacet
  facet normal -0.587785 1.7742e-016 0.809017
    outer loop
      vertex 18.2944 0 4.05954
      vertex 18.2944 4.05 4.05954
      vertex 17.4944 4.05 3.47831
    endloop
  endfacet
  facet normal -0.587785 1.7742e-016 0.809017
    outer loop
      vertex 17.4944 0 3.47831
      vertex 18.2944 0 4.05954
      vertex 17.4944 4.05 3.47831
    endloop
  endfacet
  facet normal -0.951056 6.77685e-017 0.309017
    outer loop
      vertex 18.6 4.05 5
      vertex 18.2944 4.05 4.05954
      vertex 18.6 0 5
    endloop
  endfacet
  facet normal -0.951056 7.10482e-017 0.309017
    outer loop
      vertex 18.6 0 5
      vertex 18.2944 4.05 4.05954
      vertex 18.2944 0 4.05954
    endloop
  endfacet
  facet normal -0.951056 -6.77685e-017 -0.309017
    outer loop
      vertex 18.6 4.05 5
      vertex 18.6 0 5
      vertex 18.2944 4.05 5.94046
    endloop
  endfacet
  facet normal -0.951056 -1.35537e-016 -0.309017
    outer loop
      vertex 18.2944 4.05 5.94046
      vertex 18.6 0 5
      vertex 18.2944 0 5.94046
    endloop
  endfacet
  facet normal -0.587785 -3.5484e-016 -0.809017
    outer loop
      vertex 18.2944 4.05 5.94046
      vertex 18.2944 0 5.94046
      vertex 17.4944 4.05 6.52169
    endloop
  endfacet
  facet normal -0.587785 -1.7742e-016 -0.809017
    outer loop
      vertex 17.4944 4.05 6.52169
      vertex 18.2944 0 5.94046
      vertex 17.4944 0 6.52169
    endloop
  endfacet
  facet normal 0 -2.19303e-016 -1
    outer loop
      vertex 17.4944 4.05 6.52169
      vertex 17.4944 0 6.52169
      vertex 16.5056 4.05 6.52169
    endloop
  endfacet
  facet normal 0 -2.19303e-016 -1
    outer loop
      vertex 16.5056 4.05 6.52169
      vertex 17.4944 0 6.52169
      vertex 16.5056 0 6.52169
    endloop
  endfacet
  facet normal 0.587785 -1.7742e-016 -0.809017
    outer loop
      vertex 16.5056 4.05 6.52169
      vertex 16.5056 0 6.52169
      vertex 15.7056 4.05 5.94046
    endloop
  endfacet
  facet normal 0.587785 -3.5484e-016 -0.809017
    outer loop
      vertex 15.7056 4.05 5.94046
      vertex 16.5056 0 6.52169
      vertex 15.7056 0 5.94046
    endloop
  endfacet
  facet normal 0.951056 -1.42096e-016 -0.309017
    outer loop
      vertex 15.4 4.05 5
      vertex 15.7056 4.05 5.94046
      vertex 15.7056 0 5.94046
    endloop
  endfacet
  facet normal 0.951056 -6.77685e-017 -0.309017
    outer loop
      vertex 15.4 0 5
      vertex 15.4 4.05 5
      vertex 15.7056 0 5.94046
    endloop
  endfacet
  facet normal 0 1 -4.23554e-016
    outer loop
      vertex -11.6743 7 14.9
      vertex -12.885 7 16.997
      vertex -7.115 7 16.997
    endloop
  endfacet
  facet normal 0 1 -1.77744e-016
    outer loop
      vertex -6.65137 7 12
      vertex -7.115 7 16.997
      vertex -4.23 7 12
    endloop
  endfacet
  facet normal 0 1 -1.77744e-016
    outer loop
      vertex -15.77 7 12
      vertex -12.885 7 16.997
      vertex -13.3486 7 12
    endloop
  endfacet
  facet normal 0 1 -3.55487e-016
    outer loop
      vertex -15.77 7 12
      vertex -13.3486 7 12
      vertex -12.885 7 7.00303
    endloop
  endfacet
  facet normal 0 1 -3.06268e-016
    outer loop
      vertex -6.65137 7 12
      vertex -4.23 7 12
      vertex -8.32568 7 9.1
    endloop
  endfacet
  facet normal -3.66808e-016 1 -2.11777e-016
    outer loop
      vertex -8.32568 7 14.9
      vertex -7.115 7 16.997
      vertex -6.65137 7 12
    endloop
  endfacet
  facet normal 0 1 -4.23554e-016
    outer loop
      vertex -12.885 7 7.00303
      vertex -11.6743 7 9.1
      vertex -8.32568 7 9.1
    endloop
  endfacet
  facet normal -1.01572e-016 1 -3.64911e-016
    outer loop
      vertex -11.6743 7 9.1
      vertex -12.885 7 7.00303
      vertex -13.3486 7 12
    endloop
  endfacet
  facet normal 5.89477e-017 1 -3.8952e-016
    outer loop
      vertex -8.32568 7 9.1
      vertex -4.23 7 12
      vertex -7.115 7 7.00303
    endloop
  endfacet
  facet normal 3.66808e-016 1 -2.11777e-016
    outer loop
      vertex -13.3486 7 12
      vertex -12.885 7 16.997
      vertex -11.6743 7 14.9
    endloop
  endfacet
  facet normal 0 1 -4.23554e-016
    outer loop
      vertex -12.885 7 7.00303
      vertex -8.32568 7 9.1
      vertex -7.115 7 7.00303
    endloop
  endfacet
  facet normal 0 1 -4.23554e-016
    outer loop
      vertex -11.6743 7 14.9
      vertex -7.115 7 16.997
      vertex -8.32568 7 14.9
    endloop
  endfacet
  facet normal 0 1 -0
    outer loop
      vertex -56.3257 4 7.9
      vertex -54.6514 4 5
      vertex -59.6743 4 7.9
    endloop
  endfacet
  facet normal -1.03265e-016 1 -2.46648e-016
    outer loop
      vertex -56.7056 4 4.05954
      vertex -54.6514 4 5
      vertex -56.3257 4 2.1
    endloop
  endfacet
  facet normal 0 1 -3.22198e-016
    outer loop
      vertex -58.4944 4 3.47831
      vertex -56.3257 4 2.1
      vertex -59.6743 4 2.1
    endloop
  endfacet
  facet normal 2.65236e-016 1 -1.53134e-016
    outer loop
      vertex -59.6743 4 7.9
      vertex -59.6743 4 2.1
      vertex -61.3486 4 5
    endloop
  endfacet
  facet normal 1.44327e-016 1 -1.98649e-016
    outer loop
      vertex -56.7056 4 4.05954
      vertex -56.3257 4 2.1
      vertex -57.5056 4 3.47831
    endloop
  endfacet
  facet normal 4.73369e-016 1 -3.18399e-016
    outer loop
      vertex -59.6 4 5
      vertex -59.2944 4 4.05954
      vertex -59.6743 4 2.1
    endloop
  endfacet
  facet normal -1.44327e-016 1 -1.98649e-016
    outer loop
      vertex -59.2944 4 4.05954
      vertex -58.4944 4 3.47831
      vertex -59.6743 4 2.1
    endloop
  endfacet
  facet normal -2.39847e-031 1 -4.72206e-016
    outer loop
      vertex -56.4 4 5
      vertex -54.6514 4 5
      vertex -56.7056 4 4.05954
    endloop
  endfacet
  facet normal 0 1 0
    outer loop
      vertex -58.4944 4 6.52169
      vertex -59.6743 4 7.9
      vertex -57.5056 4 6.52169
    endloop
  endfacet
  facet normal 0 1 0
    outer loop
      vertex -56.7056 4 5.94046
      vertex -54.6514 4 5
      vertex -56.4 4 5
    endloop
  endfacet
  facet normal 0 1 0
    outer loop
      vertex -57.5056 4 6.52169
      vertex -54.6514 4 5
      vertex -56.7056 4 5.94046
    endloop
  endfacet
  facet normal 0 1 0
    outer loop
      vertex -59.6743 4 7.9
      vertex -54.6514 4 5
      vertex -57.5056 4 6.52169
    endloop
  endfacet
  facet normal 0 1 0
    outer loop
      vertex -59.2944 4 5.94046
      vertex -59.6743 4 7.9
      vertex -58.4944 4 6.52169
    endloop
  endfacet
  facet normal 0 1 0
    outer loop
      vertex -59.6 4 5
      vertex -59.6743 4 7.9
      vertex -59.2944 4 5.94046
    endloop
  endfacet
  facet normal -5.97569e-015 1 -1.53134e-016
    outer loop
      vertex -59.6743 4 7.9
      vertex -59.6 4 5
      vertex -59.6743 4 2.1
    endloop
  endfacet
  facet normal 0 1 -3.22198e-016
    outer loop
      vertex -57.5056 4 3.47831
      vertex -56.3257 4 2.1
      vertex -58.4944 4 3.47831
    endloop
  endfacet
  facet normal 0 -1 0
    outer loop
      vertex -58.4944 -3 3.47831
      vertex -61 -3 1.73205
      vertex -55 -3 1.73205
    endloop
  endfacet
  facet normal 0 -1 0
    outer loop
      vertex -61 -3 8
      vertex -61 -3 1.73205
      vertex -59.2944 -3 4.05954
    endloop
  endfacet
  facet normal 0 -1 0
    outer loop
      vertex -57.5056 -3 3.47831
      vertex -58.4944 -3 3.47831
      vertex -55 -3 1.73205
    endloop
  endfacet
  facet normal 0 -1 0
    outer loop
      vertex -61 -3 8
      vertex -59.2944 -3 4.05954
      vertex -59.6 -3 5
    endloop
  endfacet
  facet normal 0 -1 0
    outer loop
      vertex -56.4 -3 5
      vertex -56.7056 -3 4.05954
      vertex -55 -3 1.73205
    endloop
  endfacet
  facet normal 0 -1 0
    outer loop
      vertex -61 -3 8
      vertex -59.6 -3 5
      vertex -59.2944 -3 5.94046
    endloop
  endfacet
  facet normal 0 -1 0
    outer loop
      vertex -55 -3 8
      vertex -61 -3 8
      vertex -58.4944 -3 6.52169
    endloop
  endfacet
  facet normal 0 -1 0
    outer loop
      vertex -56.7056 -3 4.05954
      vertex -57.5056 -3 3.47831
      vertex -55 -3 1.73205
    endloop
  endfacet
  facet normal 0 -1 0
    outer loop
      vertex -55 -3 8
      vertex -58.4944 -3 6.52169
      vertex -57.5056 -3 6.52169
    endloop
  endfacet
  facet normal 0 -1 0
    outer loop
      vertex -55 -3 8
      vertex -56.7056 -3 5.94046
      vertex -55 -3 1.73205
    endloop
  endfacet
  facet normal 0 -1 0
    outer loop
      vertex -55 -3 8
      vertex -57.5056 -3 6.52169
      vertex -56.7056 -3 5.94046
    endloop
  endfacet
  facet normal 0 -1 0
    outer loop
      vertex -56.7056 -3 5.94046
      vertex -56.4 -3 5
      vertex -55 -3 1.73205
    endloop
  endfacet
  facet normal 0 -1 0
    outer loop
      vertex -59.2944 -3 4.05954
      vertex -61 -3 1.73205
      vertex -58.4944 -3 3.47831
    endloop
  endfacet
  facet normal 0 -1 -0
    outer loop
      vertex -59.2944 -3 5.94046
      vertex -58.4944 -3 6.52169
      vertex -61 -3 8
    endloop
  endfacet
  facet normal 0.951056 -6.92939e-017 -0.309017
    outer loop
      vertex 15.4 14.5 5
      vertex 15.7056 14.5 5.94046
      vertex 15.7056 10.55 5.94046
    endloop
  endfacet
  facet normal 0.951056 -6.94842e-017 -0.309017
    outer loop
      vertex 15.4 10.55 5
      vertex 15.4 14.5 5
      vertex 15.7056 10.55 5.94046
    endloop
  endfacet
  facet normal 0.951056 6.94842e-017 0.309017
    outer loop
      vertex 15.7056 10.55 4.05954
      vertex 15.7056 14.5 4.05954
      vertex 15.4 14.5 5
    endloop
  endfacet
  facet normal 0.951056 6.94842e-017 0.309017
    outer loop
      vertex 15.4 10.55 5
      vertex 15.7056 10.55 4.05954
      vertex 15.4 14.5 5
    endloop
  endfacet
  facet normal 0.587785 1.81912e-016 0.809017
    outer loop
      vertex 16.5056 10.55 3.47831
      vertex 16.5056 14.5 3.47831
      vertex 15.7056 14.5 4.05954
    endloop
  endfacet
  facet normal 0.587785 1.81912e-016 0.809017
    outer loop
      vertex 15.7056 10.55 4.05954
      vertex 16.5056 10.55 3.47831
      vertex 15.7056 14.5 4.05954
    endloop
  endfacet
  facet normal 0 2.24855e-016 1
    outer loop
      vertex 17.4944 10.55 3.47831
      vertex 17.4944 14.5 3.47831
      vertex 16.5056 14.5 3.47831
    endloop
  endfacet
  facet normal 0 2.24855e-016 1
    outer loop
      vertex 16.5056 10.55 3.47831
      vertex 17.4944 10.55 3.47831
      vertex 16.5056 14.5 3.47831
    endloop
  endfacet
  facet normal -0.587785 1.81912e-016 0.809017
    outer loop
      vertex 18.2944 10.55 4.05954
      vertex 18.2944 14.5 4.05954
      vertex 17.4944 14.5 3.47831
    endloop
  endfacet
  facet normal -0.587785 1.81912e-016 0.809017
    outer loop
      vertex 17.4944 10.55 3.47831
      vertex 18.2944 10.55 4.05954
      vertex 17.4944 14.5 3.47831
    endloop
  endfacet
  facet normal -0.951056 6.94842e-017 0.309017
    outer loop
      vertex 18.6 14.5 5
      vertex 18.2944 14.5 4.05954
      vertex 18.6 10.55 5
    endloop
  endfacet
  facet normal -0.951056 6.92939e-017 0.309017
    outer loop
      vertex 18.6 10.55 5
      vertex 18.2944 14.5 4.05954
      vertex 18.2944 10.55 4.05954
    endloop
  endfacet
  facet normal -0.951056 -6.94842e-017 -0.309017
    outer loop
      vertex 18.6 14.5 5
      vertex 18.6 10.55 5
      vertex 18.2944 14.5 5.94046
    endloop
  endfacet
  facet normal -0.951056 -6.94842e-017 -0.309017
    outer loop
      vertex 18.2944 14.5 5.94046
      vertex 18.6 10.55 5
      vertex 18.2944 10.55 5.94046
    endloop
  endfacet
  facet normal -0.587785 -1.81912e-016 -0.809017
    outer loop
      vertex 18.2944 14.5 5.94046
      vertex 18.2944 10.55 5.94046
      vertex 17.4944 14.5 6.52169
    endloop
  endfacet
  facet normal -0.587785 -1.81912e-016 -0.809017
    outer loop
      vertex 17.4944 14.5 6.52169
      vertex 18.2944 10.55 5.94046
      vertex 17.4944 10.55 6.52169
    endloop
  endfacet
  facet normal 0 -2.24855e-016 -1
    outer loop
      vertex 17.4944 14.5 6.52169
      vertex 17.4944 10.55 6.52169
      vertex 16.5056 14.5 6.52169
    endloop
  endfacet
  facet normal 0 -2.24855e-016 -1
    outer loop
      vertex 16.5056 14.5 6.52169
      vertex 17.4944 10.55 6.52169
      vertex 16.5056 10.55 6.52169
    endloop
  endfacet
  facet normal 0.587785 -1.81912e-016 -0.809017
    outer loop
      vertex 16.5056 14.5 6.52169
      vertex 16.5056 10.55 6.52169
      vertex 15.7056 14.5 5.94046
    endloop
  endfacet
  facet normal 0.587785 -1.81912e-016 -0.809017
    outer loop
      vertex 15.7056 14.5 5.94046
      vertex 16.5056 10.55 6.52169
      vertex 15.7056 10.55 5.94046
    endloop
  endfacet
  facet normal -0.866025 0 0.5
    outer loop
      vertex 11.23 14.6 5
      vertex 14.115 14.6 9.99697
      vertex 11.23 17.5 5
    endloop
  endfacet
  facet normal -0.866025 0 0.5
    outer loop
      vertex 11.23 17.5 5
      vertex 14.115 14.6 9.99697
      vertex 14.115 17.5 9.99697
    endloop
  endfacet
  facet normal -0.866025 -0 -0.5
    outer loop
      vertex 11.23 14.6 5
      vertex 11.23 17.5 5
      vertex 14.115 14.6 0.003033
    endloop
  endfacet
  facet normal -0.866025 -1.10962e-016 -0.5
    outer loop
      vertex 14.115 14.6 0.003033
      vertex 11.23 17.5 5
      vertex 14.115 17.5 0.003033
    endloop
  endfacet
  facet normal 0 -0 1
    outer loop
      vertex 14.115 17.5 9.99697
      vertex 14.115 14.6 9.99697
      vertex 19.885 14.6 9.99697
    endloop
  endfacet
  facet normal 0 0 1
    outer loop
      vertex 19.885 17.5 9.99697
      vertex 14.115 17.5 9.99697
      vertex 19.885 14.6 9.99697
    endloop
  endfacet
  facet normal 0.866025 -0 0.5
    outer loop
      vertex 19.885 17.5 9.99697
      vertex 19.885 14.6 9.99697
      vertex 22.77 14.6 5
    endloop
  endfacet
  facet normal 0.866025 -0 0.5
    outer loop
      vertex 22.77 17.5 5
      vertex 19.885 17.5 9.99697
      vertex 22.77 14.6 5
    endloop
  endfacet
  facet normal 0.866025 -1.65672e-016 -0.5
    outer loop
      vertex 22.77 14.6 5
      vertex 19.885 14.6 0.003033
      vertex 19.885 17.5 0.003033
    endloop
  endfacet
  facet normal 0.866025 0 -0.5
    outer loop
      vertex 22.77 17.5 5
      vertex 22.77 14.6 5
      vertex 19.885 17.5 0.003033
    endloop
  endfacet
  facet normal -0 -2.21925e-016 -1
    outer loop
      vertex 14.115 14.6 0.003033
      vertex 14.115 17.5 0.003033
      vertex 19.885 14.6 0.003033
    endloop
  endfacet
  facet normal 0 -2.21925e-016 -1
    outer loop
      vertex 19.885 14.6 0.003033
      vertex 14.115 17.5 0.003033
      vertex 19.885 17.5 0.003033
    endloop
  endfacet
  facet normal 0 -1 0
    outer loop
      vertex -10.4944 -3 10.4783
      vertex -13 -3 9.5
      vertex -7 -3 9.5
    endloop
  endfacet
  facet normal 0 -1 0
    outer loop
      vertex -13 -3 14.5
      vertex -13 -3 9.5
      vertex -11.2944 -3 11.0595
    endloop
  endfacet
  facet normal 0 -1 0
    outer loop
      vertex -9.50557 -3 10.4783
      vertex -10.4944 -3 10.4783
      vertex -7 -3 9.5
    endloop
  endfacet
  facet normal 0 -1 0
    outer loop
      vertex -13 -3 14.5
      vertex -11.2944 -3 11.0595
      vertex -11.6 -3 12
    endloop
  endfacet
  facet normal 0 -1 0
    outer loop
      vertex -8.4 -3 12
      vertex -8.70557 -3 11.0595
      vertex -7 -3 9.5
    endloop
  endfacet
  facet normal 0 -1 0
    outer loop
      vertex -13 -3 14.5
      vertex -11.6 -3 12
      vertex -11.2944 -3 12.9405
    endloop
  endfacet
  facet normal 0 -1 0
    outer loop
      vertex -7 -3 14.5
      vertex -13 -3 14.5
      vertex -10.4944 -3 13.5217
    endloop
  endfacet
  facet normal 0 -1 0
    outer loop
      vertex -8.70557 -3 11.0595
      vertex -9.50557 -3 10.4783
      vertex -7 -3 9.5
    endloop
  endfacet
  facet normal 0 -1 0
    outer loop
      vertex -7 -3 14.5
      vertex -10.4944 -3 13.5217
      vertex -9.50557 -3 13.5217
    endloop
  endfacet
  facet normal 0 -1 0
    outer loop
      vertex -7 -3 14.5
      vertex -8.70557 -3 12.9405
      vertex -7 -3 9.5
    endloop
  endfacet
  facet normal 0 -1 0
    outer loop
      vertex -7 -3 14.5
      vertex -9.50557 -3 13.5217
      vertex -8.70557 -3 12.9405
    endloop
  endfacet
  facet normal 0 -1 0
    outer loop
      vertex -8.70557 -3 12.9405
      vertex -8.4 -3 12
      vertex -7 -3 9.5
    endloop
  endfacet
  facet normal 0 -1 0
    outer loop
      vertex -11.2944 -3 11.0595
      vertex -13 -3 9.5
      vertex -10.4944 -3 10.4783
    endloop
  endfacet
  facet normal 0 -1 -0
    outer loop
      vertex -11.2944 -3 12.9405
      vertex -10.4944 -3 13.5217
      vertex -13 -3 14.5
    endloop
  endfacet
  facet normal 0.866025 -2.98391e-016 -0.5
    outer loop
      vertex -13.3486 7 12
      vertex -11.6743 7 14.9
      vertex -11.6743 4 14.9
    endloop
  endfacet
  facet normal 0.866025 0 -0.5
    outer loop
      vertex -13.3486 4 12
      vertex -13.3486 7 12
      vertex -11.6743 4 14.9
    endloop
  endfacet
  facet normal 0.866025 0 0.5
    outer loop
      vertex -11.6743 4 9.1
      vertex -11.6743 7 9.1
      vertex -13.3486 7 12
    endloop
  endfacet
  facet normal 0.866025 0 0.5
    outer loop
      vertex -13.3486 4 12
      vertex -11.6743 4 9.1
      vertex -13.3486 7 12
    endloop
  endfacet
  facet normal 0 -5.92119e-016 -1
    outer loop
      vertex -8.32568 7 14.9
      vertex -8.32568 4 14.9
      vertex -11.6743 7 14.9
    endloop
  endfacet
  facet normal 0 -5.92119e-016 -1
    outer loop
      vertex -11.6743 7 14.9
      vertex -8.32568 4 14.9
      vertex -11.6743 4 14.9
    endloop
  endfacet
  facet normal -0.866025 0 -0.5
    outer loop
      vertex -6.65137 7 12
      vertex -6.65137 4 12
      vertex -8.32568 7 14.9
    endloop
  endfacet
  facet normal -0.866025 -2.9606e-016 -0.5
    outer loop
      vertex -8.32568 7 14.9
      vertex -6.65137 4 12
      vertex -8.32568 4 14.9
    endloop
  endfacet
  facet normal -0.866025 0 0.5
    outer loop
      vertex -6.65137 7 12
      vertex -8.32568 7 9.1
      vertex -6.65137 4 12
    endloop
  endfacet
  facet normal -0.866025 0 0.5
    outer loop
      vertex -6.65137 4 12
      vertex -8.32568 7 9.1
      vertex -8.32568 4 9.1
    endloop
  endfacet
  facet normal 0 0 1
    outer loop
      vertex -8.32568 4 9.1
      vertex -8.32568 7 9.1
      vertex -11.6743 7 9.1
    endloop
  endfacet
  facet normal 0 0 1
    outer loop
      vertex -11.6743 4 9.1
      vertex -8.32568 4 9.1
      vertex -11.6743 7 9.1
    endloop
  endfacet
  facet normal 0.587785 2.053e-016 0.809017
    outer loop
      vertex -58.4944 -3 3.47831
      vertex -58.4944 4 3.47831
      vertex -59.2944 4 4.05954
    endloop
  endfacet
  facet normal 0.587785 1.0265e-016 0.809017
    outer loop
      vertex -59.2944 -3 4.05954
      vertex -58.4944 -3 3.47831
      vertex -59.2944 4 4.05954
    endloop
  endfacet
  facet normal 0.951056 3.92089e-017 0.309017
    outer loop
      vertex -59.2944 -3 4.05954
      vertex -59.2944 4 4.05954
      vertex -59.6 4 5
    endloop
  endfacet
  facet normal 0.951056 7.84179e-017 0.309017
    outer loop
      vertex -59.6 -3 5
      vertex -59.2944 -3 4.05954
      vertex -59.6 4 5
    endloop
  endfacet
  facet normal 0.951056 -7.98196e-017 -0.309017
    outer loop
      vertex -59.6 4 5
      vertex -59.2944 4 5.94046
      vertex -59.2944 -3 5.94046
    endloop
  endfacet
  facet normal 0.951056 -7.84179e-017 -0.309017
    outer loop
      vertex -59.6 -3 5
      vertex -59.6 4 5
      vertex -59.2944 -3 5.94046
    endloop
  endfacet
  facet normal 0.587785 -2.053e-016 -0.809017
    outer loop
      vertex -58.4944 4 6.52169
      vertex -58.4944 -3 6.52169
      vertex -59.2944 4 5.94046
    endloop
  endfacet
  facet normal 0.587785 -2.053e-016 -0.809017
    outer loop
      vertex -59.2944 4 5.94046
      vertex -58.4944 -3 6.52169
      vertex -59.2944 -3 5.94046
    endloop
  endfacet
  facet normal 0 -2.53765e-016 -1
    outer loop
      vertex -57.5056 4 6.52169
      vertex -57.5056 -3 6.52169
      vertex -58.4944 4 6.52169
    endloop
  endfacet
  facet normal 0 -2.53765e-016 -1
    outer loop
      vertex -58.4944 4 6.52169
      vertex -57.5056 -3 6.52169
      vertex -58.4944 -3 6.52169
    endloop
  endfacet
  facet normal -0.587785 -2.053e-016 -0.809017
    outer loop
      vertex -56.7056 4 5.94046
      vertex -56.7056 -3 5.94046
      vertex -57.5056 4 6.52169
    endloop
  endfacet
  facet normal -0.587785 -2.053e-016 -0.809017
    outer loop
      vertex -57.5056 4 6.52169
      vertex -56.7056 -3 5.94046
      vertex -57.5056 -3 6.52169
    endloop
  endfacet
  facet normal -0.951056 -7.84179e-017 -0.309017
    outer loop
      vertex -56.4 4 5
      vertex -56.4 -3 5
      vertex -56.7056 4 5.94046
    endloop
  endfacet
  facet normal -0.951056 -7.84179e-017 -0.309017
    outer loop
      vertex -56.7056 4 5.94046
      vertex -56.4 -3 5
      vertex -56.7056 -3 5.94046
    endloop
  endfacet
  facet normal -0.951056 7.84179e-017 0.309017
    outer loop
      vertex -56.4 4 5
      vertex -56.7056 4 4.05954
      vertex -56.4 -3 5
    endloop
  endfacet
  facet normal -0.951056 4.29798e-017 0.309017
    outer loop
      vertex -56.4 -3 5
      vertex -56.7056 4 4.05954
      vertex -56.7056 -3 4.05954
    endloop
  endfacet
  facet normal -0.587785 1.0265e-016 0.809017
    outer loop
      vertex -56.7056 -3 4.05954
      vertex -56.7056 4 4.05954
      vertex -57.5056 4 3.47831
    endloop
  endfacet
  facet normal -0.587785 2.053e-016 0.809017
    outer loop
      vertex -57.5056 -3 3.47831
      vertex -56.7056 -3 4.05954
      vertex -57.5056 4 3.47831
    endloop
  endfacet
  facet normal 0 2.53765e-016 1
    outer loop
      vertex -57.5056 -3 3.47831
      vertex -57.5056 4 3.47831
      vertex -58.4944 4 3.47831
    endloop
  endfacet
  facet normal 0 2.53765e-016 1
    outer loop
      vertex -58.4944 -3 3.47831
      vertex -57.5056 -3 3.47831
      vertex -58.4944 4 3.47831
    endloop
  endfacet
  facet normal 0 1 -0
    outer loop
      vertex 18.6743 14.5 7.9
      vertex 20.3486 14.5 5
      vertex 15.3257 14.5 7.9
    endloop
  endfacet
  facet normal -7.94248e-016 1 -1.53978e-016
    outer loop
      vertex 18.2944 14.5 4.05954
      vertex 20.3486 14.5 5
      vertex 18.6743 14.5 2.1
    endloop
  endfacet
  facet normal 0 1 -0
    outer loop
      vertex 16.5056 14.5 3.47831
      vertex 18.6743 14.5 2.1
      vertex 15.3257 14.5 2.1
    endloop
  endfacet
  facet normal 5.30472e-016 1 -3.06268e-016
    outer loop
      vertex 15.3257 14.5 7.9
      vertex 15.3257 14.5 2.1
      vertex 13.6514 14.5 5
    endloop
  endfacet
  facet normal 0 1 -0
    outer loop
      vertex 18.2944 14.5 4.05954
      vertex 18.6743 14.5 2.1
      vertex 17.4944 14.5 3.47831
    endloop
  endfacet
  facet normal 0 1 -0
    outer loop
      vertex 15.4 14.5 5
      vertex 15.7056 14.5 4.05954
      vertex 15.3257 14.5 2.1
    endloop
  endfacet
  facet normal 0 1 -0
    outer loop
      vertex 15.7056 14.5 4.05954
      vertex 16.5056 14.5 3.47831
      vertex 15.3257 14.5 2.1
    endloop
  endfacet
  facet normal -1.01586e-015 1 3.30072e-016
    outer loop
      vertex 18.6 14.5 5
      vertex 20.3486 14.5 5
      vertex 18.2944 14.5 4.05954
    endloop
  endfacet
  facet normal 0 1 0
    outer loop
      vertex 16.5056 14.5 6.52169
      vertex 15.3257 14.5 7.9
      vertex 17.4944 14.5 6.52169
    endloop
  endfacet
  facet normal -1.01586e-015 1 -2.2189e-015
    outer loop
      vertex 18.2944 14.5 5.94046
      vertex 20.3486 14.5 5
      vertex 18.6 14.5 5
    endloop
  endfacet
  facet normal 0 1 0
    outer loop
      vertex 17.4944 14.5 6.52169
      vertex 20.3486 14.5 5
      vertex 18.2944 14.5 5.94046
    endloop
  endfacet
  facet normal 0 1 0
    outer loop
      vertex 15.3257 14.5 7.9
      vertex 20.3486 14.5 5
      vertex 17.4944 14.5 6.52169
    endloop
  endfacet
  facet normal 0 1 0
    outer loop
      vertex 15.7056 14.5 5.94046
      vertex 15.3257 14.5 7.9
      vertex 16.5056 14.5 6.52169
    endloop
  endfacet
  facet normal -3.64086e-015 1 -7.05838e-016
    outer loop
      vertex 15.4 14.5 5
      vertex 15.3257 14.5 7.9
      vertex 15.7056 14.5 5.94046
    endloop
  endfacet
  facet normal 1.19514e-014 1 -3.06268e-016
    outer loop
      vertex 15.3257 14.5 7.9
      vertex 15.4 14.5 5
      vertex 15.3257 14.5 2.1
    endloop
  endfacet
  facet normal 0 1 -0
    outer loop
      vertex 17.4944 14.5 3.47831
      vertex 18.6743 14.5 2.1
      vertex 16.5056 14.5 3.47831
    endloop
  endfacet
  facet normal 1.06095e-015 1 -6.12537e-016
    outer loop
      vertex 15.3257 17.5 2.1
      vertex 14.115 17.5 0.003033
      vertex 13.6514 17.5 5
    endloop
  endfacet
  facet normal 0 1 0
    outer loop
      vertex 15.3257 17.5 7.9
      vertex 14.115 17.5 9.99697
      vertex 19.885 17.5 9.99697
    endloop
  endfacet
  facet normal 0 1 0
    outer loop
      vertex 20.3486 17.5 5
      vertex 19.885 17.5 9.99697
      vertex 22.77 17.5 5
    endloop
  endfacet
  facet normal -6.15722e-016 1 -3.55487e-016
    outer loop
      vertex 18.6743 17.5 2.1
      vertex 22.77 17.5 5
      vertex 19.885 17.5 0.003033
    endloop
  endfacet
  facet normal 0 1 0
    outer loop
      vertex 11.23 17.5 5
      vertex 14.115 17.5 9.99697
      vertex 13.6514 17.5 5
    endloop
  endfacet
  facet normal 0 1 -7.10974e-016
    outer loop
      vertex 11.23 17.5 5
      vertex 13.6514 17.5 5
      vertex 14.115 17.5 0.003033
    endloop
  endfacet
  facet normal 0 1 -1.22507e-015
    outer loop
      vertex 20.3486 17.5 5
      vertex 22.77 17.5 5
      vertex 18.6743 17.5 2.1
    endloop
  endfacet
  facet normal 0 1 0
    outer loop
      vertex 14.115 17.5 0.003033
      vertex 18.6743 17.5 2.1
      vertex 19.885 17.5 0.003033
    endloop
  endfacet
  facet normal 0 1 0
    outer loop
      vertex 18.6743 17.5 7.9
      vertex 19.885 17.5 9.99697
      vertex 20.3486 17.5 5
    endloop
  endfacet
  facet normal 0 1 0
    outer loop
      vertex 13.6514 17.5 5
      vertex 14.115 17.5 9.99697
      vertex 15.3257 17.5 7.9
    endloop
  endfacet
  facet normal 0 1 0
    outer loop
      vertex 18.6743 17.5 2.1
      vertex 14.115 17.5 0.003033
      vertex 15.3257 17.5 2.1
    endloop
  endfacet
  facet normal 0 1 0
    outer loop
      vertex 15.3257 17.5 7.9
      vertex 19.885 17.5 9.99697
      vertex 18.6743 17.5 7.9
    endloop
  endfacet
  facet normal 0.951056 0 0.309017
    outer loop
      vertex -11.2944 -3 11.0595
      vertex -11.2944 4 11.0595
      vertex -11.6 4 12
    endloop
  endfacet
  facet normal 0.951056 7.84179e-017 0.309017
    outer loop
      vertex -11.6 -3 12
      vertex -11.2944 -3 11.0595
      vertex -11.6 4 12
    endloop
  endfacet
  facet normal 0.587785 2.053e-016 0.809017
    outer loop
      vertex -10.4944 -3 10.4783
      vertex -10.4944 4 10.4783
      vertex -11.2944 4 11.0595
    endloop
  endfacet
  facet normal 0.587785 0 0.809017
    outer loop
      vertex -11.2944 -3 11.0595
      vertex -10.4944 -3 10.4783
      vertex -11.2944 4 11.0595
    endloop
  endfacet
  facet normal 0 2.53765e-016 1
    outer loop
      vertex -9.50557 -3 10.4783
      vertex -9.50557 4 10.4783
      vertex -10.4944 4 10.4783
    endloop
  endfacet
  facet normal 0 2.53765e-016 1
    outer loop
      vertex -10.4944 -3 10.4783
      vertex -9.50557 -3 10.4783
      vertex -10.4944 4 10.4783
    endloop
  endfacet
  facet normal -0.587785 0 0.809017
    outer loop
      vertex -8.70557 -3 11.0595
      vertex -8.70557 4 11.0595
      vertex -9.50557 4 10.4783
    endloop
  endfacet
  facet normal -0.587785 2.053e-016 0.809017
    outer loop
      vertex -9.50557 -3 10.4783
      vertex -8.70557 -3 11.0595
      vertex -9.50557 4 10.4783
    endloop
  endfacet
  facet normal -0.951056 7.84179e-017 0.309017
    outer loop
      vertex -8.4 4 12
      vertex -8.70557 4 11.0595
      vertex -8.4 -3 12
    endloop
  endfacet
  facet normal -0.951056 0 0.309017
    outer loop
      vertex -8.4 -3 12
      vertex -8.70557 4 11.0595
      vertex -8.70557 -3 11.0595
    endloop
  endfacet
  facet normal -0.951056 -7.84179e-017 -0.309017
    outer loop
      vertex -8.4 4 12
      vertex -8.4 -3 12
      vertex -8.70557 4 12.9405
    endloop
  endfacet
  facet normal -0.951056 -7.84179e-017 -0.309017
    outer loop
      vertex -8.70557 4 12.9405
      vertex -8.4 -3 12
      vertex -8.70557 -3 12.9405
    endloop
  endfacet
  facet normal -0.587785 -2.053e-016 -0.809017
    outer loop
      vertex -8.70557 4 12.9405
      vertex -8.70557 -3 12.9405
      vertex -9.50557 4 13.5217
    endloop
  endfacet
  facet normal -0.587785 -2.053e-016 -0.809017
    outer loop
      vertex -9.50557 4 13.5217
      vertex -8.70557 -3 12.9405
      vertex -9.50557 -3 13.5217
    endloop
  endfacet
  facet normal 0 -2.53765e-016 -1
    outer loop
      vertex -9.50557 4 13.5217
      vertex -9.50557 -3 13.5217
      vertex -10.4944 4 13.5217
    endloop
  endfacet
  facet normal 0 -2.53765e-016 -1
    outer loop
      vertex -10.4944 4 13.5217
      vertex -9.50557 -3 13.5217
      vertex -10.4944 -3 13.5217
    endloop
  endfacet
  facet normal 0.587785 -2.053e-016 -0.809017
    outer loop
      vertex -10.4944 4 13.5217
      vertex -10.4944 -3 13.5217
      vertex -11.2944 4 12.9405
    endloop
  endfacet
  facet normal 0.587785 -2.053e-016 -0.809017
    outer loop
      vertex -11.2944 4 12.9405
      vertex -10.4944 -3 13.5217
      vertex -11.2944 -3 12.9405
    endloop
  endfacet
  facet normal 0.951056 -7.36796e-017 -0.309017
    outer loop
      vertex -11.6 4 12
      vertex -11.2944 4 12.9405
      vertex -11.2944 -3 12.9405
    endloop
  endfacet
  facet normal 0.951056 -7.84179e-017 -0.309017
    outer loop
      vertex -11.6 -3 12
      vertex -11.6 4 12
      vertex -11.2944 -3 12.9405
    endloop
  endfacet
  facet normal 0 1 -0
    outer loop
      vertex -8.32568 4 14.9
      vertex -6.65137 4 12
      vertex -11.6743 4 14.9
    endloop
  endfacet
  facet normal -1.03265e-016 1 -2.46648e-016
    outer loop
      vertex -8.70557 4 11.0595
      vertex -6.65137 4 12
      vertex -8.32568 4 9.1
    endloop
  endfacet
  facet normal 0 1 -3.22198e-016
    outer loop
      vertex -10.4944 4 10.4783
      vertex -8.32568 4 9.1
      vertex -11.6743 4 9.1
    endloop
  endfacet
  facet normal 2.65236e-016 1 -1.53134e-016
    outer loop
      vertex -11.6743 4 14.9
      vertex -11.6743 4 9.1
      vertex -13.3486 4 12
    endloop
  endfacet
  facet normal 1.44327e-016 1 -1.98649e-016
    outer loop
      vertex -8.70557 4 11.0595
      vertex -8.32568 4 9.1
      vertex -9.50557 4 10.4783
    endloop
  endfacet
  facet normal 4.73369e-016 1 -3.18399e-016
    outer loop
      vertex -11.6 4 12
      vertex -11.2944 4 11.0595
      vertex -11.6743 4 9.1
    endloop
  endfacet
  facet normal -1.44327e-016 1 -1.98649e-016
    outer loop
      vertex -11.2944 4 11.0595
      vertex -10.4944 4 10.4783
      vertex -11.6743 4 9.1
    endloop
  endfacet
  facet normal -4.79693e-031 1 -4.72206e-016
    outer loop
      vertex -8.4 4 12
      vertex -6.65137 4 12
      vertex -8.70557 4 11.0595
    endloop
  endfacet
  facet normal 0 1 0
    outer loop
      vertex -10.4944 4 13.5217
      vertex -11.6743 4 14.9
      vertex -9.50557 4 13.5217
    endloop
  endfacet
  facet normal 0 1 0
    outer loop
      vertex -8.70557 4 12.9405
      vertex -6.65137 4 12
      vertex -8.4 4 12
    endloop
  endfacet
  facet normal 0 1 0
    outer loop
      vertex -9.50557 4 13.5217
      vertex -6.65137 4 12
      vertex -8.70557 4 12.9405
    endloop
  endfacet
  facet normal 0 1 0
    outer loop
      vertex -11.6743 4 14.9
      vertex -6.65137 4 12
      vertex -9.50557 4 13.5217
    endloop
  endfacet
  facet normal 0 1 0
    outer loop
      vertex -11.2944 4 12.9405
      vertex -11.6743 4 14.9
      vertex -10.4944 4 13.5217
    endloop
  endfacet
  facet normal 0 1 0
    outer loop
      vertex -11.6 4 12
      vertex -11.6743 4 14.9
      vertex -11.2944 4 12.9405
    endloop
  endfacet
  facet normal -5.97569e-015 1 -1.53134e-016
    outer loop
      vertex -11.6743 4 14.9
      vertex -11.6 4 12
      vertex -11.6743 4 9.1
    endloop
  endfacet
  facet normal 0 1 -3.22198e-016
    outer loop
      vertex -9.50557 4 10.4783
      vertex -8.32568 4 9.1
      vertex -10.4944 4 10.4783
    endloop
  endfacet
  facet normal 0 -2.96059e-016 -1
    outer loop
      vertex 18.6743 17.5 7.9
      vertex 18.6743 14.5 7.9
      vertex 15.3257 17.5 7.9
    endloop
  endfacet
  facet normal 0 -2.96059e-016 -1
    outer loop
      vertex 15.3257 17.5 7.9
      vertex 18.6743 14.5 7.9
      vertex 15.3257 14.5 7.9
    endloop
  endfacet
  facet normal 0.866025 -1.98927e-016 -0.5
    outer loop
      vertex 13.6514 17.5 5
      vertex 15.3257 17.5 7.9
      vertex 15.3257 14.5 7.9
    endloop
  endfacet
  facet normal 0.866025 -1.4803e-016 -0.5
    outer loop
      vertex 13.6514 14.5 5
      vertex 13.6514 17.5 5
      vertex 15.3257 14.5 7.9
    endloop
  endfacet
  facet normal 0.866025 1.4803e-016 0.5
    outer loop
      vertex 15.3257 14.5 2.1
      vertex 15.3257 17.5 2.1
      vertex 13.6514 17.5 5
    endloop
  endfacet
  facet normal 0.866025 1.4803e-016 0.5
    outer loop
      vertex 13.6514 14.5 5
      vertex 15.3257 14.5 2.1
      vertex 13.6514 17.5 5
    endloop
  endfacet
  facet normal 0 2.96059e-016 1
    outer loop
      vertex 18.6743 14.5 2.1
      vertex 18.6743 17.5 2.1
      vertex 15.3257 17.5 2.1
    endloop
  endfacet
  facet normal 0 2.96059e-016 1
    outer loop
      vertex 15.3257 14.5 2.1
      vertex 18.6743 14.5 2.1
      vertex 15.3257 17.5 2.1
    endloop
  endfacet
  facet normal -0.866025 1.4803e-016 0.5
    outer loop
      vertex 20.3486 17.5 5
      vertex 18.6743 17.5 2.1
      vertex 20.3486 14.5 5
    endloop
  endfacet
  facet normal -0.866025 9.94636e-017 0.5
    outer loop
      vertex 20.3486 14.5 5
      vertex 18.6743 17.5 2.1
      vertex 18.6743 14.5 2.1
    endloop
  endfacet
  facet normal -0.866025 -1.4803e-016 -0.5
    outer loop
      vertex 20.3486 17.5 5
      vertex 20.3486 14.5 5
      vertex 18.6743 17.5 7.9
    endloop
  endfacet
  facet normal -0.866025 -1.4803e-016 -0.5
    outer loop
      vertex 18.6743 17.5 7.9
      vertex 20.3486 14.5 5
      vertex 18.6743 14.5 7.9
    endloop
  endfacet
endsolid OpenSCAD_Model
