solid OpenSCAD_Model
  facet normal -1 0 0
    outer loop
      vertex 0 9.89489 3.45
      vertex 0 15 0
      vertex 0 9 3.21021
    endloop
  endfacet
  facet normal -1 0 -0
    outer loop
      vertex 0 9.89489 6.55
      vertex 0 0 10
      vertex 0 15 10
    endloop
  endfacet
  facet normal -1 0 -0
    outer loop
      vertex 0 0 0
      vertex 0 0 10
      vertex 0 7.21021 5
    endloop
  endfacet
  facet normal -1 0 0
    outer loop
      vertex 0 0 0
      vertex 0 7.21021 5
      vertex 0 7.45 4.10511
    endloop
  endfacet
  facet normal -1 0 0
    outer loop
      vertex 0 0 0
      vertex 0 7.45 4.10511
      vertex 0 8.10511 3.45
    endloop
  endfacet
  facet normal -1 -0 0
    outer loop
      vertex 0 0 0
      vertex 0 8.10511 3.45
      vertex 0 15 0
    endloop
  endfacet
  facet normal -1 0 0
    outer loop
      vertex 0 8.10511 3.45
      vertex 0 9 3.21021
      vertex 0 15 0
    endloop
  endfacet
  facet normal -1 0 0
    outer loop
      vertex 0 15 0
      vertex 0 9.89489 3.45
      vertex 0 10.55 4.10511
    endloop
  endfacet
  facet normal -1 0 0
    outer loop
      vertex 0 15 0
      vertex 0 10.55 4.10511
      vertex 0 15 10
    endloop
  endfacet
  facet normal -1 0 -0
    outer loop
      vertex 0 8.10511 6.55
      vertex 0 0 10
      vertex 0 9 6.78979
    endloop
  endfacet
  facet normal -1 0 -0
    outer loop
      vertex 0 7.45 5.89489
      vertex 0 0 10
      vertex 0 8.10511 6.55
    endloop
  endfacet
  facet normal -1 0 -0
    outer loop
      vertex 0 10.7898 5
      vertex 0 10.55 5.89489
      vertex 0 15 10
    endloop
  endfacet
  facet normal -1 -0 -0
    outer loop
      vertex 0 9 6.78979
      vertex 0 0 10
      vertex 0 9.89489 6.55
    endloop
  endfacet
  facet normal -1 0 -0
    outer loop
      vertex 0 10.55 5.89489
      vertex 0 9.89489 6.55
      vertex 0 15 10
    endloop
  endfacet
  facet normal -1 0 -0
    outer loop
      vertex 0 7.21021 5
      vertex 0 0 10
      vertex 0 7.45 5.89489
    endloop
  endfacet
  facet normal -1 -0 0
    outer loop
      vertex 0 10.7898 5
      vertex 0 15 10
      vertex 0 10.55 4.10511
    endloop
  endfacet
  facet normal 0 -1 0
    outer loop
      vertex 0 0 10
      vertex 0 0 0
      vertex 20 0 0
    endloop
  endfacet
  facet normal 0 -1 0
    outer loop
      vertex 20 0 10
      vertex 0 0 10
      vertex 20 0 0
    endloop
  endfacet
  facet normal 0 0 -1
    outer loop
      vertex 20 3 0
      vertex 20 0 0
      vertex 5 3 0
    endloop
  endfacet
  facet normal 0 -0 -1
    outer loop
      vertex 0 0 0
      vertex 0 15 0
      vertex 5 3 0
    endloop
  endfacet
  facet normal -0 0 -1
    outer loop
      vertex 0 0 0
      vertex 5 3 0
      vertex 20 0 0
    endloop
  endfacet
  facet normal 0 0 -1
    outer loop
      vertex 5 3 0
      vertex 0 15 0
      vertex 5 15 0
    endloop
  endfacet
  facet normal 0 1 0
    outer loop
      vertex 0 15 0
      vertex 0 15 10
      vertex 5 15 0
    endloop
  endfacet
  facet normal 0 1 0
    outer loop
      vertex 5 15 0
      vertex 0 15 10
      vertex 5 15 10
    endloop
  endfacet
  facet normal 0 -0 1
    outer loop
      vertex 5 3 10
      vertex 0 0 10
      vertex 20 0 10
    endloop
  endfacet
  facet normal 0 0 1
    outer loop
      vertex 5 3 10
      vertex 5 15 10
      vertex 0 15 10
    endloop
  endfacet
  facet normal 0 -0 1
    outer loop
      vertex 0 15 10
      vertex 0 0 10
      vertex 5 3 10
    endloop
  endfacet
  facet normal 0 0 1
    outer loop
      vertex 20 3 10
      vertex 5 3 10
      vertex 20 0 10
    endloop
  endfacet
  facet normal 9.1951e-017 0.965926 -0.258819
    outer loop
      vertex 2.5 7.45 5.89489
      vertex 2.5 7.21021 5
      vertex 0 7.45 5.89489
    endloop
  endfacet
  facet normal 4.71762e-018 0.965926 -0.258819
    outer loop
      vertex 0 7.45 5.89489
      vertex 2.5 7.21021 5
      vertex 0 7.21021 5
    endloop
  endfacet
  facet normal -9.1951e-017 0.965926 0.258819
    outer loop
      vertex 2.5 7.45 4.10511
      vertex 0 7.45 4.10511
      vertex 2.5 7.21021 5
    endloop
  endfacet
  facet normal -0 0.965926 0.258819
    outer loop
      vertex 2.5 7.21021 5
      vertex 0 7.45 4.10511
      vertex 0 7.21021 5
    endloop
  endfacet
  facet normal 0 0.707107 -0.707107
    outer loop
      vertex 2.5 8.10511 6.55
      vertex 2.5 7.45 5.89489
      vertex 0 8.10511 6.55
    endloop
  endfacet
  facet normal 2.33778e-016 0.707107 -0.707107
    outer loop
      vertex 0 8.10511 6.55
      vertex 2.5 7.45 5.89489
      vertex 0 7.45 5.89489
    endloop
  endfacet
  facet normal 3.43166e-016 0.258819 -0.965926
    outer loop
      vertex 2.5 9 6.78979
      vertex 2.5 8.10511 6.55
      vertex 0 9 6.78979
    endloop
  endfacet
  facet normal 3.27308e-018 0.258819 -0.965926
    outer loop
      vertex 0 9 6.78979
      vertex 2.5 8.10511 6.55
      vertex 0 8.10511 6.55
    endloop
  endfacet
  facet normal 0 -0.258819 -0.965926
    outer loop
      vertex 2.5 9.89489 6.55
      vertex 2.5 9 6.78979
      vertex 0 9.89489 6.55
    endloop
  endfacet
  facet normal 3.51042e-016 -0.258819 -0.965926
    outer loop
      vertex 0 9.89489 6.55
      vertex 2.5 9 6.78979
      vertex 0 9 6.78979
    endloop
  endfacet
  facet normal 2.51215e-016 -0.707107 -0.707107
    outer loop
      vertex 0 10.55 5.89489
      vertex 2.5 10.55 5.89489
      vertex 2.5 9.89489 6.55
    endloop
  endfacet
  facet normal -0 -0.707107 -0.707107
    outer loop
      vertex 0 9.89489 6.55
      vertex 0 10.55 5.89489
      vertex 2.5 9.89489 6.55
    endloop
  endfacet
  facet normal -0 -0.965926 -0.258819
    outer loop
      vertex 0 10.7898 5
      vertex 2.5 10.7898 5
      vertex 2.5 10.55 5.89489
    endloop
  endfacet
  facet normal 9.1951e-017 -0.965926 -0.258819
    outer loop
      vertex 0 10.55 5.89489
      vertex 0 10.7898 5
      vertex 2.5 10.55 5.89489
    endloop
  endfacet
  facet normal -5.58617e-018 -0.965926 0.258819
    outer loop
      vertex 2.5 10.55 4.10511
      vertex 2.5 10.7898 5
      vertex 0 10.7898 5
    endloop
  endfacet
  facet normal -9.1951e-017 -0.965926 0.258819
    outer loop
      vertex 0 10.55 4.10511
      vertex 2.5 10.55 4.10511
      vertex 0 10.7898 5
    endloop
  endfacet
  facet normal -2.22807e-016 -0.707107 0.707107
    outer loop
      vertex 2.5 9.89489 3.45
      vertex 2.5 10.55 4.10511
      vertex 0 10.55 4.10511
    endloop
  endfacet
  facet normal -1.25607e-016 -0.707107 0.707107
    outer loop
      vertex 0 9.89489 3.45
      vertex 2.5 9.89489 3.45
      vertex 0 10.55 4.10511
    endloop
  endfacet
  facet normal -1.72083e-016 -0.258819 0.965926
    outer loop
      vertex 2.5 9 3.21021
      vertex 2.5 9.89489 3.45
      vertex 0 9.89489 3.45
    endloop
  endfacet
  facet normal -1.71583e-016 -0.258819 0.965926
    outer loop
      vertex 0 9 3.21021
      vertex 2.5 9 3.21021
      vertex 0 9.89489 3.45
    endloop
  endfacet
  facet normal -1.65418e-016 0.258819 0.965926
    outer loop
      vertex 2.5 8.10511 3.45
      vertex 2.5 9 3.21021
      vertex 0 9 3.21021
    endloop
  endfacet
  facet normal -1.71583e-016 0.258819 0.965926
    outer loop
      vertex 0 8.10511 3.45
      vertex 2.5 8.10511 3.45
      vertex 0 9 3.21021
    endloop
  endfacet
  facet normal -1.25607e-016 0.707107 0.707107
    outer loop
      vertex 2.5 8.10511 3.45
      vertex 0 8.10511 3.45
      vertex 2.5 7.45 4.10511
    endloop
  endfacet
  facet normal -2.51215e-016 0.707107 0.707107
    outer loop
      vertex 2.5 7.45 4.10511
      vertex 0 8.10511 3.45
      vertex 0 7.45 4.10511
    endloop
  endfacet
  facet normal 1 0 -0
    outer loop
      vertex 20 0 10
      vertex 20 0 0
      vertex 20 3 0
    endloop
  endfacet
  facet normal 1 0 0
    outer loop
      vertex 20 3 10
      vertex 20 0 10
      vertex 20 3 0
    endloop
  endfacet
  facet normal 0 1 0
    outer loop
      vertex 20 3 10
      vertex 20 3 0
      vertex 5 3 10
    endloop
  endfacet
  facet normal 0 1 -0
    outer loop
      vertex 5 3 10
      vertex 20 3 0
      vertex 5 3 0
    endloop
  endfacet
  facet normal 1 0 0
    outer loop
      vertex 5 7.41229 7.75
      vertex 5 15 10
      vertex 5 3 10
    endloop
  endfacet
  facet normal 1 -0 0
    outer loop
      vertex 5 10.5877 7.75
      vertex 5 15 10
      vertex 5 7.41229 7.75
    endloop
  endfacet
  facet normal 1 0 0
    outer loop
      vertex 5 12.1754 5
      vertex 5 15 10
      vertex 5 10.5877 7.75
    endloop
  endfacet
  facet normal 1 0 0
    outer loop
      vertex 5 15 0
      vertex 5 15 10
      vertex 5 12.1754 5
    endloop
  endfacet
  facet normal 1 0 -0
    outer loop
      vertex 5 12.1754 5
      vertex 5 10.5877 2.25
      vertex 5 15 0
    endloop
  endfacet
  facet normal 1 0 0
    outer loop
      vertex 5 3 0
      vertex 5 15 0
      vertex 5 10.5877 2.25
    endloop
  endfacet
  facet normal 1 0 0
    outer loop
      vertex 5 3 0
      vertex 5 10.5877 2.25
      vertex 5 7.41229 2.25
    endloop
  endfacet
  facet normal 1 0 0
    outer loop
      vertex 5 3 0
      vertex 5 5.82457 5
      vertex 5 3 10
    endloop
  endfacet
  facet normal 1 0 0
    outer loop
      vertex 5 3 0
      vertex 5 7.41229 2.25
      vertex 5 5.82457 5
    endloop
  endfacet
  facet normal 1 0 0
    outer loop
      vertex 5 5.82457 5
      vertex 5 7.41229 7.75
      vertex 5 3 10
    endloop
  endfacet
  facet normal 1 -2.79704e-016 1.61487e-016
    outer loop
      vertex 2.5 8.10511 3.45
      vertex 2.5 7.41229 2.25
      vertex 2.5 10.5877 2.25
    endloop
  endfacet
  facet normal 1 4.45012e-016 1.66081e-015
    outer loop
      vertex 2.5 9 3.21021
      vertex 2.5 8.10511 3.45
      vertex 2.5 10.5877 2.25
    endloop
  endfacet
  facet normal 1 2.22506e-016 9.00394e-016
    outer loop
      vertex 2.5 8.10511 3.45
      vertex 2.5 7.45 4.10511
      vertex 2.5 5.82457 5
    endloop
  endfacet
  facet normal 1 -2.79704e-016 2.08587e-016
    outer loop
      vertex 2.5 7.41229 7.75
      vertex 2.5 8.10511 6.55
      vertex 2.5 10.5877 7.75
    endloop
  endfacet
  facet normal 1 -1.80642e-016 2.65781e-016
    outer loop
      vertex 2.5 7.41229 7.75
      vertex 2.5 5.82457 5
      vertex 2.5 8.10511 6.55
    endloop
  endfacet
  facet normal 1 -3.20494e-016 5.82125e-016
    outer loop
      vertex 2.5 10.7898 5
      vertex 2.5 10.55 4.10511
      vertex 2.5 12.1754 5
    endloop
  endfacet
  facet normal 1 2.22506e-016 9.00394e-016
    outer loop
      vertex 2.5 9.89489 6.55
      vertex 2.5 10.55 5.89489
      vertex 2.5 12.1754 5
    endloop
  endfacet
  facet normal 1 -2.79704e-016 1.61487e-016
    outer loop
      vertex 2.5 10.5877 7.75
      vertex 2.5 9.89489 6.55
      vertex 2.5 12.1754 5
    endloop
  endfacet
  facet normal 1 0 0
    outer loop
      vertex 2.5 10.5877 7.75
      vertex 2.5 9 6.78979
      vertex 2.5 9.89489 6.55
    endloop
  endfacet
  facet normal 1 -3.20494e-016 5.82125e-016
    outer loop
      vertex 2.5 7.21021 5
      vertex 2.5 7.45 5.89489
      vertex 2.5 5.82457 5
    endloop
  endfacet
  facet normal 1 -3.20494e-016 -8.58761e-017
    outer loop
      vertex 2.5 10.55 5.89489
      vertex 2.5 10.7898 5
      vertex 2.5 12.1754 5
    endloop
  endfacet
  facet normal 1 -1.30338e-016 2.36738e-016
    outer loop
      vertex 2.5 12.1754 5
      vertex 2.5 10.55 4.10511
      vertex 2.5 10.5877 2.25
    endloop
  endfacet
  facet normal 1 -2.34618e-016 2.34618e-016
    outer loop
      vertex 2.5 10.55 4.10511
      vertex 2.5 9.89489 3.45
      vertex 2.5 10.5877 2.25
    endloop
  endfacet
  facet normal 1 -5.1564e-016 7.23697e-017
    outer loop
      vertex 2.5 9.89489 3.45
      vertex 2.5 9 3.21021
      vertex 2.5 10.5877 2.25
    endloop
  endfacet
  facet normal 1 -2.79704e-016 1.61487e-016
    outer loop
      vertex 2.5 5.82457 5
      vertex 2.5 7.41229 2.25
      vertex 2.5 8.10511 3.45
    endloop
  endfacet
  facet normal 1 -8.91017e-016 1.4733e-015
    outer loop
      vertex 2.5 8.10511 6.55
      vertex 2.5 9 6.78979
      vertex 2.5 10.5877 7.75
    endloop
  endfacet
  facet normal 1 -0 0
    outer loop
      vertex 2.5 7.45 5.89489
      vertex 2.5 8.10511 6.55
      vertex 2.5 5.82457 5
    endloop
  endfacet
  facet normal 1 -3.20494e-016 -8.58761e-017
    outer loop
      vertex 2.5 7.45 4.10511
      vertex 2.5 7.21021 5
      vertex 2.5 5.82457 5
    endloop
  endfacet
  facet normal 0 0 -1
    outer loop
      vertex 5 10.5877 7.75
      vertex 5 7.41229 7.75
      vertex 2.5 10.5877 7.75
    endloop
  endfacet
  facet normal 0 0 -1
    outer loop
      vertex 2.5 10.5877 7.75
      vertex 5 7.41229 7.75
      vertex 2.5 7.41229 7.75
    endloop
  endfacet
  facet normal 3.07674e-016 0.866025 -0.5
    outer loop
      vertex 5 5.82457 5
      vertex 2.5 5.82457 5
      vertex 5 7.41229 7.75
    endloop
  endfacet
  facet normal 3.07674e-016 0.866025 -0.5
    outer loop
      vertex 5 7.41229 7.75
      vertex 2.5 5.82457 5
      vertex 2.5 7.41229 7.75
    endloop
  endfacet
  facet normal 2.18856e-016 0.866025 0.5
    outer loop
      vertex 5 7.41229 2.25
      vertex 2.5 7.41229 2.25
      vertex 5 5.82457 5
    endloop
  endfacet
  facet normal 3.07674e-016 0.866025 0.5
    outer loop
      vertex 5 5.82457 5
      vertex 2.5 7.41229 2.25
      vertex 2.5 5.82457 5
    endloop
  endfacet
  facet normal -1.77636e-016 0 1
    outer loop
      vertex 5 7.41229 2.25
      vertex 5 10.5877 2.25
      vertex 2.5 10.5877 2.25
    endloop
  endfacet
  facet normal -1.77636e-016 4.96854e-032 1
    outer loop
      vertex 2.5 7.41229 2.25
      vertex 5 7.41229 2.25
      vertex 2.5 10.5877 2.25
    endloop
  endfacet
  facet normal -8.88178e-017 -0.866025 0.5
    outer loop
      vertex 2.5 10.5877 2.25
      vertex 5 10.5877 2.25
      vertex 5 12.1754 5
    endloop
  endfacet
  facet normal -6.15348e-016 -0.866025 0.5
    outer loop
      vertex 2.5 12.1754 5
      vertex 2.5 10.5877 2.25
      vertex 5 12.1754 5
    endloop
  endfacet
  facet normal -6.15348e-016 -0.866025 -0.5
    outer loop
      vertex 2.5 12.1754 5
      vertex 5 12.1754 5
      vertex 5 10.5877 7.75
    endloop
  endfacet
  facet normal -0 -0.866025 -0.5
    outer loop
      vertex 2.5 10.5877 7.75
      vertex 2.5 12.1754 5
      vertex 5 10.5877 7.75
    endloop
  endfacet
endsolid OpenSCAD_Model
